<?xml version="1.0" encoding="utf-8"?>
<!-- Generator: Adobe Illustrator 27.5.0, SVG Export Plug-In . SVG Version: 6.00 Build 0)  -->
<svg version="1.1" xmlns="http://www.w3.org/2000/svg" xmlns:xlink="http://www.w3.org/1999/xlink" x="0px" y="0px"
	 viewBox="0 0 3710 3710" style="enable-background:new 0 0 3710 3710;" xml:space="preserve">
<g id="Background">
	<g>
		<g>
			<rect style="fill:#FFFFFF;" width="3710" height="3710"/>
		</g>
	</g>
</g>
<g id="Illustration">
	<g>
		<path style="fill:#F4F7FA;" d="M1127.395,659.69c-95.944,137.35,16.553,360.028-125.812,463.326
			c-138.582,100.554-308.826-64.267-439.43,22.289c-193.744,128.401-158.363,715.938,124.902,1080.986
			c85.187,109.782,156.367,152.498,187.891,276.656c67.693,266.601-170.214,425.191-124.94,557.048
			c101.94,296.892,1669.694,546.019,2298.747-346.24c293.793-416.722,337.751-1018.472,75.256-1475.504
			C2649.683,412.401,1342.678,351.502,1127.395,659.69z"/>
		<g>
			<g>
				
					<linearGradient id="SVGID_1_" gradientUnits="userSpaceOnUse" x1="4217.543" y1="2952.0662" x2="4316.0347" y2="2952.0662" gradientTransform="matrix(-0.4319 -0.9019 -0.9019 0.4319 5692.7109 5444.5669)">
					<stop  offset="0" style="stop-color:#444B8C"/>
					<stop  offset="0.9964" style="stop-color:#26264F"/>
				</linearGradient>
				<path style="fill:url(#SVGID_1_);" d="M1190.175,2824.387c-6.186-3.146-16.58,0.383-23.375,2.692
					c-3.036,1.029-4.553,1.545-5.439,2.329c-6.461,5.714-0.782,20.645,7.029,44.544c12.344,37.767,14.272,49.781,20.903,50.222
					c6.214,0.414,11.618-9.661,12.208-10.787c3.167-6.052,2.831-11.606,1.775-22.164c-1.955-19.535-3.995-32.415-4.612-36.316
					C1194.812,2830.553,1194.236,2826.455,1190.175,2824.387z"/>
				
					<linearGradient id="SVGID_00000005238339584743577160000008106911038737278880_" gradientUnits="userSpaceOnUse" x1="4613.9829" y1="2659.7266" x2="4657.1899" y2="2570.2974" gradientTransform="matrix(-0.5146 -0.8575 -0.8575 0.5146 5839.5801 5452.521)">
					<stop  offset="0" style="stop-color:#FFC444"/>
					<stop  offset="0.9964" style="stop-color:#F36F56"/>
				</linearGradient>
				<path style="fill:url(#SVGID_00000005238339584743577160000008106911038737278880_);" d="M1232.716,2831.225l-39.565,21.888
					c-2.444-0.144-13.838-9.734-13.038-21.725l36.346-27.25L1232.716,2831.225z"/>
				
					<linearGradient id="SVGID_00000067214151427920327790000017124735022562902670_" gradientUnits="userSpaceOnUse" x1="1792.1315" y1="2538.1997" x2="1452.6226" y2="2462.2258">
					<stop  offset="0" style="stop-color:#444B8C"/>
					<stop  offset="0.9964" style="stop-color:#26264F"/>
				</linearGradient>
				<path style="fill:url(#SVGID_00000067214151427920327790000017124735022562902670_);" d="M1641.631,2068.226
					c13.743,51.993,29.363,126.535,34.36,217.197c4.142,75.154,0.776,158.127-8.283,203.238
					c-45.392,226.047-403.324,344.808-445.509,358.297c-8.854-11.891-17.709-23.781-26.564-35.673
					c44.578-33.137,262.332-200.054,264.503-385.93c0.349-29.922-4.489-94.55-17.044-163.581
					c-13.435-73.868-32.247-133.758-47.271-175.31C1477.758,2080.384,1559.694,2074.305,1641.631,2068.226z"/>
				
					<linearGradient id="SVGID_00000049182063054234515530000016651025260325889165_" gradientUnits="userSpaceOnUse" x1="1605.092" y1="1662.426" x2="1690.6244" y2="1570.1411">
					<stop  offset="0" style="stop-color:#FF9085"/>
					<stop  offset="1" style="stop-color:#FB6FBB"/>
				</linearGradient>
				<path style="fill:url(#SVGID_00000049182063054234515530000016651025260325889165_);" d="M1596.333,1421.285l31.92,6.384
					c0,0,167.58,213.863,143.64,295.26c-23.94,81.396-143.64,19.152-143.64,19.152L1596.333,1421.285z"/>
				
					<linearGradient id="SVGID_00000010301423521196903880000006962129145384325283_" gradientUnits="userSpaceOnUse" x1="814.8819" y1="2973.04" x2="913.3699" y2="2973.04" gradientTransform="matrix(-0.9996 0.0289 0.0289 0.9996 2205.6753 -31.2392)">
					<stop  offset="0" style="stop-color:#444B8C"/>
					<stop  offset="0.9964" style="stop-color:#26264F"/>
				</linearGradient>
				<path style="fill:url(#SVGID_00000010301423521196903880000006962129145384325283_);" d="M1386.013,2944.014
					c-5.385,4.378-6.377,15.31-7.023,22.456c-0.291,3.192-0.434,4.79-0.078,5.917c2.602,8.224,18.553,9.09,43.565,11.646
					c39.527,4.038,51.291,7.149,54.383,1.267c2.9-5.512-4.116-14.538-4.906-15.534c-4.247-5.35-9.46-7.296-19.539-10.613
					c-18.648-6.138-31.248-9.499-35.064-10.516C1393.529,2942.276,1389.55,2941.139,1386.013,2944.014z"/>
				
					<linearGradient id="SVGID_00000085937535816903309660000008223065596026695331_" gradientUnits="userSpaceOnUse" x1="1229.0938" y1="3000.175" x2="1272.3022" y2="2910.7434" gradientTransform="matrix(-0.9925 0.1225 0.1225 0.9925 2272.9387 -162.6817)">
					<stop  offset="0" style="stop-color:#FFC444"/>
					<stop  offset="0.9964" style="stop-color:#F36F56"/>
				</linearGradient>
				<path style="fill:url(#SVGID_00000085937535816903309660000008223065596026695331_);" d="M1409.52,2907.903l3.956,45.043
					c-1.124,2.175-14.512,8.699-25.147,3.104l-10.163-44.275L1409.52,2907.903z"/>
				
					<linearGradient id="SVGID_00000093159821855404431530000017028694247175968165_" gradientUnits="userSpaceOnUse" x1="1201.3159" y1="2857.0051" x2="922.2333" y2="2227.8865" gradientTransform="matrix(0.9925 -0.1225 0.1225 0.9925 83.0051 108.1241)">
					<stop  offset="0" style="stop-color:#444B8C"/>
					<stop  offset="0.9964" style="stop-color:#26264F"/>
				</linearGradient>
				<path style="fill:url(#SVGID_00000093159821855404431530000017028694247175968165_);" d="M1457.732,1962.681
					c-9.871,179.734-17.991,362.813-24.143,549.135c-4.618,139.815-8.008,277.858-10.262,414.084
					c-16.474,2.034-32.95,4.069-49.426,6.102c-15.918-29.639-37.063-74.953-51.547-133.033
					c-17.593-70.539-13.519-112.429-21.234-185.538c-8.656-81.996-21.23-99.86-43.504-203.297
					c-45.208-209.924-67.812-314.886-17.383-380.178C1256.603,2008.761,1307.924,1955.589,1457.732,1962.681z"/>
				
					<linearGradient id="SVGID_00000063615262569593512190000003048226646409433985_" gradientUnits="userSpaceOnUse" x1="1233.9387" y1="2030.0061" x2="1557.395" y2="1681.0143">
					<stop  offset="0" style="stop-color:#FF9085"/>
					<stop  offset="1" style="stop-color:#FB6FBB"/>
				</linearGradient>
				<path style="fill:url(#SVGID_00000063615262569593512190000003048226646409433985_);" d="M1229.573,1426.787
					c42.615-11.984,105.071-25.998,181.56-30.322c112.778-6.374,169.187-9.196,202.293,16.73
					c102.676,80.406,5.37,367.8,41.959,518.81c30.786,127.063,31.92,129.276,31.92,129.276
					c7.278,14.205,19.071,33.943,14.364,57.456c-3.701,18.493-17.694,39.742-36.707,46.284c-39.51,13.594-62.16-49.58-127.68-68.628
					c-68.488-19.911-145.114,19.645-242.007,69.661c-61.663,31.832-82.718,52.133-104.325,42.059
					c-41.605-19.4-30.179-125.752-25.536-169.176C1183.865,1866.384,1204.633,1664.354,1229.573,1426.787z"/>
				
					<linearGradient id="SVGID_00000173143678635441059840000005746718842479894400_" gradientUnits="userSpaceOnUse" x1="1508.9115" y1="1718.9071" x2="1634.3042" y2="1718.9071">
					<stop  offset="0" style="stop-color:#FFC444"/>
					<stop  offset="0.9964" style="stop-color:#F36F56"/>
				</linearGradient>
				<path style="fill:url(#SVGID_00000173143678635441059840000005746718842479894400_);" d="M1512.543,1719.737
					c-2.982-0.666-8.294-20.5,4.788-26.334c59.052-26.334,104.751,25.805,110.861,41.848c6.112,16.042,6.112,16.042,6.112,16.042
					s-29.327,2.292-47.513-3.818C1568.603,1741.362,1536.792,1725.144,1512.543,1719.737z"/>
				<g>
					<g>
						
							<linearGradient id="SVGID_00000057856700638692293460000017091546905213978521_" gradientUnits="userSpaceOnUse" x1="747.9811" y1="585.5015" x2="713.4833" y2="536.5146" gradientTransform="matrix(0.2291 -0.9734 -0.9734 -0.2291 2020.0098 2554.8499)">
							<stop  offset="0" style="stop-color:#444B8C"/>
							<stop  offset="0.9964" style="stop-color:#26264F"/>
						</linearGradient>
						<path style="fill:url(#SVGID_00000057856700638692293460000017091546905213978521_);" d="M1673.885,1794.41l-103.892,5.241
							c-3.98,0.201-8.734-4.726-7.754-8.08l48.531-157.047c0.763-2.611,3.422-4.354,6.379-4.19l99.635,2.184
							c3.246,0.191,5.025,6.584,4.143,9.745l-41.283,147.674C1678.964,1792.369,1676.512,1794.279,1673.885,1794.41z"/>
						
							<linearGradient id="SVGID_00000111155945319642680860000003065128781025577360_" gradientUnits="userSpaceOnUse" x1="681.2592" y1="674.9997" x2="763.4054" y2="508.1403" gradientTransform="matrix(0.2291 -0.9734 -0.9734 -0.2291 2020.0098 2554.8499)">
							<stop  offset="0" style="stop-color:#311944"/>
							<stop  offset="1" style="stop-color:#893976"/>
						</linearGradient>
						<path style="fill:url(#SVGID_00000111155945319642680860000003065128781025577360_);" d="M1672.007,1791.064l-104.465,4.902
							c-4.004,0.188-6.764-2.677-5.784-6.036l46.664-159.762c0.766-2.621,3.439-4.361,6.412-4.185l99.775,5.9
							c3.264,0.193,5.461,3.334,4.575,6.505l-41.393,148.2C1677.11,1789.031,1674.646,1790.94,1672.007,1791.064z"/>
					</g>
					
						<linearGradient id="SVGID_00000057846091399412861040000005484336748272674743_" gradientUnits="userSpaceOnUse" x1="634.7523" y1="564.9945" x2="813.9091" y2="564.9945" gradientTransform="matrix(0.2291 -0.9734 -0.9734 -0.2291 2020.0098 2554.8499)">
						<stop  offset="0" style="stop-color:#311944"/>
						<stop  offset="1" style="stop-color:#893976"/>
					</linearGradient>
					<path style="opacity:0.3;fill:url(#SVGID_00000057846091399412861040000005484336748272674743_);" d="M1619.268,1695.804
						c3.094,14.528,16.162,11.399,26.822,28.985c13.534,22.325,0.565,42.039,12.969,50.215c3.786,2.494,10.185,3.993,21.694,0.983
						l-2.961,10.601c-0.681,2.442-3.146,4.352-5.785,4.475l-104.465,4.902c-4.003,0.187-6.764-2.678-5.784-6.036l46.664-159.762
						c0.766-2.621,3.438-4.361,6.412-4.185l14.989,0.886c1.761,5.49,3.02,11.827,2.883,18.844
						C1632.234,1669.804,1615.644,1678.785,1619.268,1695.804z"/>
				</g>
				
					<linearGradient id="SVGID_00000049216424959157737520000008984675239288897954_" gradientUnits="userSpaceOnUse" x1="1652.1447" y1="1652.5197" x2="1746.2418" y2="1771.7979">
					<stop  offset="0" style="stop-color:#FFC444"/>
					<stop  offset="0.9964" style="stop-color:#F36F56"/>
				</linearGradient>
				<path style="fill:url(#SVGID_00000049216424959157737520000008984675239288897954_);" d="M1719.611,1684.076
					c0.585-2.513-0.655-5.1-2.523-5.235c-7.603-0.548-25.235-0.771-34.97,7.661c-12.645,10.956-28.996,30.947-15.227,41.034
					l12.858,9.421c0.59,0.433,1.234,0.567,1.881,0.366c4.568-1.421,23.798-7.455,25.901-8.953
					C1709.447,1727.007,1716.778,1696.233,1719.611,1684.076z"/>
				
					<linearGradient id="SVGID_00000088845176525666100720000016428653227817601188_" gradientUnits="userSpaceOnUse" x1="1255.3811" y1="2049.8792" x2="1578.8379" y2="1700.887">
					<stop  offset="0" style="stop-color:#FF9085"/>
					<stop  offset="1" style="stop-color:#FB6FBB"/>
				</linearGradient>
				<path style="opacity:0.3;fill:url(#SVGID_00000088845176525666100720000016428653227817601188_);" d="M1633.041,2104.373
					c-11.142-19.314-10.674-48.484-35.113-62.244c-14.248-8.024-25.355-4.272-44.688-4.788
					c-57.629-1.537-68.661-37.793-108.527-39.899c-61.741-3.264-91.398,80.728-126.084,68.628
					c-22.642-7.899-37.221-53.186-25.536-87.78c16.289-48.225,72.112-41.619,145.236-106.932
					c31.282-27.939,76.164-78.361,63.841-100.548c-12.945-23.304-74.365,10.892-119.7-23.94
					c-26.454-20.324-23.078-45.441-44.688-90.972c-11.71-24.673-54.594-88.821-118.372-132.069
					c-20.503,196.103-38.111,366.562-53.996,515.109c-4.644,43.424-16.069,149.776,25.536,169.176
					c21.607,10.074,42.663-10.227,104.325-42.059c96.893-50.016,173.519-89.572,242.007-69.661
					c65.52,19.048,88.17,82.222,127.68,68.628c12.342-4.246,22.507-14.711,29.176-26.577
					C1658.899,2132.107,1641.436,2118.924,1633.041,2104.373z"/>
				<g>
					
						<linearGradient id="SVGID_00000031191613374608754320000003583488066143574167_" gradientUnits="userSpaceOnUse" x1="1571.446" y1="1181.6025" x2="1582.8108" y2="878.8815" gradientTransform="matrix(0.917 0.3988 -0.3988 0.917 399.6047 -184.8945)">
						<stop  offset="0" style="stop-color:#FFC444"/>
						<stop  offset="0.9964" style="stop-color:#F36F56"/>
					</linearGradient>
					<path style="fill:url(#SVGID_00000031191613374608754320000003583488066143574167_);" d="M1428.636,1313.523
						c0.072,8.575,9.21,47.798-19.547,68.621c-29.018,21.012-55.968,20.706-66.845,23.403c-25.22,6.252-28.465,6.083-29.022,8.585
						c-2.716,12.209,66.054,53.819,137.102,43.789c43.483-6.136,83.045-30.944,80.617-43.972
						c-2.445-13.11-45.879-6.075-58.825-29.794c-9.006-16.5,1.09-39.925,13.022-59.323
						C1473.581,1303.178,1440.193,1335.176,1428.636,1313.523z"/>
					<g>
						
							<linearGradient id="SVGID_00000034086472771886622890000000638649616391134905_" gradientUnits="userSpaceOnUse" x1="-658.6632" y1="1077.1814" x2="-740.9265" y2="868.2476" gradientTransform="matrix(-0.9999 0.0148 0.0148 0.9999 733.8099 388.1969)">
							<stop  offset="0" style="stop-color:#311944"/>
							<stop  offset="1" style="stop-color:#6B3976"/>
						</linearGradient>
						<path style="fill:url(#SVGID_00000034086472771886622890000000638649616391134905_);" d="M1527.605,1302.572
							c10.11-13.745,10.479-37.549-1.511-52.46c-10.318-12.831-26.351-14.499-35.949-15.502
							c-27.813-2.899-62.733,9.086-74.64,34.787c-7.056,15.231,8.92,46.537,11.43,52.17c2.843,6.368,7.889,8.508,12.591,13.296
							c6.515,6.638,16.716,17.196,33.373,34.858c1.22-5.28,3.093-11.82,6.103-18.919c1.159-2.733,5.818-13.407,12.946-22.295
							C1506.225,1310.691,1518.02,1315.598,1527.605,1302.572z"/>
						
							<linearGradient id="SVGID_00000019653953652785450790000007400165286059575221_" gradientUnits="userSpaceOnUse" x1="2179.4277" y1="1010.3303" x2="2175.6453" y2="1315.0973" gradientTransform="matrix(0.9972 -0.076 0.076 0.9972 -771.8605 461.87)">
							<stop  offset="0" style="stop-color:#FFC444"/>
							<stop  offset="0.9964" style="stop-color:#F36F56"/>
						</linearGradient>
						<path style="fill:url(#SVGID_00000019653953652785450790000007400165286059575221_);" d="M1449.254,1354.976
							c0,0,18.593,29.755,54.925,26.987c32.529-2.48,36.487-75.535,15.523-90.796c-6.995-5.09-20.91-7.082-32.17-3.792
							c-6.651,1.945-8.88,4.741-19.809,7.705c-10.083,2.736-12.949,1.647-15.973,4.248c-3.781,3.256-6.49,11.164,0.121,32.434
							c-6.281-6.219-13.762-8.55-19.018-5.997c-0.836,0.409-3.055,1.953-4.288,4.271
							C1424.106,1338.423,1431.839,1348.988,1449.254,1354.976z"/>
						
							<linearGradient id="SVGID_00000143612473049146570630000000738136611291071144_" gradientUnits="userSpaceOnUse" x1="-683.7935" y1="1087.1855" x2="-766.1402" y2="878.0399" gradientTransform="matrix(-0.9999 0.0148 0.0148 0.9999 733.8099 388.1969)">
							<stop  offset="0" style="stop-color:#311944"/>
							<stop  offset="1" style="stop-color:#6B3976"/>
						</linearGradient>
						<path style="fill:url(#SVGID_00000143612473049146570630000000738136611291071144_);" d="M1450.228,1294.979
							c1.583,1.153-3.152,7.064-3.416,15.358c-0.518,16.098,15.984,35.234,32.617,36.687c9.835,0.859,12.469-5.092,28.69-6.988
							c10.042-1.173,18.426,0.013,23.704,1.105c5.299,17.592,0.692,35.24-11.014,43.535c-12.602,8.93-28.885,3.778-35.691,1.623
							c-4.554-1.441-19.146-6.029-26.893-19.278c-8.072-13.807-0.394-22.268-9.582-31.565c-4.634-4.69-10.675-6.676-16.636-15.788
							c-1.619-2.476-2.705-4.669-3.371-6.145C1436.937,1304.528,1447.936,1293.308,1450.228,1294.979z"/>
					</g>
				</g>
				
					<linearGradient id="SVGID_00000127004432720807710590000011488890225717160865_" gradientUnits="userSpaceOnUse" x1="1281.3317" y1="1848.4607" x2="1328.1479" y2="1448.3962">
					<stop  offset="0" style="stop-color:#FF9085"/>
					<stop  offset="1" style="stop-color:#FB6FBB"/>
				</linearGradient>
				<path style="fill:url(#SVGID_00000127004432720807710590000011488890225717160865_);" d="M1317.033,1475.549
					c-17.22-26.119-51.483-51.75-82.993-49.476c-92.022,6.641-205.455,254.533-127.68,352.717
					c59.371,74.949,242.78,78.587,410.172-51.072c0-14.364,0-28.729,0-43.092c-82.37,14.406-150.656,23.973-201.096,30.324
					c-31.457,3.962-62.795,7.533-68.627-4.788c-8.826-18.644,54.181-45.31,78.204-114.912
					C1328.324,1585.656,1349.388,1524.625,1317.033,1475.549z"/>
			</g>
			<g>
				
					<linearGradient id="SVGID_00000026867612358328964170000017314889536425424807_" gradientUnits="userSpaceOnUse" x1="2183.0945" y1="2638.7791" x2="2201.6965" y2="2973.6179">
					<stop  offset="0" style="stop-color:#444B8C"/>
					<stop  offset="0.9964" style="stop-color:#26264F"/>
				</linearGradient>
				<path style="fill:url(#SVGID_00000026867612358328964170000017314889536425424807_);" d="M2229.691,2757.842
					c0,0,2.326,18.51,0.764,24.711c-1.563,6.202-55.377,10.682-73.644,8.526c-18.266-2.155,10.882-20.814,22.52-24.315
					C2190.968,2763.261,2229.691,2757.842,2229.691,2757.842z"/>
				
					<linearGradient id="SVGID_00000029008182155671064040000002274870387897445522_" gradientUnits="userSpaceOnUse" x1="2218.2258" y1="2803.7925" x2="2208.344" y2="2351.7161">
					<stop  offset="0" style="stop-color:#FFC444"/>
					<stop  offset="0.9964" style="stop-color:#F36F56"/>
				</linearGradient>
				<path style="fill:url(#SVGID_00000029008182155671064040000002274870387897445522_);" d="M2202.601,2726.966l5.672,37.135
					c0,0,14.465,6.5,21.418,0.076l0.764-38.871L2202.601,2726.966z"/>
				
					<linearGradient id="SVGID_00000147222303168713412010000000654607261186974628_" gradientUnits="userSpaceOnUse" x1="2519.7739" y1="2620.0833" x2="2538.3748" y2="2954.9011">
					<stop  offset="0" style="stop-color:#444B8C"/>
					<stop  offset="0.9964" style="stop-color:#26264F"/>
				</linearGradient>
				<path style="fill:url(#SVGID_00000147222303168713412010000000654607261186974628_);" d="M2505.972,2725.307
					c0,0-11.42,8.474-8.375,18.621c3.043,10.148,29.688,50.808,48.677,62.349c18.987,11.54,13.035-12.502,7.51-27.478
					c-5.526-14.976-19.646-47.962-25.157-53.492C2523.116,2719.78,2505.972,2725.307,2505.972,2725.307z"/>
				
					<linearGradient id="SVGID_00000057148910951599053730000002727905916811483048_" gradientUnits="userSpaceOnUse" x1="2514.6455" y1="2797.3123" x2="2504.7639" y2="2345.2434">
					<stop  offset="0" style="stop-color:#FFC444"/>
					<stop  offset="0.9964" style="stop-color:#F36F56"/>
				</linearGradient>
				<path style="fill:url(#SVGID_00000057148910951599053730000002727905916811483048_);" d="M2485.432,2684.511
					c5.52,15.386,10.83,28.034,14.983,37.365c9.187,20.642,14.208,28.388,19.896,35.103c4.96,5.848,16.701,18.328,19.856,16.25
					c3.206-2.106-5.385-17.279-21.94-61.718c-2.406-6.448-10-26.999-10-26.999l0,0H2485.432z"/>
				
					<linearGradient id="SVGID_00000164501395489462516040000007708033204208326589_" gradientUnits="userSpaceOnUse" x1="2074.6968" y1="2509.9663" x2="2262.4438" y2="2257.9897">
					<stop  offset="0" style="stop-color:#AA80F9"/>
					<stop  offset="0.9964" style="stop-color:#6165D7"/>
				</linearGradient>
				<path style="fill:url(#SVGID_00000164501395489462516040000007708033204208326589_);" d="M2089.902,2041.611
					c-3.938,38.673-7.717,98.697-2.067,171.545c7.364,94.912,26.342,154.972,50.141,256.172
					c14.546,61.845,34.146,152.87,51.882,266.71c4.115,2.355,16.222,8.549,31.811,6.237c8.727-1.297,15.255-4.765,19.109-7.26
					c46.536-142.197,32.791-230.316,10.334-285.217c-9.571-23.402-21.178-41.864-27.382-77.837
					c-8.209-47.594,1.941-74.199,16.415-184.443c10.316-78.576,8.531-90.723,1.666-102.506
					C2214.373,2037.898,2130.447,2038.82,2089.902,2041.611z"/>
				
					<linearGradient id="SVGID_00000124124422226324309140000003482777154046782143_" gradientUnits="userSpaceOnUse" x1="1323.6843" y1="1671.5941" x2="1391.8527" y2="2088.4709" gradientTransform="matrix(0.981 -0.194 0.194 0.981 124.1931 236.6994)">
					<stop  offset="0" style="stop-color:#FFC444"/>
					<stop  offset="0.9964" style="stop-color:#F36F56"/>
				</linearGradient>
				<path style="fill:url(#SVGID_00000124124422226324309140000003482777154046782143_);" d="M1800.502,1643.704
					c0,0-6.532-25.616-17.401-32.379c-10.869-6.761-26.232-13.99-29.752-16.96c-3.52-2.971-7.631,5.909,2.513,12.703
					c10.141,6.794,10.141,6.794,10.141,6.794c0.213,1.874-0.072,3.331-0.415,4.358c-1.607,4.81-7.088,8.107-13.863,8.731
					c-26.026,5.45-36.194,5.717-40.163,4.555c-0.589-0.172-2.853-0.907-3.809,0.099c-1.531,1.613,1.222,6.725,2.397,8.517
					c7.041,10.755,31.484,15.432,49.784,7.021c6.685-3.07,9.243-6.369,14.121-5.541c7.746,1.314,12.504,11.533,15.318,19.992
					L1800.502,1643.704z"/>
				
					<linearGradient id="SVGID_00000039823128856247655880000009350182657433107387_" gradientUnits="userSpaceOnUse" x1="2214.1646" y1="2541.2373" x2="2653.8875" y2="2131.1589">
					<stop  offset="0" style="stop-color:#AA80F9"/>
					<stop  offset="0.9964" style="stop-color:#6165D7"/>
				</linearGradient>
				<path style="fill:url(#SVGID_00000039823128856247655880000009350182657433107387_);" d="M2250.078,2058.149
					c28.507,147.22,56.487,224.544,77.661,268.279c5.221,10.785,22.643,45.583,39.112,95.471
					c14.581,44.158,20.656,76.642,23.769,90.94c9.829,45.127,34.118,111.019,99.479,197.441c0.815,0.48,11.96,6.783,22.614,1.164
					c5.392-2.846,8.079-7.381,9.148-9.495c-8.546-82.627-18.354-152.06-26.867-205.646c-1.789-11.239-9.655-60.412-21.993-125.377
					c-4.828-25.425-11.903-62.675-20.378-100.937c-10.551-47.647-26.732-112.469-51.67-190.141
					C2350.662,2072.613,2300.369,2065.383,2250.078,2058.149z"/>
				
					<linearGradient id="SVGID_00000015354192484109284520000017261225484081200570_" gradientUnits="userSpaceOnUse" x1="1779.5106" y1="1611.16" x2="2132.2109" y2="1611.16">
					<stop  offset="0.0036" style="stop-color:#E38DDD"/>
					<stop  offset="1" style="stop-color:#9571F6"/>
				</linearGradient>
				<path style="fill:url(#SVGID_00000015354192484109284520000017261225484081200570_);" d="M1779.511,1651.827
					c7.41-6.588,14.822-13.175,22.233-19.762c2.712,2.741,42.274,41.346,97.578,29.644c38.079-8.058,60.043-39.33,74.111-59.289
					c42.257-59.953,16.984-103.943,62.483-144.681c12.635-11.312,37.419-25.01,53.623-20.833
					c38.609,9.952,60.836,126.063,23.47,217.391c-7.542,18.433-49.074,119.933-143.282,130.929
					C1893.661,1794.104,1813.002,1740.51,1779.511,1651.827z"/>
				
					<linearGradient id="SVGID_00000169530408824314455710000001415816437264943031_" gradientUnits="userSpaceOnUse" x1="2521.3716" y1="1807.0709" x2="2391.1643" y2="1622.6107">
					<stop  offset="0" style="stop-color:#444B8C"/>
					<stop  offset="0.9964" style="stop-color:#26264F"/>
				</linearGradient>
				<path style="fill:url(#SVGID_00000169530408824314455710000001415816437264943031_);" d="M2225.793,1475.829
					c-16.167-14.944-47.097-32.172-62.611-72.221c-4.67-12.054-21.214-54.766,3.191-87.438
					c14.484-19.396,41.389-32.566,65.104-27.903c20.265,3.984,23.433,18.098,57.868,46.505
					c13.405,11.055,34.949,28.827,58.927,38.707c41.082,16.931,65.763,1,107.005,2.817c50.668,2.234,109.528,30.511,137.885,71.631
					c50.334,72.981-22.579,147.016,32.552,232.514c18.065,28.01,26.968,21.731,69.753,75.954
					c42.843,54.295,64.264,81.44,60.454,114.707c-5.29,46.17-55.02,90.273-101.85,93.27c-45.744,2.932-74.824-33.059-98.113-17.316
					c-16.577,11.201-7.099,32.993-24.703,59.18c-22.693,33.765-67.299,40.492-74.503,41.575
					c-66.865,10.087-157.02-68.319-195.311-161.21C2192.398,1719.096,2313.687,1557.075,2225.793,1475.829z"/>
				
					<linearGradient id="SVGID_00000182518465167907945840000009193183994646537626_" gradientUnits="userSpaceOnUse" x1="2098.646" y1="2527.8108" x2="2286.3926" y2="2275.8347">
					<stop  offset="0" style="stop-color:#AA80F9"/>
					<stop  offset="0.9964" style="stop-color:#6165D7"/>
				</linearGradient>
				<path style="opacity:0.3;fill:url(#SVGID_00000182518465167907945840000009193183994646537626_);" d="M2251.112,2449.799
					c-9.571-23.403-21.178-41.866-27.382-77.837c-8.209-47.594,1.941-74.199,16.415-184.443
					c10.316-78.576,8.531-90.723,1.666-102.506c-14.911-25.603-46.511-36.964-78.758-41.604c0.43,1.653,0.865,3.31,1.216,4.91
					c16.92,77.272-47.655,124.42-18.527,209.361c14.359,41.879,37.273,51.471,42.612,100.05
					c5.002,45.506-13.138,54.986-9.263,96.345c5.791,61.826,49.712,76.789,61.141,124.135c7.426,30.766,1.172,75.751-53.066,140.866
					c0.902,5.61,1.801,11.238,2.693,16.963c4.117,2.355,16.222,8.549,31.811,6.237c8.727-1.297,15.255-4.765,19.109-7.26
					C2287.313,2592.819,2273.569,2504.7,2251.112,2449.799z"/>
				
					<linearGradient id="SVGID_00000121958176856758585020000009563522099991330721_" gradientUnits="userSpaceOnUse" x1="1779.5106" y1="1654.5402" x2="2132.2095" y2="1654.5402">
					<stop  offset="0" style="stop-color:#AA80F9"/>
					<stop  offset="0.9964" style="stop-color:#6165D7"/>
				</linearGradient>
				<path style="opacity:0.15;fill:url(#SVGID_00000121958176856758585020000009563522099991330721_);" d="M2080.894,1548.072
					c-69.628,54.995-61.878,160.474-104.682,165.822c-13.074,1.634-12.355-8.389-43.54-18.527
					c-45.61-14.829-67.038,0.15-99.123-11.117c-13.287-4.666-30.573-14.633-47.596-38.15c-2.148,1.91-4.296,3.818-6.443,5.727
					c33.491,88.683,114.151,142.278,190.216,133.399c94.208-10.996,135.74-112.495,143.282-130.929
					c17.532-42.853,21.945-91.161,17.699-131.398C2114.636,1527.588,2097.178,1535.21,2080.894,1548.072z"/>
				
					<linearGradient id="SVGID_00000118398736948343011650000008807567303188177577_" gradientUnits="userSpaceOnUse" x1="2021.8887" y1="1825.6537" x2="2726.5625" y2="1825.6537">
					<stop  offset="0.0036" style="stop-color:#E38DDD"/>
					<stop  offset="1" style="stop-color:#9571F6"/>
				</linearGradient>
				<path style="fill:url(#SVGID_00000118398736948343011650000008807567303188177577_);" d="M2030.384,1464.697
					c4.267-6.627,17.832-24.991,75.399-38.526c28.852-6.782,82.194-18.403,150.838-3.858
					c94.279,19.976,152.996,76.547,175.095,100.326c-18.097,11.783-68.036,47.738-92.768,115.949
					c-7.696,21.222-30.429,93.774,2.084,161.729c18.732,39.158,51.871,68.555,77.039,90.887
					c37.751,33.488,57.302,38.636,69.957,68.64c13.782,32.672-0.106,48.603,17.01,70.971c18.382,24.02,39.918,12.854,71.074,37.147
					c31.917,24.879,20.559,45.358,49.604,72.855c42.203,39.95,98.152,26.975,100.756,44.952
					c2.241,15.464-37.522,36.445-71.305,44.953c-66.901,16.851-125.255-11.432-142.608-20.152
					c-48.043-24.135-39.744-39.758-76.373-58.159c-61.333-30.81-103.249,3.475-242.944,7.005
					c-75.651,1.915-113.902,2.345-134.858-23.25c-19.139-23.379-9.078-49.023,2.407-159.539c0,0,0-0.004,0.001-0.013
					c3.69-36.909,11.419-114.186,11.465-158.224c0.028-26.026-8.997-68.548-27.05-153.595
					c-1.066-5.016-10.834-50.963-18.727-112.342C2019.371,1497.184,2020.401,1480.212,2030.384,1464.697z"/>
				<g style="opacity:0.15;">
					
						<linearGradient id="SVGID_00000134958346354091974210000009392271764575095941_" gradientUnits="userSpaceOnUse" x1="2380.8547" y1="1416.3339" x2="2488.3274" y2="2073.5723">
						<stop  offset="0" style="stop-color:#AA80F9"/>
						<stop  offset="0.9964" style="stop-color:#6165D7"/>
					</linearGradient>
					<path style="fill:url(#SVGID_00000134958346354091974210000009392271764575095941_);" d="M2625.716,2140.818
						c-29.045-27.497-17.687-47.976-49.604-72.855c-31.156-24.293-52.693-13.127-71.074-37.147
						c-17.115-22.368-3.228-38.299-17.01-70.971c-12.656-30.004-32.206-35.15-69.957-68.641
						c-25.168-22.331-58.307-51.728-77.039-90.886c-32.513-67.955-9.78-140.507-2.084-161.729
						c24.731-68.211,74.671-104.166,92.768-115.949c-1.742-1.878-3.797-4.015-5.995-6.267
						c-119.23,16.384-188.748,85.279-197.344,105.679c-19.874,47.155,11.588,64.481,12.4,200.482
						c0.387,65.007-6.624,90.674,14.467,117.808c24.123,31.031,51.922,21.428,86.804,62.002
						c26.803,31.171,22.511,50.935,47.538,64.069c26.91,14.12,44.051-2.337,74.404,4.136c50.708,10.813,61.549,69.281,95.072,101.27
						c25.35,24.189,72.218,41.101,164.653,22.948c2.137-3.112,3.17-6.151,2.757-8.998
						C2723.865,2167.793,2667.919,2180.768,2625.716,2140.818z"/>
				</g>
				
					<linearGradient id="SVGID_00000114059408708067198760000009572241509475695490_" gradientUnits="userSpaceOnUse" x1="2262.7964" y1="1622.8588" x2="2543.8735" y2="1622.8588">
					<stop  offset="0.0036" style="stop-color:#E38DDD"/>
					<stop  offset="1" style="stop-color:#9571F6"/>
				</linearGradient>
				<path style="fill:url(#SVGID_00000114059408708067198760000009572241509475695490_);" d="M2264.544,1658.737
					c-12.674,26.916,45.567,89.604,110.3,119.369c13.188,6.068,107.903,49.616,150.115,7.74
					c34.881-34.606,12.369-106.159,4.333-131.704c-39.464-125.437-160.659-189.245-211.45-212.259
					c-37.906,94.779-15.582,137.013-6.795,150.2c9.179,13.775,34.797,42.712,62.003,68.205
					c19.139,17.929,31.057,26.655,29.453,29.451c-1.995,3.481-24.427-3.093-111.558-45.504
					C2280.844,1645.872,2268.875,1649.547,2264.544,1658.737z"/>
				
					<linearGradient id="SVGID_00000047758878877404070830000013456573308218810025_" gradientUnits="userSpaceOnUse" x1="2202.2166" y1="1439.8727" x2="2317.0879" y2="1273.1239">
					<stop  offset="0" style="stop-color:#FFC444"/>
					<stop  offset="0.9964" style="stop-color:#F36F56"/>
				</linearGradient>
				<path style="fill:url(#SVGID_00000047758878877404070830000013456573308218810025_);" d="M2217.922,1348.612
					c0,0,6.013,48.07,23.755,59.084c17.744,11.008,46.426,25.395,49.585,29.301c3.158,3.9-109.911,16.058-165.945-12.219l0,0
					c18.467-3.851,23.487-5.268,23.487-5.268c5.012-1.417,14.361-4.051,23.733-9.392c6.378-3.632,16.661-10.73,26.092-24.13
					l-0.206-26.616L2217.922,1348.612z"/>
				
					<linearGradient id="SVGID_00000066474011253496020500000011302136905724368037_" gradientUnits="userSpaceOnUse" x1="2191.8044" y1="1355.2942" x2="2373.3772" y2="1245.9797">
					<stop  offset="0" style="stop-color:#FFC444"/>
					<stop  offset="0.9964" style="stop-color:#F36F56"/>
				</linearGradient>
				<path style="fill:url(#SVGID_00000066474011253496020500000011302136905724368037_);" d="M2220.62,1365.637
					c0,0-11.568,15.878-29.709,9.261c-16.244-5.924-6.549-47.878,6.335-52.664c4.297-1.596,12.19-0.89,17.465,2.401
					c3.711,2.314,13.618,14.623,7.938,28.416c4.104-1.188,7.716-0.11,8.62,1.923c1.149,2.578-2.327,6.088-3.113,6.883
					C2225.429,1364.615,2222.137,1365.385,2220.62,1365.637z"/>
				
					<linearGradient id="SVGID_00000029736471053693784250000016430488260584271269_" gradientUnits="userSpaceOnUse" x1="2241.2583" y1="1608.1495" x2="2322.1335" y2="2102.7344">
					<stop  offset="0" style="stop-color:#FFC444"/>
					<stop  offset="0.9964" style="stop-color:#F36F56"/>
				</linearGradient>
				<path style="fill:url(#SVGID_00000029736471053693784250000016430488260584271269_);" d="M2286.551,1652.443
					c0,0-53.113-54.347-74.729-62.375c-21.615-8.029-8.646,3.706,0,10.499c8.646,6.793,14.408,9.026,9.983,19.335
					c-4.425,10.31-12.461,19.46,0.204,27.545c12.663,8.085,17.605,11.173,27.487,12.407c9.881,1.236,9.881,1.236,9.881,1.236
					l12.97,6.915C2272.347,1668.006,2289.021,1666.031,2286.551,1652.443z"/>
			</g>
			<g>
				<path style="fill:#B7C0CE;" d="M2099.035,2952.154c-2.092,0-3.859-1.595-4.054-3.701l-73.883-798.453
					c-0.207-2.241,1.441-4.226,3.682-4.434c2.233-0.186,4.228,1.442,4.435,3.684l65.748,710.537v-727.833
					c0-2.251,1.825-4.076,4.076-4.076c2.251,0,4.076,1.825,4.076,4.076v816.124c0,2.179-1.712,3.972-3.889,4.072
					C2099.163,2952.154,2099.099,2952.154,2099.035,2952.154z"/>
				<g>
					<polygon style="opacity:0.81;fill:#F4F7FA;" points="2922.896,2219.295 2112.368,2130.49 555.203,2201.269 1370.746,2298.926 
											"/>
					<polygon style="fill:#B7C0CE;" points="1370.746,2298.927 2922.896,2219.294 2922.896,2257.757 1370.746,2337.39 
						555.203,2239.731 555.203,2201.268 					"/>
				</g>
				<path style="fill:#B7C0CE;" d="M1376.256,3230.635c-0.054,0-0.108-0.001-0.161-0.003c-2.187-0.086-3.917-1.884-3.917-4.073
					v-898.525c0-2.25,1.825-4.076,4.076-4.076c2.251,0,4.076,1.826,4.076,4.076v794.109l62.12-794.426
					c0.177-2.244,2.12-3.918,4.383-3.747c2.243,0.176,3.921,2.138,3.746,4.382l-70.26,898.524
					C1380.151,3229.005,1378.373,3230.635,1376.256,3230.635z"/>
				<path style="fill:#B7C0CE;" d="M564.11,3071.016c-0.054,0-0.107-0.001-0.161-0.002c-2.187-0.086-3.917-1.884-3.917-4.073
					V2237.61c0-2.251,1.825-4.076,4.076-4.076c2.251,0,4.076,1.825,4.076,4.076v725.343l56.977-725.663
					c0.177-2.244,2.175-3.925,4.383-3.744c2.245,0.176,3.921,2.138,3.746,4.383l-65.117,829.331
					C568.005,3069.387,566.228,3071.016,564.11,3071.016z"/>
				<path style="fill:#B7C0CE;" d="M2915.215,3071.016c-2.11,0-3.883-1.616-4.06-3.738l-69.143-829.331
					c-0.187-2.243,1.481-4.213,3.723-4.4c2.251-0.182,4.214,1.48,4.401,3.723l61.005,731.717v-711.231
					c0-2.251,1.825-4.076,4.076-4.076c2.251,0,4.076,1.825,4.076,4.076v809.183c0,2.185-1.723,3.982-3.907,4.072
					C2915.329,3071.015,2915.271,3071.016,2915.215,3071.016z"/>
			</g>
			<g>
				
					<linearGradient id="SVGID_00000117645358036218076980000008624643439595394466_" gradientUnits="userSpaceOnUse" x1="2115.8899" y1="3154.4895" x2="2163.1121" y2="3196.4937" gradientTransform="matrix(-0.9902 -0.14 -0.14 0.9902 3687.3257 206.9384)">
					<stop  offset="0" style="stop-color:#444B8C"/>
					<stop  offset="0.9964" style="stop-color:#26264F"/>
				</linearGradient>
				<path style="fill:url(#SVGID_00000117645358036218076980000008624643439595394466_);" d="M1137.265,3055.654
					c-1.343-7.403-25.251-14.104-37.088-4.188c-5.879,4.923-9.926,14.903-6.525,19.411c1.237,1.639-3.831,4.524,1.025,4.58
					C1110.782,3075.646,1138.602,3063.011,1137.265,3055.654z"/>
				
					<linearGradient id="SVGID_00000134215707708226750860000001364193850590496956_" gradientUnits="userSpaceOnUse" x1="1886.97" y1="3508.1509" x2="1886.97" y2="3425.8848" gradientTransform="matrix(-0.9988 0.0498 0.0498 0.9988 2810.8794 -528.7908)">
					<stop  offset="0" style="stop-color:#FFC444"/>
					<stop  offset="0.9964" style="stop-color:#F36F56"/>
				</linearGradient>
				<path style="fill:url(#SVGID_00000134215707708226750860000001364193850590496956_);" d="M1111.122,3055.694l-24.801,1.236
					c8.592-15.621-1.738-58.109-1.738-58.109l26.781,0.786c0,0-0.659,12.335-2.292,30.658
					C1108.512,3036.538,1109.543,3045.987,1111.122,3055.694z"/>
				
					<linearGradient id="SVGID_00000106830288757662034780000000324577965963982000_" gradientUnits="userSpaceOnUse" x1="2120.6377" y1="3149.1538" x2="2167.8594" y2="3191.1577" gradientTransform="matrix(-0.9902 -0.14 -0.14 0.9902 3687.3257 206.9384)">
					<stop  offset="0" style="stop-color:#444B8C"/>
					<stop  offset="0.9964" style="stop-color:#26264F"/>
				</linearGradient>
				<path style="fill:url(#SVGID_00000106830288757662034780000000324577965963982000_);" d="M1114.388,3055.32
					c0,0-29.601-6.821-32.802-0.949c-3.203,5.873-5.689,21.594,13.092,21.087C1113.458,3074.951,1116.056,3060.299,1114.388,3055.32
					z"/>
				
					<linearGradient id="SVGID_00000148656334974468457980000012983015018698046645_" gradientUnits="userSpaceOnUse" x1="2286.0647" y1="3062.7925" x2="2333.2891" y2="3104.7986" gradientTransform="matrix(-1 0 0 1 3584.4829 0)">
					<stop  offset="0" style="stop-color:#444B8C"/>
					<stop  offset="0.9964" style="stop-color:#26264F"/>
				</linearGradient>
				<path style="fill:url(#SVGID_00000148656334974468457980000012983015018698046645_);" d="M1288.263,3085.807
					c-2.367-7.141-26.977-10.43-37.311,1.044c-5.13,5.697-7.742,16.146-3.743,20.132c1.455,1.452-3.158,5.017,1.656,4.393
					C1264.838,3109.308,1290.615,3092.903,1288.263,3085.807z"/>
				
					<linearGradient id="SVGID_00000117670249704105004790000003153708311285440443_" gradientUnits="userSpaceOnUse" x1="2116.9814" y1="3344.2627" x2="2116.9814" y2="3261.9946" gradientTransform="matrix(-0.9813 0.1926 0.1926 0.9813 2684.261 -582.0115)">
					<stop  offset="0" style="stop-color:#FFC444"/>
					<stop  offset="0.9964" style="stop-color:#F36F56"/>
				</linearGradient>
				<path style="fill:url(#SVGID_00000117670249704105004790000003153708311285440443_);" d="M1259.18,3092.686l-24.366,4.781
					c6.261-16.692-10.058-57.258-10.058-57.258l26.616-3.064c0,0,1.117,12.302,2.13,30.67
					C1253.851,3074.102,1256.225,3083.307,1259.18,3092.686z"/>
				
					<linearGradient id="SVGID_00000044870641223321736270000013398061996867595160_" gradientUnits="userSpaceOnUse" x1="2290.8125" y1="3057.4568" x2="2338.0361" y2="3099.4622" gradientTransform="matrix(-1 0 0 1 3584.4829 0)">
					<stop  offset="0" style="stop-color:#444B8C"/>
					<stop  offset="0.9964" style="stop-color:#26264F"/>
				</linearGradient>
				<path style="fill:url(#SVGID_00000044870641223321736270000013398061996867595160_);" d="M1265.563,3088.677
					c0,0-30.265-2.609-32.613,3.654c-2.348,6.261-2.61,22.176,15.915,19.045C1267.39,3108.246,1267.912,3093.374,1265.563,3088.677z
					"/>
				<g>
					<path style="fill:#26264F;" d="M1136.095,2347.074l104.571-244.955c5.224-12.239-1.791-26.239-14.722-29.379l-191.551-46.52
						c-10.353-2.514-20.987,2.92-25.017,12.782l-96.182,235.433c-4.79,11.724,1.524,25.029,13.634,28.735l183.162,56.042
						C1120.515,2362.431,1131.774,2357.196,1136.095,2347.074z"/>
					
						<linearGradient id="SVGID_00000017495796551745552260000008927189122422988963_" gradientUnits="userSpaceOnUse" x1="-92.7136" y1="2199.4033" x2="-185.5817" y2="2016.1766" gradientTransform="matrix(-1 0 0 1 975.4035 0)">
						<stop  offset="0" style="stop-color:#FF9085"/>
						<stop  offset="1" style="stop-color:#FB6FBB"/>
					</linearGradient>
					<path style="fill:url(#SVGID_00000017495796551745552260000008927189122422988963_);" d="M1131.362,2335.293l97.678-228.806
						c4.879-11.431-1.674-24.509-13.752-27.443l-178.923-43.453c-9.669-2.348-19.603,2.727-23.366,11.939l-89.842,219.911
						c-4.474,10.951,1.423,23.379,12.735,26.841l171.087,52.347C1116.809,2349.637,1127.326,2344.748,1131.362,2335.293z"/>
				</g>
				
					<linearGradient id="SVGID_00000041260709209937782790000001652124748629793168_" gradientUnits="userSpaceOnUse" x1="-213.3224" y1="2179.8401" x2="-242.1869" y2="2311.6125" gradientTransform="matrix(-1 0 0 1 975.4035 0)">
					<stop  offset="0" style="stop-color:#FFC444"/>
					<stop  offset="0.9964" style="stop-color:#F36F56"/>
				</linearGradient>
				<path style="fill:url(#SVGID_00000041260709209937782790000001652124748629793168_);" d="M1191.664,2268.031l3.137-28.864
					l16.631-31.704c2.265-4.318,3.448-9.12,3.448-13.996v-31.482l-20.079,46.434c0,0-13.178-11.922-18.197-14.432
					c-5.02-2.51-4.392,7.53-0.628,11.295c3.765,3.764-1.882,34.511,1.882,37.649l-1.255,18.825L1191.664,2268.031z"/>
				
					<linearGradient id="SVGID_00000178891756041736434980000009955064357365015998_" gradientUnits="userSpaceOnUse" x1="47.4961" y1="2168.5039" x2="381.3194" y2="2487.2671" gradientTransform="matrix(-1 0 0 1 975.4035 0)">
					<stop  offset="0.0036" style="stop-color:#E38DDD"/>
					<stop  offset="1" style="stop-color:#9571F6"/>
				</linearGradient>
				<path style="fill:url(#SVGID_00000178891756041736434980000009955064357365015998_);" d="M1032.281,2084.177
					c-15.615-38.185-49.133-60.145-66.514-71.534c-41.124-26.945-67.452-22.026-161.892-36.394
					c-125.861-19.15-140.926-37.295-183.226-22.589c-55.566,19.317-84.589,69.755-97.889,92.868
					c-67.051,116.525,11.342,175.751-8.785,407.867c-8.22,94.797-29.295,177.177,21.335,225.895
					c10.66,10.259,22.585,15.624,46.434,26.355c94.583,42.557,179.384,35.221,230.915,30.119
					c56.704-5.614,85.363-8.83,100.398-28.865c24.017-32.002-0.706-72.675-5.02-143.068c-3.097-50.537,8.393-90.584,31.375-170.676
					C992.839,2207.957,1062.199,2157.334,1032.281,2084.177z"/>
				<g>
					<g>
						
							<linearGradient id="SVGID_00000119821281854625408610000002644072400861745341_" gradientUnits="userSpaceOnUse" x1="3484.7034" y1="1912.8816" x2="3692.9438" y2="2174.8745" gradientTransform="matrix(-0.9663 0.2576 0.2576 0.9663 3719.7444 -923.8408)">
							<stop  offset="0" style="stop-color:#FFC444"/>
							<stop  offset="0.9964" style="stop-color:#F36F56"/>
						</linearGradient>
						<path style="fill:url(#SVGID_00000119821281854625408610000002644072400861745341_);" d="M821.612,1907.563
							c5.73-20.414-4.288-39.319-6.496-43.392c-9.244-17.054-11.612-19.384-16.023-22.338l-6.131-3.782c0,0-0.356-0.142-0.729-0.276
							c-3.934-1.4-17.345-1.807-20.061-1.227c-8.679,1.854-17.919,37.209-15.283,87.195c-0.359,1.904-0.706,3.826-1.042,5.764
							c-1.367,7.893-2.453,15.631-3.292,23.196c-0.803,7.236-11.063,7.07-18.33,6.606c-29.491-1.882-43.924,0.628-45.179,5.02
							c-2.352,8.231,32.629,35.14,75.824,41.193c57.97,0.431,105.126-5.741,100.058-14.87c-2.25-4.052-47.166-15.789-59.798-27.421
							c-11.566-10.653-10.624-21.649-11.575-29.521C797.06,1931.887,817.394,1922.602,821.612,1907.563z"/>
						<path style="fill:#26264F;" d="M810.949,1823.851c-0.052,15.486-7.348,32.024-11.065,34.682
							c-0.48,0.343-3.181,2.478-5.609,6.127c-0.331,0.496-0.623,1.077-0.883,1.83c-3.392,9.759,12.124,21.242,9.13,25.613
							c-2.173,3.169-12.718-1.07-13.972,1.668c-1.182,2.575,7.583,7.91,6.241,10.995c-1.013,2.33-6.406,0.198-9.808,3.767
							c-1.695,1.778-1.197,3.186-2.993,8.619c-1.016,3.072-2.437,6.434-3.538,8.304c-5.352,9.092-20.51,12.414-23.427,8.775
							c-0.811-1.014-0.114-1.866-0.944-5.269c0,0-0.768-3.154-2.963-6.8c-3.135-5.211-10.704-8.936-18.341-14.436
							c-14.143-10.184-17.987-18.865-19.14-21.798c-0.41-1.045-0.665-1.834-0.849-2.402c-3.678-11.414-3.694-28.18,1.437-38.49
							c8.596-17.272,27.988-9.072,43.86-26.186c18.313-19.744,7.406-46.733,17.344-49.713
							C786.381,1765.849,811.043,1795.218,810.949,1823.851z"/>
						
							<linearGradient id="SVGID_00000052820439641225355180000002863854076117007512_" gradientUnits="userSpaceOnUse" x1="3494.6707" y1="1899.6951" x2="3727.1716" y2="2192.2107" gradientTransform="matrix(-0.9663 0.2576 0.2576 0.9663 3719.7444 -923.8408)">
							<stop  offset="0" style="stop-color:#FFC444"/>
							<stop  offset="0.9964" style="stop-color:#F36F56"/>
						</linearGradient>
						<path style="fill:url(#SVGID_00000052820439641225355180000002863854076117007512_);" d="M796.955,1888.463
							c-3.796-5.216-10.465-0.315-10.504,6.432c-0.039,6.747,6.499,13.763,12.841,12.43
							C805.636,1905.994,802.062,1895.482,796.955,1888.463z"/>
					</g>
					<path style="fill:#26264F;" d="M793.876,1877.174l8.805,11.454c0,0,9.492,14.033,15.034,6.346
						c4.527-6.282,5.701-6.142,5.978-5.879c0.052,0.05,0.067,0.125,0.079,0.122c0.079-0.021-0.664-3.127-1.332-5.857
						c2.344,3.365,5.574,8.823,7.531,16.167c1.901,7.134,3.937,14.771-0.087,22.108c-0.233,0.423-4.666,8.233-12.945,10.122
						c0,0-3.255,0.743-17.01-1.675c0,0,15.035-10.91,15.265-13.502c0.623-7.047-9.151-10.856-16.408-25.304
						C795.987,1885.705,794.608,1880.652,793.876,1877.174z"/>
				</g>
				
					<linearGradient id="SVGID_00000144322102176783615590000004649636049745555858_" gradientUnits="userSpaceOnUse" x1="-75.7409" y1="2297.5627" x2="258.083" y2="2616.3267" gradientTransform="matrix(-1 0 0 1 975.4035 0)">
					<stop  offset="0.0036" style="stop-color:#E38DDD"/>
					<stop  offset="1" style="stop-color:#9571F6"/>
				</linearGradient>
				<path style="opacity:0.3;fill:url(#SVGID_00000144322102176783615590000004649636049745555858_);" d="M763.717,2670.251
					c16.682-33.216-24.196-77.37,2.51-128.008c22.681-43.008,63.884-33.372,82.828-72.788
					c22.882-47.609-26.881-83.19-25.099-155.618c2.13-86.584,76.632-173.257,120.477-165.656
					c28.368,4.917,32.012,47.239,51.972,93.571c-17.662,38.729-38.296,87.247-56.992,152.404
					c-22.981,80.093-34.472,120.139-31.375,170.676c4.314,70.393,29.037,111.065,5.02,143.068
					c-15.035,20.034-43.694,23.25-100.398,28.865c-51.531,5.103-136.332,12.438-230.915-30.119
					c-11.972-5.387-20.935-9.422-28.245-13.403C701.268,2715.435,750.485,2696.598,763.717,2670.251z"/>
				
					<linearGradient id="SVGID_00000100365902515209662350000011743425856197270149_" gradientUnits="userSpaceOnUse" x1="-25.8414" y1="2245.3062" x2="307.9822" y2="2564.0698" gradientTransform="matrix(-1 0 0 1 975.4035 0)">
					<stop  offset="0.0036" style="stop-color:#E38DDD"/>
					<stop  offset="1" style="stop-color:#9571F6"/>
				</linearGradient>
				<path style="fill:url(#SVGID_00000100365902515209662350000011743425856197270149_);" d="M1197.311,2262.383
					c-9.203-3.974-18.406-7.948-27.609-11.921c-15.554,15.907-35.393,31.377-52.082,26.354
					c-24.876-7.486-18.656-53.249-48.944-133.655c-34.318-91.103-73.255-114.519-92.868-122.988
					c-10.956-4.73-18.519-7.87-27.609-5.647c-41.831,10.226-55.662,119.233-43.925,200.796
					c6.613,45.955,19.58,136.063,93.496,178.834c10.5,6.076,68.298,39.521,125.498,13.177
					C1172.133,2384.829,1202.329,2327.087,1197.311,2262.383z"/>
				
					<linearGradient id="SVGID_00000127762196504352375360000009279966326428858259_" gradientUnits="userSpaceOnUse" x1="277.1773" y1="2544.6335" x2="3.5315" y2="2740.095" gradientTransform="matrix(-1 0 0 1 975.4035 0)">
					<stop  offset="0" style="stop-color:#444B8C"/>
					<stop  offset="0.9964" style="stop-color:#26264F"/>
				</linearGradient>
				<path style="fill:url(#SVGID_00000127762196504352375360000009279966326428858259_);" d="M1127.33,3002.218
					c-15.297,1.698-30.594,3.401-45.891,5.099c-20.66-22.9-51.503-62.832-67.987-118.975
					c-31.576-107.552,17.862-178.146-15.297-205.663c-38.229-31.725-113.742,53.988-280.444,78.188
					c-53.654,7.787-172.763,25.082-220.956-39.094c-19.537-26.017-30.759-69.867-15.297-107.078
					c27.721-66.71,119.026-58.698,419.817-117.277c115.87-22.567,134.177-29.957,161.705-16.816
					C1199.12,2545.594,1142.348,2913.085,1127.33,3002.218z"/>
				
					<linearGradient id="SVGID_00000016071841875272888390000014040700719594154640_" gradientUnits="userSpaceOnUse" x1="-313.0097" y1="2783.9771" x2="364.6581" y2="2783.9771" gradientTransform="matrix(-1 0 0 1 975.4035 0)">
					<stop  offset="0" style="stop-color:#444B8C"/>
					<stop  offset="0.9964" style="stop-color:#26264F"/>
				</linearGradient>
				<path style="fill:url(#SVGID_00000016071841875272888390000014040700719594154640_);" d="M1263.868,3045.483
					c-15.297,1.698-30.594,3.401-45.891,5.099c-20.66-22.901-51.504-62.831-67.987-118.975
					c-31.577-107.552,17.862-178.146-15.297-205.663c-38.229-31.724-113.742,53.988-280.445,78.188
					c-53.653,7.788-172.763,25.081-220.956-39.094c-19.538-26.018-30.759-69.868-15.297-107.079
					c27.72-66.71,119.026-58.698,419.817-117.277c115.87-22.567,134.177-29.957,161.704-16.816
					C1335.657,2588.859,1278.887,2956.35,1263.868,3045.483z"/>
			</g>
			<g>
				<ellipse style="fill:#B7C0CE;" cx="740.236" cy="3230.022" rx="253.69" ry="103.538"/>
				<path style="fill:#FFFFFF;" d="M486.546,3217.881c0,53.978,113.581,97.737,253.69,97.737
					c140.11,0,253.691-43.758,253.691-97.737c0-53.977-113.58-142.298-253.691-142.298
					C600.126,3075.582,486.546,3163.904,486.546,3217.881z"/>
				
					<linearGradient id="SVGID_00000113317910820417259030000018322710701699648147_" gradientUnits="userSpaceOnUse" x1="-401.3005" y1="3170.7119" x2="25.0313" y2="3170.7119" gradientTransform="matrix(-1 0 0 1 511.5771 0)">
					<stop  offset="0" style="stop-color:#AA80F9"/>
					<stop  offset="0.9964" style="stop-color:#6165D7"/>
				</linearGradient>
				<path style="opacity:0.3;fill:url(#SVGID_00000113317910820417259030000018322710701699648147_);" d="M486.546,3217.881
					c0-53.978,113.581-142.298,253.69-142.298c64.692,0,123.696,18.848,168.508,44.432c3.136,6.571,4.599,13.105,4.004,19.309
					c-2.91,30.369-52.441,49.04-80.874,55.198c-71.598,15.509-106.562-27.306-165.595-25.674
					c-36.498,1.008-87.075,19.344-147.064,96.995C498.45,3251.671,486.546,3235.316,486.546,3217.881z"/>
				<path style="fill:#FFFFFF;" d="M726.341,3124.61c10.136,2.523,19.594,2.423,28.491,0.162c8.07-2.049,13.61-9.515,13.61-17.844
					l-0.001-286.058H712.03v285.721C712.03,3115.175,718.011,3122.538,726.341,3124.61z"/>
				
					<linearGradient id="SVGID_00000005957331331920004800000015400015956404731026_" gradientUnits="userSpaceOnUse" x1="-256.865" y1="2973.678" x2="-200.4529" y2="2973.678" gradientTransform="matrix(-1 0 0 1 511.5771 0)">
					<stop  offset="0" style="stop-color:#AA80F9"/>
					<stop  offset="0.9964" style="stop-color:#6165D7"/>
				</linearGradient>
				<path style="opacity:0.65;fill:url(#SVGID_00000005957331331920004800000015400015956404731026_);" d="M726.341,3124.61
					c10.136,2.523,19.594,2.423,28.491,0.162c8.07-2.049,13.61-9.515,13.61-17.844l-0.001-286.058H712.03v285.721
					C712.03,3115.175,718.011,3122.538,726.341,3124.61z"/>
				<g>
					
						<linearGradient id="SVGID_00000105413942095941377020000009501569178920611714_" gradientUnits="userSpaceOnUse" x1="51.3812" y1="2913.6914" x2="-52.0452" y2="2778.9233" gradientTransform="matrix(-1 0 0 1 511.5771 0)">
						<stop  offset="0" style="stop-color:#311944"/>
						<stop  offset="1" style="stop-color:#893976"/>
					</linearGradient>
					<path style="fill:url(#SVGID_00000105413942095941377020000009501569178920611714_);" d="M1038.308,2700.48l-86.178-54.478
						c-3.585-20.351-44.207-233.246-209.124-300.101c-67.065-27.185-139.24-23.961-178.847-22.19
						c-79.068,3.531-135.467,6.05-162.592,43.766c-34.833,48.429,23.588,92.349,11.491,230.88
						c-4.933,56.492-17.478,81.583-1.853,119.007c18.718,44.831,62.126,69.68,95.876,83.668
						c40.345,23.428,110.59,56.813,203.37,64.944c156.28,13.696,272.951-53.343,313.073-78.993
						c17.842-5.625,31.247-20.461,35.04-38.779C1062.411,2729.63,1054.34,2710.615,1038.308,2700.48z"/>
				</g>
				<path style="opacity:0.26;fill:#FFFFFF;" d="M998.682,2739.273c-3.185-19.156-56.576-3.276-107.079-40.792
					c-75.493-56.079-36.311-151.072-101.98-242.202c-60.266-83.63-181.593-126.195-219.256-94.331
					c-50.135,42.415,72.567,201.037,0,303.389c-35.25,49.72-88.955,47.325-89.232,76.485
					c-0.439,46.08,133.225,99.207,260.049,96.881C877.527,2836.204,1003.738,2769.678,998.682,2739.273z"/>
			</g>
			<g>
				<g>
					<g>
						<path style="fill:#BFC8D6;" d="M2594.581,2234.664l-556.91-4.144v12.262c0,3.328,2.43,6.158,5.719,6.662l157.478,24.146
							c1.869,0.287,3.764,0.362,5.65,0.226l382.012-27.53c3.411-0.246,6.052-3.084,6.052-6.504V2234.664z"/>
						<g>
							<path style="fill:#BFC8D6;" d="M2392.48,2214.396l-349.05,22.432c-6.246,0.401-11.324-3.865-11.324-9.528v-226.915
								c0-5.663,5.078-10.255,11.324-10.255h349.05c5.146,0,9.307,4.151,9.307,9.271v205.126
								C2401.788,2209.647,2397.626,2214.066,2392.48,2214.396z"/>
							<path style="fill:#D8DEE8;" d="M2398.046,2214.396l-349.051,22.432c-6.246,0.401-11.324-3.865-11.324-9.528v-226.915
								c0-5.663,5.078-10.255,11.324-10.255h349.051c5.146,0,9.306,4.151,9.306,9.271v205.126
								C2407.352,2209.647,2403.192,2214.066,2398.046,2214.396z"/>
							<path style="fill:#EFF2F6;" d="M2387.173,2199.935l-325.104,19.485c-5.083,0.304-9.214-3.197-9.214-7.82v-198.664
								c0-4.624,4.131-8.387,9.214-8.406l325.104-1.224c4.245-0.016,7.678,3.385,7.678,7.597v180.948
								C2394.851,2196.061,2391.417,2199.68,2387.173,2199.935z"/>
							<path style="fill:#FFFFFF;" d="M2235.849,1996.337c0,2.108-1.797,3.823-4.016,3.829c-2.221,0.006-4.024-1.702-4.024-3.815
								c0-2.113,1.802-3.828,4.024-3.829C2234.052,1992.521,2235.849,1994.229,2235.849,1996.337z"/>
							<path style="opacity:0.48;fill:#FFFFFF;" d="M2315.363,2152.272c-27.047-13.175-48.313,3.519-68.837-12.952
								c-12.443-9.986-6.334-17.433-21.645-32.356c-16.957-16.528-27.999-10.973-45.04-25.848
								c-21.549-18.809-10.771-33.443-29.333-46.948c-22.518-16.383-46.802-1.219-68.237-16.931
								c-9.245-6.777-14.318-16.629-16.967-27.106h-20.973c-3.676,0-6.66,2.697-6.66,6.024v235.378c0,3.326,2.984,5.832,6.66,5.596
								l357.561-22.979c1.755-0.113,3.311-1.04,4.309-2.385c-26.174-0.864-42.255-8.808-52.534-17.02
								C2333.559,2178.678,2337.047,2162.835,2315.363,2152.272z"/>
						</g>
						<path style="fill:#FFFFFF;" d="M2411.958,2213.77l-374.287,23.611l163.196,25.022c1.869,0.287,3.764,0.363,5.65,0.226
							l388.064-27.965l-176.669-20.734C2415.937,2213.699,2413.943,2213.644,2411.958,2213.77z"/>
						<polygon style="opacity:0.47;fill:#D8DEE8;" points="2092.286,2237.584 2403.891,2217.634 2500.33,2228.861 
							2191.409,2250.187 						"/>
					</g>
				</g>
				
					<linearGradient id="SVGID_00000074428914142294288680000018086403417869727928_" gradientUnits="userSpaceOnUse" x1="3070.4351" y1="2835.5266" x2="3088.74" y2="3068.4988" gradientTransform="matrix(1 0 0 1 -626.2627 0)">
					<stop  offset="0.0036" style="stop-color:#26264F"/>
					<stop  offset="1" style="stop-color:#444B8C"/>
				</linearGradient>
				<path style="fill:url(#SVGID_00000074428914142294288680000018086403417869727928_);" d="M2482.851,2951.481
					c0,0-81.866,5.689-83.069,11.034c-1.204,5.347,55.568,26.009,75.403,26.78c19.837,0.771,36.154-5.092,34.358-13.492
					c-1.796-8.403-8.739-29.535-8.739-29.535L2482.851,2951.481z"/>
				
					<linearGradient id="SVGID_00000067915075618855384000000010596889678486436539_" gradientUnits="userSpaceOnUse" x1="2154.9583" y1="2671.2017" x2="2151.115" y2="2392.5466" gradientTransform="matrix(0.9853 0.171 -0.171 0.9853 820.6597 -36.2046)">
					<stop  offset="0" style="stop-color:#FFC444"/>
					<stop  offset="0.9964" style="stop-color:#F36F56"/>
				</linearGradient>
				<path style="fill:url(#SVGID_00000067915075618855384000000010596889678486436539_);" d="M2478.984,2915.107l-1.453,38.636
					c0,0,12.453,7.03,22.339,2.991l10.993-40.743L2478.984,2915.107z"/>
				
					<linearGradient id="SVGID_00000128444307692620586850000006177703429013304194_" gradientUnits="userSpaceOnUse" x1="2841.4824" y1="2819.9448" x2="2859.7876" y2="3052.9202" gradientTransform="matrix(1 0 0 1 -626.2627 0)">
					<stop  offset="0.0036" style="stop-color:#26264F"/>
					<stop  offset="1" style="stop-color:#444B8C"/>
				</linearGradient>
				<path style="fill:url(#SVGID_00000128444307692620586850000006177703429013304194_);" d="M2253.899,2935.901
					c0,0-81.867,5.689-83.07,11.034c-1.204,5.346,55.568,26.009,75.403,26.78c19.837,0.771,36.154-5.091,34.359-13.493
					c-1.796-8.403-8.74-29.535-8.74-29.535L2253.899,2935.901z"/>
				
					<linearGradient id="SVGID_00000164490345128474580620000005204626487978639013_" gradientUnits="userSpaceOnUse" x1="1926.7197" y1="2694.9998" x2="1922.8765" y2="2416.3506" gradientTransform="matrix(0.9853 0.171 -0.171 0.9853 820.6597 -36.2046)">
					<stop  offset="0" style="stop-color:#FFC444"/>
					<stop  offset="0.9964" style="stop-color:#F36F56"/>
				</linearGradient>
				<path style="fill:url(#SVGID_00000164490345128474580620000005204626487978639013_);" d="M2250.031,2899.527l-1.453,38.635
					c0,0,12.453,7.03,22.339,2.992l10.992-40.743L2250.031,2899.527z"/>
				
					<linearGradient id="SVGID_00000057830125858897156220000007594921702050584494_" gradientUnits="userSpaceOnUse" x1="2899.7615" y1="2340.8171" x2="2795.2322" y2="2496.3362">
					<stop  offset="0" style="stop-color:#893976"/>
					<stop  offset="1" style="stop-color:#311944"/>
				</linearGradient>
				<path style="fill:url(#SVGID_00000057830125858897156220000007594921702050584494_);" d="M2470.285,2920.567
					c15.297,1.698,30.594,3.401,45.891,5.099c20.66-22.9,51.504-62.831,67.987-118.974c31.78-108.244-14.244-186.248,15.297-205.663
					c41.814-27.477,132.438,130.716,277.901,126.653c59.683-1.668,137.585-30.897,167.527-94.555
					c4.521-9.611,26.722-59.918,5.099-107.079c-22.323-48.695-133.068-69.882-353.646-110.281
					c-94.683-17.339-142.493-25.988-161.705-16.816C2398.496,2463.944,2455.268,2831.435,2470.285,2920.567z"/>
				
					<linearGradient id="SVGID_00000170965011211778610840000018041175790891378091_" gradientUnits="userSpaceOnUse" x1="2236.7009" y1="2683.2451" x2="2986.8708" y2="2683.2451">
					<stop  offset="0" style="stop-color:#893976"/>
					<stop  offset="1" style="stop-color:#311944"/>
				</linearGradient>
				<path style="fill:url(#SVGID_00000170965011211778610840000018041175790891378091_);" d="M2236.724,2921.219
					c15.823,2.753,31.645,5.507,47.468,8.261c19.218-28.308,48.305-72.661,80.832-128.938
					c67.803-117.317,66.564-141.144,97.899-156.246c66.319-31.958,116.427,54.381,280.444,78.188
					c53.654,7.789,172.762,25.082,220.956-39.094c19.538-26.018,30.76-69.867,15.297-107.079
					c-27.721-66.71-119.026-58.698-419.816-117.277c-117.302-22.846-133.293-26.919-161.705-16.816
					C2239.414,2498.646,2236.323,2844.157,2236.724,2921.219z"/>
				
					<linearGradient id="SVGID_00000013162673681439306970000000876688407919039140_" gradientUnits="userSpaceOnUse" x1="2637.8389" y1="2120.2798" x2="2971.7427" y2="2439.1201">
					<stop  offset="0" style="stop-color:#FF9085"/>
					<stop  offset="1" style="stop-color:#FB6FBB"/>
				</linearGradient>
				<path style="fill:url(#SVGID_00000013162673681439306970000000876688407919039140_);" d="M2565.334,2002.53
					c15.615-38.187,49.133-60.147,66.514-71.535c8.699-5.702,16.735-9.974,24.895-13.305
					c62.943-25.699,125.786-23.931,136.997-23.09c27.184,2.037,94.325,7.061,144.07,50.163
					c24.078,20.864,43.324,49.989,71.386,214.158c39.136,228.956,7.372,205.488,38.242,298.291
					c16.335,49.108,41.783,105.45,14.867,141.432c-8.694,11.622-21.115,14.958-46.435,26.352
					c-94.583,42.56-179.385,35.225-230.915,30.121c-56.704-5.617-85.363-8.829-100.398-28.866
					c-24.017-32.003,0.706-72.676,5.02-143.065c3.097-50.537-8.394-90.587-31.375-170.677
					C2604.777,2126.31,2535.417,2075.684,2565.334,2002.53z"/>
				
					<linearGradient id="SVGID_00000104699365983078879990000011439084033082342808_" gradientUnits="userSpaceOnUse" x1="2238.5598" y1="2220.5151" x2="2230.948" y2="2255.2642">
					<stop  offset="0" style="stop-color:#FFC444"/>
					<stop  offset="0.9964" style="stop-color:#F36F56"/>
				</linearGradient>
				<path style="fill:url(#SVGID_00000104699365983078879990000011439084033082342808_);" d="M2298.832,2230.52l-60.436-11.623
					c-4.342-0.835-8.799-0.879-13.156-0.13l-52.278,8.99c0,0,33.992,13.673,62.888,9.386c28.894-4.287,60.459,11.969,60.459,11.969
					L2298.832,2230.52z"/>
				<g>
					<g>
						
							<linearGradient id="SVGID_00000126292795790567734020000008511613568662370702_" gradientUnits="userSpaceOnUse" x1="5931.2036" y1="1187.7631" x2="6139.4468" y2="1449.7595" gradientTransform="matrix(0.9663 0.2576 -0.2576 0.9663 -2744.3408 -923.8408)">
							<stop  offset="0" style="stop-color:#FFC444"/>
							<stop  offset="0.9964" style="stop-color:#F36F56"/>
						</linearGradient>
						<path style="fill:url(#SVGID_00000126292795790567734020000008511613568662370702_);" d="M2699.026,1852.273
							c-10.163-15.357,5.05-44.9,11.068-56.586c0.208-0.404,0.473-0.932,1.038-1.977c9.245-17.055,11.613-19.386,16.023-22.339
							l6.131-3.785c0,0,0.355-0.139,0.729-0.273c3.934-1.399,17.344-1.808,20.061-1.225c8.679,1.852,17.919,37.207,15.283,87.191
							c0.36,1.907,0.707,3.829,1.042,5.766c1.367,7.893,2.453,15.631,3.292,23.194c0.803,7.236,11.063,7.071,18.33,6.608
							c29.491-1.882,43.924,0.627,45.179,5.019c2.352,8.231-32.63,35.14-75.824,41.19c-57.97,0.433-105.126-5.741-100.058-14.869
							c2.251-4.053,47.167-15.789,59.798-27.422c11.566-10.651,10.624-21.646,11.575-29.518
							C2726.715,1863.567,2706.776,1863.985,2699.026,1852.273z"/>
						<path style="fill:#26264F;" d="M2715.299,1753.39c-4.766,10.512,6.797,31.62,11.066,34.682
							c0.479,0.344,3.181,2.474,5.609,6.125c0.331,0.498,0.623,1.081,0.882,1.832c3.393,9.76-12.124,21.243-9.129,25.61
							c2.172,3.172,12.718-1.066,13.972,1.668c1.181,2.579-7.583,7.913-6.241,10.995c1.012,2.33,6.406,0.199,9.808,3.77
							c2.629,2.758,2.935,6.667,2.994,8.619c0.421,13.873-31.039,63.976-37.593,86.583c-6.951,23.976,5.483,46.797,50.648,109.857
							c64.245,89.7,96.367,134.551,114.227,147.373c87.282,62.657,189.917,54.978,232.004,48.44
							c50.562-7.853,155.021-24.08,188.662-104.529c38.67-92.474-37.465-219.017-115.577-240.504
							c-35.721-9.824-54.739,5.099-101.129-11.044c-51.235-17.831-45.028-49.356-92.463-67.974
							c-63.266-24.833-104.088,19.559-147.19-12.763c-23.456-17.592-19.588-36.903-48.44-50.99
							C2758.944,1737.241,2721.547,1739.612,2715.299,1753.39z"/>
						
							<linearGradient id="SVGID_00000023257721870768258980000009904009902188572084_" gradientUnits="userSpaceOnUse" x1="5941.1724" y1="1174.5781" x2="6173.6743" y2="1467.0956" gradientTransform="matrix(0.9663 0.2576 -0.2576 0.9663 -2744.3408 -923.8408)">
							<stop  offset="0" style="stop-color:#FFC444"/>
							<stop  offset="0.9964" style="stop-color:#F36F56"/>
						</linearGradient>
						<path style="fill:url(#SVGID_00000023257721870768258980000009904009902188572084_);" d="M2729.294,1818.001
							c3.796-5.215,10.465-0.315,10.504,6.433c0.04,6.747-6.499,13.762-12.841,12.43
							C2720.613,1835.532,2724.186,1825.021,2729.294,1818.001z"/>
					</g>
				</g>
				
					<linearGradient id="SVGID_00000038405200363068656610000007804410280971298492_" gradientUnits="userSpaceOnUse" x1="2546.4719" y1="2215.9138" x2="2880.2957" y2="2534.6775">
					<stop  offset="0" style="stop-color:#FF9085"/>
					<stop  offset="1" style="stop-color:#FB6FBB"/>
				</linearGradient>
				<path style="opacity:0.3;fill:url(#SVGID_00000038405200363068656610000007804410280971298492_);" d="M2833.9,2588.602
					c-16.682-33.216,24.195-77.37-2.511-128.007c-22.681-43.008-63.884-33.372-82.828-72.789
					c-22.882-47.608,26.881-83.19,25.099-155.617c-2.131-86.584-76.632-173.258-120.477-165.657
					c-28.368,4.917-32.013,47.239-51.972,93.571c17.662,38.728,38.296,87.248,56.991,152.404
					c22.981,80.093,34.471,120.139,31.375,170.677c-4.314,70.392-29.037,111.065-5.02,143.067
					c15.036,20.034,43.694,23.251,100.398,28.865c51.531,5.102,136.332,12.438,230.915-30.119
					c11.972-5.387,20.935-9.422,28.245-13.403C2896.348,2633.786,2847.131,2614.949,2833.9,2588.602z"/>
				
					<linearGradient id="SVGID_00000173883731024131243570000004840392041397547168_" gradientUnits="userSpaceOnUse" x1="2561.4802" y1="2178.5212" x2="2940.1738" y2="2540.1306">
					<stop  offset="0" style="stop-color:#FF9085"/>
					<stop  offset="1" style="stop-color:#FB6FBB"/>
				</linearGradient>
				<path style="fill:url(#SVGID_00000173883731024131243570000004840392041397547168_);" d="M2283.44,2248.153
					c1.714-7.713,3.427-15.421,5.141-23.135c116.113,20.814,166.888-2.549,191.415-29.852
					c22.513-25.057,12.914-38.003,48.944-133.655c34.318-91.104,73.254-114.518,92.868-122.988
					c10.955-4.731,18.519-7.868,27.609-5.647c41.832,10.222,55.661,119.234,43.925,200.798
					c-6.613,45.95-19.58,136.059-93.497,178.833c-1.359,0.786-3.51,2.031-6.35,3.551c-9.308,4.979-46.296,22.765-119.147,9.625
					C2388.453,2310.188,2304.653,2260.96,2283.44,2248.153z"/>
			</g>
			<g>
				<ellipse style="fill:#B7C0CE;" cx="2821.068" cy="3111.813" rx="253.69" ry="103.538"/>
				<path style="fill:#FFFFFF;" d="M3074.758,3099.672c0,53.978-113.581,97.737-253.69,97.737
					c-140.11,0-253.691-43.758-253.691-97.737c0-53.977,113.58-142.299,253.691-142.299
					C2961.177,2957.373,3074.758,3045.695,3074.758,3099.672z"/>
				
					<linearGradient id="SVGID_00000144311058622349481480000013782729170335168648_" gradientUnits="userSpaceOnUse" x1="2722.7559" y1="3052.5027" x2="3149.0874" y2="3052.5027" gradientTransform="matrix(1 0 0 1 -74.3293 0)">
					<stop  offset="0" style="stop-color:#AA80F9"/>
					<stop  offset="0.9964" style="stop-color:#6165D7"/>
				</linearGradient>
				<path style="opacity:0.3;fill:url(#SVGID_00000144311058622349481480000013782729170335168648_);" d="M3074.758,3099.672
					c0-53.978-113.581-142.299-253.69-142.299c-64.692,0-123.697,18.848-168.508,44.432c-3.137,6.571-4.598,13.105-4.004,19.309
					c2.909,30.369,52.441,49.041,80.874,55.198c71.598,15.508,106.562-27.307,165.596-25.674
					c36.498,1.009,87.075,19.344,147.063,96.995C3062.854,3133.462,3074.758,3117.107,3074.758,3099.672z"/>
				<path style="fill:#FFFFFF;" d="M2834.963,3006.401c-10.136,2.522-19.594,2.423-28.491,0.162
					c-8.07-2.049-13.611-9.516-13.611-17.844l0.001-286.058h56.411v285.72C2849.274,2996.965,2843.292,3004.329,2834.963,3006.401z"
					/>
				
					<linearGradient id="SVGID_00000048498172144811711770000010390122777100714663_" gradientUnits="userSpaceOnUse" x1="2867.1912" y1="2855.469" x2="2923.6033" y2="2855.469" gradientTransform="matrix(1 0 0 1 -74.3293 0)">
					<stop  offset="0" style="stop-color:#AA80F9"/>
					<stop  offset="0.9964" style="stop-color:#6165D7"/>
				</linearGradient>
				<path style="opacity:0.65;fill:url(#SVGID_00000048498172144811711770000010390122777100714663_);" d="M2834.963,3006.401
					c-10.136,2.522-19.594,2.423-28.491,0.162c-8.07-2.049-13.611-9.516-13.611-17.844l0.001-286.058h56.411v285.72
					C2849.274,2996.965,2843.292,3004.329,2834.963,3006.401z"/>
				<g>
					
						<linearGradient id="SVGID_00000159440047085841890970000014816298752734321086_" gradientUnits="userSpaceOnUse" x1="3175.438" y1="2795.4822" x2="3072.0115" y2="2660.7141" gradientTransform="matrix(1 0 0 1 -74.3293 0)">
						<stop  offset="0" style="stop-color:#311944"/>
						<stop  offset="1" style="stop-color:#893976"/>
					</linearGradient>
					<path style="fill:url(#SVGID_00000159440047085841890970000014816298752734321086_);" d="M2522.996,2582.271l86.178-54.478
						c3.585-20.351,44.207-233.246,209.124-300.1c67.065-27.186,139.24-23.961,178.847-22.19
						c79.068,3.531,135.467,6.05,162.592,43.766c34.832,48.429-23.589,92.349-11.492,230.88
						c4.933,56.493,17.478,81.583,1.853,119.008c-18.719,44.831-62.125,69.68-95.877,83.667
						c-40.344,23.428-110.59,56.813-203.37,64.944c-156.28,13.697-272.951-53.343-313.073-78.993
						c-17.842-5.625-31.247-20.461-35.041-38.779C2498.893,2611.421,2506.963,2592.406,2522.996,2582.271z"/>
				</g>
				<path style="opacity:0.26;fill:#FFFFFF;" d="M2562.621,2621.064c3.186-19.156,56.576-3.277,107.08-40.792
					c75.493-56.079,36.311-151.073,101.979-242.202c60.266-83.63,181.593-126.195,219.257-94.331
					c50.134,42.416-72.566,201.037,0,303.39c35.25,49.72,88.955,47.325,89.232,76.485c0.438,46.08-133.225,99.206-260.049,96.881
					C2683.777,2717.995,2557.566,2651.469,2562.621,2621.064z"/>
			</g>
		</g>
		
			<linearGradient id="SVGID_00000090282701825645063360000004401872405059432123_" gradientUnits="userSpaceOnUse" x1="729.2048" y1="639.9527" x2="1535.6624" y2="2042.8502">
			<stop  offset="0.0036" style="stop-color:#E38DDD"/>
			<stop  offset="1" style="stop-color:#9571F6"/>
		</linearGradient>
		<path style="fill:url(#SVGID_00000090282701825645063360000004401872405059432123_);" d="M1349.228,1188.716
			c41.788-52.06,65.807-112.403,65.807-176.271c0-185.716-204.15-333.56-459.307-330.176
			c-258.908,3.434-471.605,160.838-471.605,351.527c0,190.688,212.697,338.336,471.605,329.894
			c96.065-3.132,184.843-27.342,258.161-66.119c48.294,6.486,122.996,17.538,162.288,23.406
			c11.552,1.725,21.012-9.567,16.879-20.139L1349.228,1188.716z"/>
		<g>
			
				<linearGradient id="SVGID_00000140727614140217707940000007036995017706513811_" gradientUnits="userSpaceOnUse" x1="2235.0703" y1="473.0955" x2="1864.1449" y2="1548.7794">
				<stop  offset="0" style="stop-color:#FF9085"/>
				<stop  offset="1" style="stop-color:#FB6FBB"/>
			</linearGradient>
			<path style="fill:url(#SVGID_00000140727614140217707940000007036995017706513811_);" d="M1705.358,1100.246
				c-45.718-55.4-72.222-122.272-72.222-195.236c0-212.168,220.089-384.589,479.531-385.092
				c247.026-0.478,438.77,156.526,438.77,350.659s-191.744,365.517-438.77,383.563c-95.732,6.994-186.273-9.896-262.597-45.04
				c-51.06,12.359-131.303,32.933-174.138,43.979c-12.677,3.269-23.087-8.527-18.536-21.033L1705.358,1100.246z"/>
			<g>
				<g>
					<path style="fill:#D8DEE8;" d="M2357.109,970.883c15.023,7.628,33.898,0.624,42.157-15.643
						c8.259-16.267,2.776-35.638-12.248-43.265c-0.779-0.396-1.573-0.727-2.37-1.045c2.792-9.001,4.896-18.073,6.307-27.148
						c0.861-0.002,1.726-0.016,2.604-0.095c17.14-1.528,30.744-17.278,30.385-35.18c-0.358-17.902-14.544-31.176-31.685-29.648
						c-0.896,0.08-1.776,0.221-2.651,0.377c-1.791-8.871-4.244-17.537-7.339-25.925c0.789-0.462,1.573-0.938,2.339-1.475
						c14.664-10.273,19.353-30.551,10.472-45.29c-8.881-14.739-27.968-18.359-42.633-8.086c-0.752,0.527-1.459,1.095-2.157,1.672
						c-5.792-6.403-12.144-12.337-19.017-17.752c0.483-0.792,0.956-1.595,1.384-2.438c8.259-16.267,19.052-34.036,3.911-41.428
						c-35.025-17.099-50.056-2.461-58.315,13.806c-0.427,0.842-0.797,1.698-1.151,2.556c-8.428-2.353-16.967-3.98-25.554-4.878
						c0.054-0.904,0.096-1.81,0.077-2.728c-0.359-17.901,4.953-27.589-12.252-27.923c-37.518-0.729-50.177,15.555-49.818,33.456
						c0.019,0.936,0.097,1.85,0.19,2.759c-8.598,2.451-17.042,5.584-25.261,9.374c-0.391-0.798-0.796-1.592-1.26-2.363
						c-8.881-14.739-27.968-18.359-42.633-8.084c-14.665,10.274-19.353,30.551-10.472,45.29c0.455,0.756,0.953,1.462,1.459,2.158
						c-6.494,6.495-12.576,13.547-18.196,21.112c-0.726-0.456-1.464-0.901-2.242-1.297c-15.024-7.628-33.898-0.624-42.157,15.643
						c-8.259,16.267-2.776,35.638,12.248,43.265c0.779,0.395,1.573,0.727,2.37,1.045c-2.791,9.001-4.896,18.073-6.307,27.148
						c-0.862,0.002-1.725,0.016-2.603,0.094c-17.14,1.529-30.744,17.279-30.385,35.181c0.359,17.902,14.545,31.175,31.685,29.647
						c0.896-0.08,1.776-0.22,2.651-0.377c1.79,8.872,4.243,17.538,7.338,25.925c-0.789,0.461-1.573,0.938-2.34,1.475
						c-14.664,10.274-19.352,30.551-10.471,45.291c8.881,14.739,38.283,21.587,52.947,11.314c0.752-0.527-8.856-4.323-8.157-4.9
						c5.792,6.403,12.144,12.337,19.017,17.752c-0.483,0.792-0.956,1.595-1.384,2.437c-8.259,16.267-2.776,35.638,12.248,43.266
						s33.898,0.624,42.157-15.643c0.428-0.843,0.797-1.699,1.151-2.556c8.428,2.353,16.967,3.98,25.554,4.878
						c-0.054,0.904-0.095,1.811-0.077,2.728c0.359,17.901,14.545,31.175,31.685,29.647c17.141-1.528,30.745-17.279,30.385-35.18
						c-0.019-0.935-0.097-1.85-0.189-2.759c8.598-2.45,17.042-5.584,25.261-9.374c0.39,0.798,0.796,1.592,1.26,2.362
						c8.881,14.739,27.968,18.36,42.633,8.085c14.665-10.275,19.353-30.551,10.472-45.291c-0.455-0.754-0.953-1.46-1.46-2.157
						c6.494-6.495,12.576-13.547,18.195-21.112C2355.593,970.042,2356.33,970.488,2357.109,970.883z M2169.827,973.259
						c-54.546-27.695-74.455-98.025-44.468-157.088c29.988-59.063,98.515-84.491,153.062-56.797
						c54.546,27.695,74.456,98.025,44.468,157.088C2292.902,975.526,2224.375,1000.954,2169.827,973.259z"/>
					<path style="fill:#D8DEE8;" d="M2393.559,883.686c17.14-1.528,30.744-17.278,30.385-35.181
						c-0.359-17.901-14.544-31.176-31.685-29.647c-0.896,0.08-1.776,0.222-2.651,0.377c-1.79-8.872-4.244-17.537-7.339-25.925
						c0.789-0.461,1.573-0.939,2.339-1.475c14.664-10.274,32.806-35.098,22.461-48.848c-19.636-26.097-39.958-14.801-54.621-4.528
						c-0.752,0.527-1.459,1.095-2.157,1.671c-5.792-6.402-12.144-12.336-19.018-17.752c0.484-0.792,0.957-1.594,1.385-2.437
						c4.495-8.853,4.892-18.614,1.923-26.912c-14.164,24.929-28.137,49.963-41.86,75.134c43.516,31.888,57.369,94.727,30.169,148.3
						c-23.049,45.398-68.867,70.89-113.605,67.696c-1.996,5.175-3.955,10.379-6.093,15.505
						c-5.799,13.909-12.387,27.533-18.984,41.139c4.149,0.782,8.315,1.398,12.494,1.835c-0.054,0.905-0.095,1.812-0.077,2.729
						c0.359,17.902,11.228,33.111,42.292,31.463c17.184-0.912,20.138-19.095,19.778-36.996c-0.019-0.935-0.097-1.85-0.189-2.759
						c8.598-2.451,17.042-5.584,25.26-9.374c0.39,0.798,0.796,1.592,1.26,2.362c8.881,14.739,39.69,21.002,54.354,10.728
						c14.665-10.275,7.631-33.193-1.25-47.933c-0.455-0.755-0.953-1.461-1.46-2.158c6.494-6.494,12.576-13.547,18.195-21.111
						c0.727,0.456,1.464,0.902,2.242,1.296c15.023,7.628,33.898,0.624,42.157-15.644c8.259-16.266,2.776-35.638-12.248-43.265
						c-0.779-0.395-1.573-0.727-2.37-1.045c2.792-9.001,4.896-18.073,6.307-27.148
						C2391.816,883.779,2392.681,883.764,2393.559,883.686z"/>
					<path style="fill:#FFFFFF;" d="M2373.267,972.72c15.023,7.628,33.897,0.624,42.156-15.643
						c8.26-16.267,2.776-35.638-12.248-43.266c-0.778-0.395-1.572-0.727-2.369-1.045c2.792-9.001,4.896-18.073,6.307-27.148
						c0.861-0.002,1.726-0.017,2.603-0.095c17.141-1.528,30.744-17.278,30.385-35.18c-0.359-17.901-14.544-31.176-31.685-29.648
						c-0.896,0.081-1.776,0.222-2.651,0.377c-1.791-8.871-4.243-17.538-7.338-25.925c0.788-0.461,1.573-0.938,2.339-1.475
						c14.664-10.273,19.352-30.551,10.471-45.29c-8.881-14.74-27.969-18.359-42.633-8.086c-0.751,0.527-1.458,1.095-2.156,1.672
						c-5.792-6.403-12.145-12.336-19.018-17.752c0.483-0.792,0.957-1.595,1.385-2.438c8.259-16.267,2.775-35.638-12.248-43.266
						c-15.023-7.627-33.897-0.624-42.156,15.643c-0.428,0.843-0.797,1.698-1.152,2.556c-8.428-2.353-16.967-3.98-25.554-4.878
						c0.053-0.904,0.095-1.811,0.077-2.728c-0.359-17.901-14.545-31.175-31.686-29.648c-17.14,1.528-30.744,17.279-30.385,35.18
						c0.018,0.936,0.096,1.85,0.19,2.759c-8.598,2.451-17.042,5.584-25.261,9.374c-0.39-0.798-0.796-1.592-1.26-2.363
						c-8.881-14.74-27.969-18.359-42.633-8.085c-14.665,10.274-19.353,30.551-10.472,45.291c0.455,0.755,0.953,1.461,1.46,2.158
						c-6.494,6.495-12.576,13.547-18.196,21.112c-0.727-0.456-1.464-0.901-2.242-1.296c-15.024-7.628-33.898-0.624-42.157,15.643
						c-8.259,16.268-2.775,35.638,12.248,43.266c0.779,0.395,1.573,0.727,2.37,1.045c-2.791,9.001-4.896,18.073-6.307,27.148
						c-0.861,0.003-1.725,0.017-2.603,0.095c-17.141,1.529-30.744,17.279-30.385,35.181c0.359,17.902,14.545,31.175,31.685,29.647
						c0.896-0.08,1.776-0.221,2.651-0.377c1.79,8.872,4.244,17.537,7.338,25.925c-0.788,0.461-1.573,0.938-2.34,1.475
						c-14.664,10.273-19.352,30.551-10.471,45.29c8.881,14.739,27.968,18.359,42.632,8.086c0.752-0.527,1.458-1.095,2.157-1.672
						c5.792,6.403,12.145,12.336,19.018,17.752c-0.483,0.792-0.956,1.595-1.384,2.438c-8.259,16.267-2.776,35.638,12.248,43.265
						s33.898,0.624,42.157-15.643c0.428-0.842,0.797-1.698,1.152-2.556c8.427,2.353,16.966,3.981,25.554,4.878
						c-0.054,0.905-0.095,1.811-0.077,2.728c0.36,17.901,14.545,31.175,31.685,29.647c17.141-1.527,30.745-17.279,30.385-35.18
						c-0.019-0.936-0.097-1.85-0.19-2.759c8.598-2.451,17.042-5.585,25.26-9.374c0.391,0.798,0.796,1.592,1.26,2.362
						c8.881,14.74,27.968,18.36,42.633,8.086c14.664-10.274,19.353-30.551,10.472-45.291c-0.455-0.754-0.953-1.461-1.46-2.157
						c6.494-6.495,12.576-13.547,18.196-21.112C2371.752,971.88,2372.489,972.326,2373.267,972.72z M2185.986,975.097
						c-54.547-27.695-74.456-98.024-44.468-157.088c29.988-59.063,98.515-84.492,153.062-56.797
						c54.546,27.694,74.456,98.024,44.468,157.087C2309.061,977.363,2240.533,1002.791,2185.986,975.097z"/>
				</g>
				<g>
					<path style="fill:#D8DEE8;" d="M1970.327,1050.169c8.258,4.193,18.631,0.343,23.171-8.598
						c4.539-8.941,1.526-19.588-6.732-23.78c-0.428-0.218-0.865-0.4-1.303-0.575c1.534-4.947,2.691-9.934,3.467-14.921
						c0.473-0.001,0.948-0.01,1.431-0.052c9.421-0.84,16.898-9.497,16.701-19.337c-0.197-9.839-7.995-17.135-17.415-16.295
						c-0.493,0.044-0.976,0.122-1.458,0.207c-0.984-4.876-2.332-9.639-4.033-14.25c0.433-0.253,0.864-0.515,1.286-0.81
						c8.06-5.647,10.636-16.792,5.755-24.894c-4.881-8.101-15.373-10.09-23.433-4.444c-0.413,0.29-0.802,0.602-1.185,0.919
						c-3.184-3.519-6.675-6.781-10.453-9.758c0.265-0.436,0.526-0.877,0.761-1.339c4.54-8.941,10.472-18.708,2.149-22.771
						c-19.251-9.398-27.513-1.353-32.052,7.588c-0.235,0.463-0.438,0.933-0.633,1.405c-4.633-1.293-9.326-2.187-14.045-2.681
						c0.029-0.497,0.052-0.995,0.042-1.499c-0.197-9.839,2.722-15.164-6.734-15.348c-20.621-0.401-27.578,8.55-27.381,18.389
						c0.01,0.514,0.053,1.017,0.104,1.516c-4.726,1.347-9.367,3.069-13.885,5.152c-0.214-0.439-0.437-0.875-0.692-1.299
						c-4.881-8.101-15.372-10.091-23.432-4.444c-8.06,5.647-10.637,16.792-5.756,24.893c0.25,0.415,0.524,0.803,0.802,1.187
						c-3.569,3.569-6.912,7.446-10.001,11.603c-0.399-0.25-0.804-0.495-1.232-0.712c-8.258-4.193-18.632-0.343-23.172,8.598
						c-4.539,8.941-1.525,19.588,6.732,23.781c0.428,0.217,0.865,0.399,1.302,0.574c-1.534,4.948-2.691,9.934-3.467,14.922
						c-0.473,0.001-0.948,0.009-1.431,0.052c-9.421,0.841-16.898,9.497-16.701,19.337c0.197,9.839,7.995,17.135,17.416,16.295
						c0.492-0.044,0.976-0.121,1.457-0.207c0.984,4.876,2.332,9.639,4.033,14.25c-0.433,0.253-0.864,0.515-1.286,0.811
						c-8.06,5.647-10.637,16.792-5.756,24.894c4.881,8.101,21.042,11.865,29.102,6.218c0.413-0.289-4.867-2.376-4.484-2.693
						c3.184,3.519,6.675,6.781,10.453,9.757c-0.265,0.435-0.526,0.877-0.761,1.339c-4.54,8.941-1.526,19.588,6.732,23.781
						s18.632,0.343,23.171-8.599c0.235-0.463,0.437-0.933,0.633-1.405c4.632,1.293,9.326,2.188,14.045,2.682
						c-0.029,0.497-0.052,0.995-0.042,1.499c0.197,9.839,7.994,17.135,17.415,16.295c9.421-0.84,16.898-9.497,16.701-19.336
						c-0.01-0.514-0.053-1.017-0.104-1.516c4.726-1.347,9.367-3.069,13.885-5.153c0.214,0.439,0.437,0.875,0.693,1.299
						c4.881,8.101,15.372,10.091,23.432,4.444c8.06-5.647,10.637-16.792,5.756-24.894c-0.25-0.414-0.524-0.803-0.802-1.186
						c3.569-3.57,6.912-7.446,10.001-11.604C1969.494,1049.707,1969.899,1049.952,1970.327,1050.169z M1867.39,1051.475
						c-29.981-15.222-40.924-53.878-24.442-86.341c16.482-32.464,54.148-46.44,84.129-31.218
						c29.981,15.221,40.924,53.878,24.442,86.341C1935.037,1052.721,1897.371,1066.698,1867.39,1051.475z"/>
					<path style="fill:#D8DEE8;" d="M1990.361,1002.242c9.421-0.84,16.898-9.497,16.701-19.337
						c-0.197-9.839-7.995-17.135-17.416-16.295c-0.492,0.044-0.976,0.122-1.456,0.207c-0.984-4.876-2.333-9.639-4.033-14.25
						c0.433-0.253,0.864-0.515,1.286-0.811c8.06-5.646,18.031-19.291,12.345-26.849c-10.793-14.344-21.962-8.135-30.022-2.489
						c-0.413,0.29-0.802,0.602-1.185,0.919c-3.184-3.519-6.675-6.78-10.453-9.757c0.265-0.436,0.526-0.877,0.761-1.339
						c2.471-4.867,2.688-10.232,1.057-14.793c-7.785,13.703-15.465,27.462-23.008,41.297c23.918,17.526,31.533,52.065,16.583,81.511
						c-12.669,24.953-37.853,38.964-62.442,37.208c-1.097,2.845-2.174,5.704-3.349,8.522c-3.188,7.645-6.809,15.133-10.434,22.611
						c2.28,0.43,4.57,0.768,6.867,1.009c-0.03,0.497-0.052,0.995-0.042,1.5c0.197,9.839,6.171,18.199,23.245,17.294
						c9.446-0.501,11.068-10.495,10.871-20.335c-0.01-0.514-0.053-1.017-0.104-1.516c4.726-1.347,9.367-3.07,13.885-5.152
						c0.214,0.439,0.438,0.875,0.693,1.298c4.881,8.102,21.815,11.543,29.875,5.896c8.06-5.647,4.194-18.245-0.687-26.346
						c-0.25-0.415-0.524-0.803-0.802-1.186c3.569-3.569,6.912-7.446,10.001-11.604c0.399,0.251,0.804,0.496,1.232,0.712
						c8.258,4.193,18.631,0.343,23.171-8.598c4.539-8.941,1.526-19.587-6.732-23.78c-0.428-0.218-0.864-0.4-1.303-0.575
						c1.534-4.947,2.691-9.934,3.467-14.921C1989.403,1002.294,1989.879,1002.285,1990.361,1002.242z"/>
					<path style="fill:#FFFFFF;" d="M1979.208,1051.18c8.257,4.192,18.631,0.343,23.171-8.599c4.539-8.941,1.526-19.588-6.732-23.78
						c-0.428-0.217-0.864-0.4-1.302-0.575c1.534-4.948,2.691-9.933,3.467-14.921c0.473-0.001,0.948-0.009,1.431-0.053
						c9.421-0.84,16.898-9.497,16.701-19.336c-0.197-9.839-7.995-17.135-17.415-16.295c-0.493,0.044-0.976,0.122-1.458,0.207
						c-0.984-4.876-2.332-9.639-4.033-14.25c0.433-0.253,0.864-0.515,1.286-0.811c8.06-5.646,10.637-16.792,5.756-24.894
						c-4.881-8.101-15.372-10.091-23.432-4.444c-0.413,0.29-0.802,0.602-1.186,0.919c-3.184-3.519-6.675-6.78-10.453-9.757
						c0.266-0.435,0.526-0.877,0.76-1.34c4.54-8.941,1.526-19.588-6.732-23.78c-8.257-4.193-18.631-0.343-23.171,8.598
						c-0.235,0.463-0.438,0.933-0.633,1.404c-4.632-1.293-9.326-2.188-14.045-2.681c0.03-0.497,0.052-0.995,0.043-1.499
						c-0.198-9.839-7.995-17.135-17.416-16.295c-9.421,0.84-16.898,9.497-16.701,19.337c0.01,0.514,0.053,1.017,0.104,1.516
						c-4.726,1.347-9.367,3.07-13.884,5.152c-0.214-0.439-0.437-0.875-0.692-1.299c-4.882-8.101-15.373-10.091-23.433-4.444
						c-8.061,5.647-10.637,16.792-5.756,24.894c0.25,0.415,0.523,0.803,0.802,1.186c-3.57,3.57-6.912,7.446-10.002,11.604
						c-0.399-0.251-0.804-0.495-1.232-0.713c-8.258-4.192-18.632-0.343-23.171,8.598c-4.54,8.941-1.526,19.588,6.731,23.78
						c0.428,0.218,0.865,0.4,1.302,0.575c-1.534,4.948-2.691,9.933-3.466,14.921c-0.474,0.002-0.949,0.009-1.431,0.052
						c-9.422,0.84-16.898,9.497-16.701,19.337c0.197,9.839,7.995,17.135,17.416,16.295c0.492-0.044,0.976-0.121,1.456-0.207
						c0.984,4.876,2.333,9.639,4.034,14.25c-0.433,0.253-0.865,0.515-1.286,0.811c-8.06,5.646-10.637,16.792-5.755,24.894
						c4.881,8.101,15.372,10.091,23.432,4.444c0.413-0.29,0.801-0.602,1.185-0.919c3.184,3.519,6.676,6.78,10.453,9.757
						c-0.266,0.436-0.526,0.877-0.761,1.339c-4.539,8.941-1.526,19.588,6.732,23.781c8.258,4.192,18.632,0.343,23.171-8.598
						c0.235-0.463,0.437-0.933,0.632-1.405c4.632,1.294,9.326,2.187,14.045,2.681c-0.029,0.497-0.052,0.995-0.042,1.5
						c0.197,9.839,7.995,17.135,17.415,16.295c9.421-0.84,16.898-9.497,16.701-19.336c-0.01-0.515-0.053-1.017-0.104-1.517
						c4.726-1.347,9.367-3.069,13.884-5.152c0.214,0.439,0.438,0.875,0.692,1.298c4.882,8.101,15.372,10.091,23.432,4.444
						c8.061-5.647,10.637-16.792,5.756-24.894c-0.25-0.415-0.524-0.803-0.802-1.186c3.569-3.57,6.912-7.446,10.001-11.604
						C1978.375,1050.717,1978.781,1050.962,1979.208,1051.18z M1876.271,1052.485c-29.981-15.221-40.924-53.878-24.441-86.34
						c16.482-32.464,54.148-46.44,84.128-31.218c29.981,15.222,40.924,53.878,24.442,86.341
						C1943.918,1053.731,1906.252,1067.708,1876.271,1052.485z"/>
				</g>
				<g>
					<path style="fill:#D8DEE8;" d="M1993.293,804.341c5.367,2.725,12.11,0.223,15.062-5.589c2.95-5.812,0.992-12.732-4.376-15.457
						c-0.278-0.141-0.562-0.26-0.847-0.374c0.997-3.216,1.749-6.457,2.254-9.699c0.307-0.001,0.616-0.006,0.93-0.034
						c6.124-0.546,10.984-6.173,10.856-12.569c-0.128-6.396-5.196-11.138-11.32-10.592c-0.32,0.029-0.635,0.079-0.948,0.135
						c-0.639-3.169-1.516-6.266-2.621-9.262c0.281-0.165,0.562-0.335,0.836-0.527c5.239-3.67,6.914-10.915,3.741-16.181
						c-3.173-5.266-9.993-6.559-15.232-2.889c-0.268,0.188-0.521,0.391-0.77,0.598c-2.069-2.288-4.339-4.408-6.795-6.343
						c0.173-0.283,0.342-0.57,0.495-0.871c2.951-5.812,6.807-12.161,1.397-14.801c-12.514-6.109-17.884-0.879-20.834,4.932
						c-0.153,0.301-0.284,0.607-0.411,0.913c-3.011-0.841-6.061-1.422-9.13-1.743c0.019-0.323,0.034-0.647,0.028-0.975
						c-0.128-6.396,1.769-9.857-4.378-9.976c-13.404-0.261-17.926,5.558-17.798,11.953c0.007,0.334,0.035,0.661,0.068,0.986
						c-3.072,0.875-6.089,1.995-9.025,3.349c-0.139-0.285-0.284-0.569-0.45-0.844c-3.173-5.266-9.992-6.559-15.232-2.889
						c-5.239,3.671-6.914,10.915-3.741,16.181c0.162,0.27,0.34,0.522,0.522,0.771c-2.32,2.32-4.493,4.84-6.501,7.542
						c-0.26-0.162-0.523-0.322-0.801-0.463c-5.368-2.725-12.111-0.223-15.062,5.589c-2.95,5.812-0.992,12.732,4.376,15.458
						c0.278,0.141,0.562,0.26,0.846,0.373c-0.997,3.216-1.749,6.457-2.254,9.699c-0.307,0.001-0.616,0.006-0.93,0.034
						c-6.124,0.547-10.984,6.173-10.856,12.569c0.128,6.396,5.197,11.138,11.32,10.593c0.32-0.028,0.635-0.079,0.947-0.135
						c0.639,3.17,1.516,6.266,2.621,9.263c-0.281,0.164-0.562,0.335-0.836,0.527c-5.239,3.671-6.914,10.915-3.741,16.181
						c3.173,5.266,13.677,7.713,18.916,4.042c0.268-0.188-3.164-1.544-2.914-1.751c2.069,2.288,4.339,4.408,6.794,6.342
						c-0.173,0.283-0.342,0.57-0.495,0.871c-2.951,5.812-0.991,12.732,4.376,15.458c5.368,2.725,12.11,0.223,15.061-5.589
						c0.153-0.301,0.284-0.607,0.411-0.913c3.011,0.841,6.062,1.422,9.13,1.743c-0.019,0.323-0.034,0.647-0.027,0.975
						c0.128,6.395,5.196,11.138,11.32,10.592c6.124-0.546,10.984-6.173,10.856-12.569c-0.007-0.334-0.035-0.661-0.068-0.986
						c3.072-0.875,6.089-1.995,9.025-3.349c0.14,0.285,0.284,0.569,0.45,0.844c3.173,5.266,9.992,6.559,15.231,2.888
						c5.239-3.671,6.914-10.915,3.742-16.181c-0.163-0.269-0.341-0.522-0.522-0.771c2.32-2.32,4.493-4.84,6.501-7.543
						C1992.752,804.041,1993.016,804.199,1993.293,804.341z M1926.384,805.19c-19.488-9.895-26.601-35.021-15.887-56.123
						c10.714-21.102,35.197-30.186,54.685-20.292c19.488,9.894,26.601,35.021,15.887,56.123
						C1970.355,805.999,1945.871,815.084,1926.384,805.19z"/>
					<path style="fill:#D8DEE8;" d="M2006.316,773.188c6.124-0.546,10.984-6.173,10.856-12.569
						c-0.128-6.396-5.196-11.138-11.32-10.592c-0.32,0.028-0.634,0.079-0.947,0.135c-0.64-3.17-1.516-6.266-2.622-9.262
						c0.281-0.165,0.562-0.335,0.836-0.527c5.239-3.67,11.721-12.54,8.025-17.452c-7.016-9.323-14.276-5.288-19.515-1.618
						c-0.268,0.188-0.521,0.391-0.77,0.597c-2.069-2.288-4.339-4.407-6.795-6.342c0.173-0.283,0.342-0.57,0.495-0.871
						c1.606-3.163,1.748-6.65,0.687-9.615c-5.06,8.907-10.053,17.85-14.955,26.843c15.547,11.392,20.497,33.843,10.779,52.984
						c-8.235,16.219-24.604,25.327-40.588,24.185c-0.713,1.849-1.413,3.708-2.177,5.539c-2.072,4.97-4.426,9.837-6.782,14.698
						c1.482,0.28,2.971,0.499,4.464,0.656c-0.02,0.323-0.034,0.647-0.028,0.975c0.128,6.395,4.011,11.829,15.109,11.241
						c6.14-0.325,7.194-6.822,7.067-13.218c-0.007-0.334-0.035-0.661-0.068-0.985c3.072-0.876,6.089-1.995,9.025-3.349
						c0.14,0.285,0.284,0.569,0.45,0.844c3.173,5.266,14.18,7.504,19.419,3.833c5.239-3.671,2.726-11.859-0.447-17.125
						c-0.163-0.27-0.341-0.522-0.522-0.771c2.32-2.32,4.493-4.84,6.501-7.542c0.26,0.163,0.523,0.323,0.801,0.463
						c5.367,2.726,12.11,0.223,15.062-5.589c2.95-5.812,0.992-12.732-4.376-15.457c-0.278-0.141-0.562-0.26-0.847-0.374
						c0.997-3.216,1.749-6.457,2.254-9.699C2005.694,773.221,2006.002,773.216,2006.316,773.188z"/>
					<path style="fill:#FFFFFF;" d="M1999.067,804.997c5.367,2.725,12.111,0.223,15.061-5.589
						c2.951-5.812,0.992-12.732-4.376-15.457c-0.278-0.141-0.562-0.26-0.847-0.374c0.997-3.216,1.749-6.457,2.253-9.699
						c0.307-0.001,0.616-0.006,0.93-0.034c6.124-0.545,10.984-6.173,10.856-12.569c-0.128-6.396-5.197-11.138-11.32-10.592
						c-0.32,0.029-0.635,0.079-0.947,0.135c-0.64-3.17-1.516-6.266-2.621-9.262c0.281-0.164,0.561-0.335,0.835-0.527
						c5.239-3.67,6.914-10.915,3.742-16.181c-3.173-5.266-9.992-6.559-15.232-2.889c-0.269,0.188-0.521,0.391-0.771,0.597
						c-2.069-2.288-4.339-4.407-6.794-6.342c0.173-0.283,0.342-0.57,0.494-0.871c2.951-5.812,0.992-12.733-4.376-15.458
						c-5.367-2.725-12.111-0.223-15.061,5.589c-0.153,0.301-0.285,0.607-0.411,0.913c-3.011-0.841-6.062-1.422-9.13-1.743
						c0.019-0.323,0.034-0.647,0.028-0.975c-0.129-6.395-5.197-11.138-11.32-10.592c-6.124,0.546-10.984,6.173-10.856,12.569
						c0.007,0.334,0.035,0.661,0.068,0.985c-3.072,0.876-6.089,1.995-9.025,3.349c-0.139-0.285-0.284-0.569-0.45-0.844
						c-3.173-5.266-9.993-6.559-15.231-2.889c-5.239,3.671-6.914,10.915-3.741,16.181c0.162,0.27,0.34,0.522,0.521,0.771
						c-2.32,2.321-4.493,4.84-6.501,7.543c-0.26-0.163-0.523-0.322-0.801-0.463c-5.368-2.725-12.111-0.223-15.061,5.589
						c-2.951,5.812-0.992,12.732,4.376,15.457c0.278,0.142,0.562,0.26,0.847,0.374c-0.997,3.216-1.749,6.457-2.253,9.699
						c-0.308,0.001-0.617,0.006-0.93,0.034c-6.124,0.546-10.984,6.174-10.856,12.569c0.128,6.396,5.197,11.138,11.321,10.592
						c0.32-0.028,0.634-0.078,0.947-0.135c0.64,3.17,1.516,6.266,2.622,9.263c-0.282,0.164-0.562,0.335-0.836,0.527
						c-5.239,3.67-6.914,10.915-3.741,16.181c3.173,5.266,9.992,6.559,15.231,2.889c0.268-0.188,0.521-0.391,0.771-0.597
						c2.069,2.288,4.339,4.407,6.794,6.342c-0.173,0.283-0.342,0.569-0.494,0.871c-2.951,5.812-0.992,12.732,4.376,15.458
						c5.368,2.725,12.111,0.223,15.061-5.589c0.153-0.301,0.284-0.607,0.411-0.913c3.011,0.841,6.062,1.422,9.13,1.743
						c-0.019,0.323-0.034,0.647-0.027,0.975c0.128,6.396,5.196,11.138,11.32,10.592c6.123-0.546,10.984-6.173,10.855-12.568
						c-0.007-0.335-0.035-0.661-0.068-0.986c3.072-0.876,6.089-1.995,9.025-3.349c0.139,0.285,0.285,0.569,0.45,0.844
						c3.173,5.266,9.992,6.56,15.231,2.889c5.24-3.671,6.914-10.915,3.742-16.181c-0.163-0.27-0.341-0.522-0.522-0.77
						c2.32-2.321,4.493-4.84,6.501-7.543C1998.525,804.697,1998.788,804.856,1999.067,804.997z M1932.157,805.846
						c-19.488-9.894-26.601-35.021-15.887-56.122c10.714-21.101,35.197-30.186,54.684-20.292
						c19.488,9.894,26.601,35.021,15.887,56.123C1976.127,806.656,1951.644,815.74,1932.157,805.846z"/>
				</g>
			</g>
		</g>
		<g>
			
				<linearGradient id="SVGID_00000084497696370439653880000006354723564099724447_" gradientUnits="userSpaceOnUse" x1="2744.0442" y1="1116.7285" x2="3449.9338" y2="1877.2396">
				<stop  offset="0" style="stop-color:#FFC444"/>
				<stop  offset="0.9964" style="stop-color:#F36F56"/>
			</linearGradient>
			<path style="fill:url(#SVGID_00000084497696370439653880000006354723564099724447_);" d="M2723.598,1372.099
				c-22.358-28.656-35.288-63.463-35.288-101.745c0-111.318,108.079-206.179,237.589-211.715
				c125.482-5.364,224.378,75.631,224.378,180.76c0,105.128-98.896,199.377-224.378,210.829
				c-48.057,4.386-93.218-3.948-131.071-21.984c-25.213,6.913-64.66,18.335-85.629,24.44c-6.194,1.804-11.277-4.32-9.055-10.918
				L2723.598,1372.099z"/>
			<g>
				<path style="fill:#FFFFFF;" d="M2850.096,1264.014c2.379,18.533-9.86,36.428-27.888,40.081
					c-18.668,3.784-36.349-9.053-38.882-28.795c-2.534-19.742,11.171-37.883,29.996-40.438
					C2831.502,1232.395,2847.718,1245.481,2850.096,1264.014z"/>
				<path style="fill:#FFFFFF;" d="M2963.577,1244.831c2.115,16.479-7.353,32.103-21.535,34.977
					c-14.626,2.964-28.638-8.691-30.875-26.118c-2.237-17.427,8.251-33.224,23.001-35.225
					C2948.47,1216.525,2961.462,1228.353,2963.577,1244.831z"/>
				<path style="fill:#FFFFFF;" d="M3054.411,1229.477c1.904,14.834-5.604,28.694-17.05,31.014
					c-11.768,2.385-23.177-8.277-25.179-23.876c-2.002-15.599,6.243-29.583,18.111-31.193
					C3041.835,1203.856,3052.507,1214.643,3054.411,1229.477z"/>
			</g>
		</g>
		<g>
			<path style="fill:#FFFFFF;" d="M832.759,1008.394c0,31.176-23.941,58.191-54.406,60.408
				c-31.546,2.296-57.954-22.704-57.954-55.913c0-33.209,26.408-60.322,57.954-60.55
				C808.818,952.119,832.759,977.219,832.759,1008.394z"/>
			<path style="fill:#FFFFFF;" d="M1023.724,1000.754c0,27.72-18.898,51.567-42.863,53.311
				c-24.717,1.799-45.331-20.466-45.331-49.782c0-29.316,20.614-53.231,45.331-53.41
				C1004.826,950.699,1023.724,973.034,1023.724,1000.754z"/>
			<path style="fill:#FFFFFF;" d="M1176.578,994.638c0,24.954-15.296,46.297-34.639,47.704
				c-19.887,1.447-36.424-18.621-36.424-44.861s16.537-47.632,36.424-47.776C1161.282,949.566,1176.578,969.684,1176.578,994.638z"
				/>
		</g>
	</g>
</g>
</svg>
