<?xml version="1.0" encoding="utf-8"?>
<!-- Generator: Adobe Illustrator 27.5.0, SVG Export Plug-In . SVG Version: 6.00 Build 0)  -->
<svg version="1.1" id="Layer_1" xmlns="http://www.w3.org/2000/svg" xmlns:xlink="http://www.w3.org/1999/xlink" x="0px" y="0px"
	 viewBox="0 0 4000 9000" style="enable-background:new 0 0 4000 9000;" xml:space="preserve">
<g>
	<g>
		<defs>
			<rect id="SVGID_1_" y="7.305" width="3994.694" height="8988.068"/>
		</defs>
		<clipPath id="SVGID_00000110448086424808208530000007437975563327512706_">
			<use xlink:href="#SVGID_1_"  style="overflow:visible;"/>
		</clipPath>
		
			<linearGradient id="SVGID_00000069395036131194504540000007489284550494595207_" gradientUnits="userSpaceOnUse" x1="1889.99" y1="2.489" x2="2154.2332" y2="11075.7451">
			<stop  offset="0" style="stop-color:#000000"/>
			<stop  offset="1" style="stop-color:#01052D"/>
		</linearGradient>
		
			<rect y="7.305" style="clip-path:url(#SVGID_00000110448086424808208530000007437975563327512706_);fill:url(#SVGID_00000069395036131194504540000007489284550494595207_);" width="3994.694" height="8988.068"/>
	</g>
	<g>
		<defs>
			<path id="SVGID_00000143612696462655680300000009996603856868029359_" d="M0,7509.259
				c250.992-56.141,540.699-162.895,833.906-441.381c426.016-404.629,325.503-817.491,238.698-1174.046
				c-107.906-443.207-194.718-799.796,768.67-947.209c801.822-122.687,1037.05-275.955,998.654-509.274
				c-24.848-151.013-163.907-335.945-338.241-567.788c-139.86-185.998-302.408-402.167-447.035-655.41
				c-298.161-522.086-335.767-700.273-146.037-801.02c87.765-46.61,224.245-76.341,406.238-115.98
				c222.032-48.356,511.89-111.498,863.419-238.015c605.965-218.089,763.724-400.769,691.691-586.865
				c-59.692-154.225-276.815-311.418-527.659-493.024c-74.624-54.024-152.234-110.215-229.621-169.164
				c-106.098-80.83-201.772-147.477-282.865-203.965c-153.684-107.058-255.165-177.75-275.94-239.365
				c-35.364-104.893,161.335-181.092,728.515-359.447h13.757c-573.762,180.209-772.662,256.004-738.216,358.178
				c20.346,60.335,121.375,130.715,274.372,237.299c81.187,56.556,176.974,123.282,283.021,204.067
				c77.297,58.886,154.911,115.08,229.537,169.103c251.376,181.991,468.95,339.512,529.091,494.889
				c72.958,188.506-85.232,372.974-694.198,592.145c-351.755,126.6-641.801,189.775-863.974,238.166
				c-181.643,39.571-317.868,69.241-405.119,115.573c-186.765,99.18-148.856,276.144,147.714,795.449
				c144.493,253.003,306.96,469.063,446.754,654.974c174.674,232.294,314.005,417.588,339.013,569.557
				c38.838,236.053-197.182,390.801-1002.204,513.985c-958.856,146.716-872.522,501.385-765.194,942.208
				c87.061,357.594,187.867,771.658-239.854,1177.903C542.519,7350.405,251.759,7457.297,0,7513.488V7509.259z"/>
		</defs>
		<clipPath id="SVGID_00000113318292155667119820000002687762670478864062_">
			<use xlink:href="#SVGID_00000143612696462655680300000009996603856868029359_"  style="overflow:visible;"/>
		</clipPath>
		
			<linearGradient id="SVGID_00000178887999293319921750000001991762667255482546_" gradientUnits="userSpaceOnUse" x1="2419.5012" y1="8121.5723" x2="1534.187" y2="-534.5233">
			<stop  offset="0" style="stop-color:#39D4FF"/>
			<stop  offset="1" style="stop-color:#8B00FF"/>
		</linearGradient>
		
			<rect y="7.305" style="clip-path:url(#SVGID_00000113318292155667119820000002687762670478864062_);fill:url(#SVGID_00000178887999293319921750000001991762667255482546_);" width="3946.912" height="7506.182"/>
	</g>
	<g>
		<defs>
			<path id="SVGID_00000115490967981456423280000005633484972968385201_" d="M0,7565.306
				c273.375-57.851,598.008-160.522,910.379-502.533c379.116-415.083,274.486-818.393,184.194-1166.436
				c-116.451-448.863-209.154-806.194,781.728-979.904c807.029-141.482,1043.209-301.849,999.422-534.106
				c-29.043-154.041-180.845-340.136-371.029-573.278c-147.646-180.996-318.4-390.319-472.927-635.165
				c-316.703-501.806-362.512-681.948-182.131-787.805c88.876-52.161,232.756-85.937,426.35-131.371
				c225.749-52.988,519.192-121.862,871.602-254.223c599.171-225.034,756.41-408,682.429-591.165
				c-62.783-155.432-291.627-311.664-558.481-493.835c-81.654-55.737-166.868-113.916-252.061-175.302
				c-89.088-64.2-169.714-119.421-240.127-167.655c-175.732-120.363-288.071-197.313-311.78-263.151
				c-33.999-94.383,112.387-164.189,512.076-302.071h12.625c-405.227,139.372-553.815,208.716-520.676,300.719
				c23.265,64.591,135.167,141.241,310.214,261.14c70.395,48.21,150.979,103.409,240.213,167.715
				c85.048,61.285,170.292,119.478,251.972,175.238c267.418,182.553,496.745,339.116,559.999,495.714
				c74.955,185.579-82.712,370.335-684.862,596.487c-352.653,132.451-646.264,201.358-872.137,254.38
				c-193.224,45.351-336.829,79.056-425.15,130.889c-177.519,104.181-131.439,283.046,183.568,782.163
				c154.41,244.655,325.07,453.865,472.63,634.76c190.55,233.596,342.647,420.047,371.879,575.085
				c44.297,234.957-192.648,396.842-1002.858,538.876c-986.406,172.927-894.196,528.375-778.359,974.87
				c90.544,349.019,195.468,753.457-185.117,1170.152C599.985,7408.843,274.184,7511.579,0,7569.512V7565.306z"/>
		</defs>
		<clipPath id="SVGID_00000025438854171361792530000011480053190918279040_">
			<use xlink:href="#SVGID_00000115490967981456423280000005633484972968385201_"  style="overflow:visible;"/>
		</clipPath>
		
			<linearGradient id="SVGID_00000039825030564389288940000011215620476720942231_" gradientUnits="userSpaceOnUse" x1="2397.8787" y1="8123.7822" x2="1512.5634" y2="-532.3251">
			<stop  offset="0" style="stop-color:#39D4FF"/>
			<stop  offset="1" style="stop-color:#8B00FF"/>
		</linearGradient>
		
			<rect y="7.305" style="clip-path:url(#SVGID_00000025438854171361792530000011480053190918279040_);fill:url(#SVGID_00000039825030564389288940000011215620476720942231_);" width="3908.945" height="7562.207"/>
	</g>
	<g>
		<defs>
			<path id="SVGID_00000108295576562283641610000003235284433149248897_" d="M0,7624.188
				c295.451-64.391,661.662-151.28,987.909-565.719c332.841-422.819,223.915-816.566,129.989-1156.096
				c-125.893-455.043-224.951-813.111,793.798-1014.692c811.849-160.646,1048.708-328.259,999.51-559.435
				c-33.405-156.994-198.35-343.775-404.811-577.556c-155.103-175.627-333.609-377.764-497.518-613.904
				c-334.38-481.728-388.5-663.014-217.107-773.636c89.549-57.793,240.689-95.903,445.7-147.597
				c229.328-57.817,526.144-132.655,879.158-270.913c592.626-232.117,749.273-415.501,673.369-595.697
				c-65.857-156.344-306.269-310.969-589.139-492.888c-89.093-57.296-182.397-117.301-275.485-180.714
				c-66.941-45.601-127.873-86.176-183.135-122.98c-257.609-171.549-393.201-261.841-365.721-345.619
				c20.072-61.18,127.896-117.851,339.612-199.438h11.438c-216.964,83.081-327.066,139.945-346.995,200.692
				c-26.526,80.863,108.176,170.568,364.08,340.987c55.741,37.115,117.197,78.042,183.186,122.996
				c93.455,63.66,186.517,123.514,275.379,180.661c283.46,182.299,524.378,337.244,590.726,494.753
				c76.919,182.605-80.138,367.781-675.709,601.047c-353.362,138.401-650.274,213.263-879.674,271.097
				c-204.633,51.592-355.496,89.631-444.419,147.022c-168.652,108.854-114.301,288.823,218.274,767.944
				c163.758,235.909,342.185,437.96,497.22,613.508c206.853,234.234,372.115,421.373,405.748,579.409
				c49.762,233.85-187.821,403.019-1002.837,564.285c-1014.312,200.704-915.764,556.92-790.532,1009.604
				c94.18,340.434,203.395,735.213-130.712,1159.64C663.77,7477.023,296.286,7563.848,0,7628.397V7624.188z"/>
		</defs>
		<clipPath id="SVGID_00000023969846692585319100000012165051456318359185_">
			<use xlink:href="#SVGID_00000108295576562283641610000003235284433149248897_"  style="overflow:visible;"/>
		</clipPath>
		
			<linearGradient id="SVGID_00000061432043292987394020000016232322273509066412_" gradientUnits="userSpaceOnUse" x1="2376.0535" y1="8126.0112" x2="1490.7418" y2="-530.0581">
			<stop  offset="0" style="stop-color:#39D4FF"/>
			<stop  offset="1" style="stop-color:#8B00FF"/>
		</linearGradient>
		
			<rect y="7.305" style="clip-path:url(#SVGID_00000023969846692585319100000012165051456318359185_);fill:url(#SVGID_00000061432043292987394020000016232322273509066412_);" width="3870.861" height="7621.092"/>
	</g>
	<g>
		<defs>
			<path id="SVGID_00000181049023377329935170000001375448287701610657_" d="M0,7688.82c31.994-8.356,65.009-16.449,98.898-24.74
				c300.508-73.524,668.298-163.517,967.63-609.179c287.393-427.872,173.991-811.975,76.265-1142.944
				c-136.333-461.757-242.25-820.507,804.715-1051.604c816.27-180.172,1053.503-355.176,998.886-585.253
				c-37.951-159.889-216.44-346.857-439.586-580.613c-162.237-169.948-348.054-364.6-520.738-591.645
				c-351.22-461.783-413.702-643.472-250.992-758.545c89.712-63.451,248.05-106.203,464.362-164.618
				c232.67-62.83,532.516-143.798,886.034-288.1c586.292-239.318,742.254-423.264,664.467-600.453
				c-68.908-156.966-320.712-309.358-619.546-490.199c-96.517-58.409-197.941-119.788-299.849-185.351
				c-35.335-22.737-71.822-46.081-106.452-68.233c-315.862-202.057-472.396-302.196-438.986-394.592
				c16.947-46.87,83.18-91.202,202.685-145.444h9.892c-123.492,55.346-191.628,99.975-208.559,146.803
				c-32.317,89.366,123.301,188.922,437.317,389.799c32.732,20.939,67.254,43.021,106.463,68.245
				c101.672,65.419,203.167,126.84,299.749,185.285c299.457,181.222,551.782,333.926,621.212,492.08
				c78.837,179.599-77.511,365.337-666.729,605.844c-353.682,144.371-653.73,225.396-886.556,288.269
				c-215.857,58.288-373.867,100.958-462.981,163.979c-160.072,113.204-97.399,293.53,251.902,752.798
				c172.585,226.913,358.295,421.455,520.436,591.298c223.58,234.203,402.405,421.533,440.613,582.477
				c55.243,232.728-182.688,409.307-1002.096,590.175c-1042.585,230.133-937.203,587.058-801.558,1046.479
				c97.964,331.795,211.65,716.854-76.792,1146.296c-300.25,447.022-668.93,537.228-970.166,610.936
				c-34.265,8.379-67.63,16.554-99.94,25.017V7688.82z"/>
		</defs>
		<clipPath id="SVGID_00000172434541224373488810000011332299308500381320_">
			<use xlink:href="#SVGID_00000181049023377329935170000001375448287701610657_"  style="overflow:visible;"/>
		</clipPath>
		
			<linearGradient id="SVGID_00000121998593545704185640000001360757545868340365_" gradientUnits="userSpaceOnUse" x1="2353.8992" y1="8128.2759" x2="1468.5875" y2="-527.7946">
			<stop  offset="0" style="stop-color:#39D4FF"/>
			<stop  offset="1" style="stop-color:#8B00FF"/>
		</linearGradient>
		
			<rect y="7.305" style="clip-path:url(#SVGID_00000172434541224373488810000011332299308500381320_);fill:url(#SVGID_00000121998593545704185640000001360757545868340365_);" width="3832.705" height="7685.782"/>
	</g>
	<g>
		<defs>
			<path id="SVGID_00000065756001000537912150000004708204481256567730_" d="M0,7765.243
				c67.599-25.001,141.584-45.103,219.354-66.229c302.864-82.28,663.391-180.229,926.923-646.975
				c242.944-430.271,124.885-804.602,23.228-1126.93c-147.933-469.02-261.262-828.351,814.278-1090.689
				c820.254-200.07,1057.582-382.584,997.53-611.531c-42.678-162.684-235.099-349.337-475.332-582.357
				c-168.993-163.927-361.625-350.791-542.535-568.492c-367.234-441.934-438.107-623.36-283.848-742.552
				c89.503-69.16,254.926-116.877,482.36-182.481c235.899-68.048,538.614-155.366,892.239-305.713
				c580.142-246.653,735.335-431.284,655.707-605.446c-71.934-157.324-334.917-306.864-649.64-485.831
				c-104.34-59.327-214.366-121.896-325.122-189.123l-2.592-1.57c-396.717-240.817-581.404-352.929-541.03-455.984
				c12.499-31.9,46.741-62.716,103.08-96.035h8.031c-58.921,34.087-94.524,65.31-107.131,97.489
				c-39.138,99.907,144.615,211.454,539.311,451.043l2.593,1.575c110.577,67.118,220.64,129.71,325.018,189.055
				c315.372,179.333,578.897,329.186,651.38,487.715c80.731,176.564-74.835,362.987-657.882,610.876
				c-353.896,150.467-656.739,237.818-892.746,305.893c-226.975,65.477-392.064,113.095-480.907,181.746
				c-151.728,117.233-80.712,297.262,284.5,736.767c180.798,217.569,373.33,404.328,542.237,568.163
				c240.696,233.473,433.484,420.484,476.441,584.26c60.747,231.574-177.242,415.689-1000.62,616.521
				c-1071.193,261.279-958.433,618.818-811.243,1085.508c101.903,323.084,220.243,698.295-23.56,1130.087
				c-264.397,468.272-625.86,566.47-929.505,648.964C142.257,7724.229,67.871,7744.452,0,7769.732V7765.243z"/>
		</defs>
		<clipPath id="SVGID_00000021089421527757419510000017858054859896396188_">
			<use xlink:href="#SVGID_00000065756001000537912150000004708204481256567730_"  style="overflow:visible;"/>
		</clipPath>
		
			<linearGradient id="SVGID_00000165923503068713222850000007302845809188370871_" gradientUnits="userSpaceOnUse" x1="2331.1333" y1="8130.6079" x2="1445.8186" y2="-525.4924">
			<stop  offset="0" style="stop-color:#39D4FF"/>
			<stop  offset="1" style="stop-color:#8B00FF"/>
		</linearGradient>
		
			<rect y="7.305" style="clip-path:url(#SVGID_00000021089421527757419510000017858054859896396188_);fill:url(#SVGID_00000165923503068713222850000007302845809188370871_);" width="3794.535" height="7762.427"/>
	</g>
	<g>
		<defs>
			<path id="SVGID_00000058583961244485780160000008623597879238737547_" d="M0,7864.48
				c97.87-58.494,216.007-93.792,342.255-131.464c305.724-91.22,659.023-196.648,884.939-683.183
				c199.701-430.076,76.817-794.441-28.929-1107.99c-160.816-476.855-282.147-836.614,822.304-1131.99
				c823.783-220.313,1060.91-410.457,995.4-638.225c-47.577-165.406-254.315-351.203-512.002-582.778
				c-175.366-157.604-374.306-336.393-562.861-544.507c-382.441-422.13-461.688-602.674-315.688-725.666
				c88.855-74.853,261.298-127.86,499.732-201.15c238.919-73.444,544.191-167.278,897.729-323.752
				c574.163-254.12,728.508-439.553,647.055-610.68c-74.934-157.422-348.867-303.54-679.354-479.818
				c-112.455-59.982-231.467-123.463-351.271-191.981c-428.776-245.238-602.984-357.982-535.919-467.011
				c7.588-12.332,18.317-24.602,32.128-36.98h6.25c-15.116,13.12-26.698,26.07-34.701,39.077
				C2042,152.16,2215.299,263.995,2641.484,507.752c119.957,68.605,238.821,132.006,351.147,191.924
				c331.163,176.636,605.658,323.048,681.18,481.713c82.585,173.502-72.127,360.73-649.162,616.125
				c-353.819,156.598-659.2,250.464-898.201,323.933c-237.957,73.143-410.057,126.045-498.229,200.325
				c-143.584,120.958-64.24,300.061,316.094,719.874c188.407,207.948,387.259,386.659,562.553,544.191
				c258.189,232.027,465.324,418.187,513.213,584.697c66.261,230.377-171.495,422.145-998.379,643.288
				c-1100.148,294.224-979.416,652.228-819.385,1126.749c105.99,314.25,229.143,679.432,28.779,1110.942
				c-226.706,488.23-580.994,593.948-887.573,685.431C216.625,7774.808,97.957,7810.26,0,7869.542V7864.48z"/>
		</defs>
		<clipPath id="SVGID_00000132067446218189884830000007929114448424802212_">
			<use xlink:href="#SVGID_00000058583961244485780160000008623597879238737547_"  style="overflow:visible;"/>
		</clipPath>
		
			<linearGradient id="SVGID_00000147920426808185696000000004886000374276903347_" gradientUnits="userSpaceOnUse" x1="2307.2097" y1="8133.0527" x2="1421.894" y2="-523.0559">
			<stop  offset="0" style="stop-color:#39D4FF"/>
			<stop  offset="1" style="stop-color:#8B00FF"/>
		</linearGradient>
		
			<rect y="7.305" style="clip-path:url(#SVGID_00000132067446218189884830000007929114448424802212_);fill:url(#SVGID_00000147920426808185696000000004886000374276903347_);" width="3756.396" height="7862.237"/>
	</g>
	<g>
		<defs>
			<path id="SVGID_00000103967904037819441490000002181217563990686352_" d="M0,8007.759
				c116.646-127.685,285.713-182.672,467.559-241.747c309.125-100.424,655.242-212.866,841.763-717.78
				c157.851-427.303,29.998-781.467-79.971-1086.093c-175.178-485.236-305.123-845.219,828.545-1175.511
				c826.837-240.891,1063.474-438.763,992.492-665.31c-52.645-168.027-274.09-352.421-549.591-581.819
				c-181.324-150.984-386.049-321.45-581.642-519.746c-396.882-402.374-484.464-581.454-346.556-707.936
				c87.796-80.53,267.203-139.163,516.512-220.644c241.713-78.996,549.224-179.501,902.466-342.174
				c568.312-261.713,721.746-448.076,638.506-616.14c-77.903-157.302-362.539-299.417-708.636-472.22
				c-120.679-60.253-248.826-124.237-378.239-193.868c-435.412-234.279-602.7-348.681-538.967-458.816l0.399-0.65h4.933
				c-0.542,0.881-1.088,1.765-1.601,2.647c-61.954,107.066,104.548,220.371,537.307,453.223
				c129.454,69.656,257.518,133.596,378.117,193.808c346.804,173.152,632.011,315.553,710.535,474.103
				c84.408,170.443-69.367,358.599-640.525,621.624c-353.432,162.758-661.096,263.313-902.932,342.349
				c-248.788,81.312-427.824,139.826-514.943,219.728c-135.602,124.374-47.983,301.989,346.705,702.137
				c195.383,198.077,400.059,368.504,581.341,519.457c276.026,229.831,497.891,414.575,550.893,583.734
				c71.796,229.143-165.433,428.66-995.335,670.452c-1129.422,329.054-1000.088,687.315-825.759,1170.225
				c110.196,305.246,238.314,660.144,79.956,1088.817c-187.214,506.79-534.365,619.573-844.413,720.289
				C286.078,7829.296,116.209,7884.512,0,8014.409V8007.759z"/>
		</defs>
		<clipPath id="SVGID_00000018915772161979166630000017157316331863523493_">
			<use xlink:href="#SVGID_00000103967904037819441490000002181217563990686352_"  style="overflow:visible;"/>
		</clipPath>
		
			<linearGradient id="SVGID_00000114073036142633320040000004313133429717270438_" gradientUnits="userSpaceOnUse" x1="2281.0459" y1="8135.728" x2="1395.7325" y2="-520.3599">
			<stop  offset="0" style="stop-color:#39D4FF"/>
			<stop  offset="1" style="stop-color:#8B00FF"/>
		</linearGradient>
		
			<rect y="7.305" style="clip-path:url(#SVGID_00000018915772161979166630000017157316331863523493_);fill:url(#SVGID_00000114073036142633320040000004313133429717270438_);" width="3718.338" height="8007.104"/>
	</g>
	<g>
		<defs>
			<path id="SVGID_00000107563494868939308940000014072218116553543573_" d="M0,8258.118
				c103.286-287.446,340.701-370.866,595.229-460.232c313.053-109.92,652.048-228.943,797.434-750.693
				c117.619-422.066-15.319-765.712-129.626-1061.196c-191.168-494.169-330.41-854.106,832.79-1221.281
				c829.385-261.808,1065.238-467.5,988.759-692.779c-57.901-170.558-294.42-352.959-588.071-579.413
				c-186.886-144.125-396.895-306.082-598.837-494.282c-410.568-382.638-506.408-559.725-376.442-689.393
				c86.357-86.162,272.66-150.772,532.698-240.952c244.311-84.728,553.798-192.057,906.432-360.942
				c562.568-269.43,715.016-456.836,630.026-621.835c-80.837-156.955-375.896-294.521-737.411-463.076
				c-129.11-60.193-266.698-124.339-405.998-194.722c-401.39-202.797-572.016-317.025-554.281-420.016h4.374
				c-18.147,100.871,151.428,214.048,551.892,416.379c139.309,70.379,276.818,134.496,405.855,194.655
				c362.241,168.889,657.896,306.737,739.388,464.95c86.206,167.368-66.566,356.567-631.946,627.344
				c-352.843,168.984-662.468,276.362-906.889,361.131c-259.495,89.992-445.41,154.463-531.075,239.927
				c-127.774,127.488-31.952,303.081,376.329,683.594c201.788,188.061,411.722,349.958,598.54,494.027
				c294.206,226.882,531.175,409.626,589.472,581.355c77.342,227.828-159.066,435.193-991.5,697.953
				c-1158.972,365.845-1020.39,724.092-830.114,1215.949c114.526,296.057,247.728,640.373,129.759,1063.693
				c-145.963,523.806-486.042,643.213-800.093,753.479C339.873,7891.914,100.57,7976.036,0,8271.622V8258.118z M7.933,8995.374
				c-2.643-10.59-5.287-21.225-7.933-31.908v-17.743c4.108,16.667,8.225,33.214,12.328,49.651H7.933z"/>
		</defs>
		<clipPath id="SVGID_00000156581657518083863530000006691732527545042063_">
			<use xlink:href="#SVGID_00000107563494868939308940000014072218116553543573_"  style="overflow:visible;"/>
		</clipPath>
		
			<linearGradient id="SVGID_00000143619225555762364440000018006353909149623179_" gradientUnits="userSpaceOnUse" x1="2212.636" y1="8142.7251" x2="1327.3221" y2="-513.3664">
			<stop  offset="0" style="stop-color:#39D4FF"/>
			<stop  offset="1" style="stop-color:#8B00FF"/>
		</linearGradient>
		
			<rect y="7.305" style="clip-path:url(#SVGID_00000156581657518083863530000006691732527545042063_);fill:url(#SVGID_00000143619225555762364440000018006353909149623179_);" width="3680.416" height="8988.068"/>
	</g>
	<g>
		<defs>
			<path id="SVGID_00000148652759635829481290000012122247350243375807_" d="M99.869,8995.374
				c-15.753-65.201-31.459-132.185-46.737-200.992l-0.045-0.358c-26.432-701.99,313.689-830.28,672.149-965.476
				c317.508-119.757,649.462-244.959,752.049-781.875c79.178-414.402-58.92-747.168-177.652-1033.261
				c-209.026-503.674-358.238-863.223,834.739-1269.332c831.421-283.028,1066.188-496.633,984.215-720.552
				c-63.337-173.006-315.304-352.82-627.42-575.542c-191.991-137.016-406.719-290.246-614.404-468.219
				c-423.512-362.905-527.503-537.496-405.346-670.048c84.536-91.735,277.677-162.676,548.297-262.079
				c246.678-90.613,557.84-204.902,909.603-380.035c556.903-277.261,708.297-465.816,621.596-627.742
				c-83.74-156.402-388.934-288.899-765.64-452.433c-137.689-59.77-284.933-123.695-434.473-194.489
				c-373.604-176.851-546.059-287.735-559.368-385.635h4.317c13.395,96.025,184.962,205.862,556.926,381.936
				c149.423,70.738,296.656,134.66,434.343,194.426c377.454,163.862,683.258,296.631,767.679,454.301
				c87.968,164.291-63.721,354.638-623.416,633.295c-351.99,175.238-663.266,289.577-910.043,380.222
				c-270.065,99.196-462.799,169.993-546.64,260.96c-120.072,130.298-16.157,303.366,404.992,664.257
				c207.537,177.84,422.185,331.023,614.107,467.978c312.69,223.14,565.14,403.289,628.905,577.478
				c82.906,226.453-152.383,441.745-986.808,725.796c-1188.797,404.687-1040.27,762.578-832.213,1263.925
				c118.944,286.61,257.284,619.963,177.883,1035.541c-103.019,539.167-436.1,664.798-754.686,784.962
				c-356.985,134.635-695.688,262.398-669.433,961.323c15.336,69.091,31.101,136.292,46.895,201.67H99.869z"/>
		</defs>
		<clipPath id="SVGID_00000011741008037293004840000017737865163967780540_">
			<use xlink:href="#SVGID_00000148652759635829481290000012122247350243375807_"  style="overflow:visible;"/>
		</clipPath>
		
			<linearGradient id="SVGID_00000098930280037794957720000013714202501731504297_" gradientUnits="userSpaceOnUse" x1="2207.1445" y1="8143.2847" x2="1321.8312" y2="-512.8024">
			<stop  offset="0" style="stop-color:#39D4FF"/>
			<stop  offset="1" style="stop-color:#8B00FF"/>
		</linearGradient>
		
			<rect x="26.654" y="7.305" style="clip-path:url(#SVGID_00000011741008037293004840000017737865163967780540_);fill:url(#SVGID_00000098930280037794957720000013714202501731504297_);" width="3616.01" height="8988.068"/>
	</g>
	<g>
		<defs>
			<path id="SVGID_00000077315447922343543060000014072472448070218671_" d="M194.361,8995.374
				c-12.148-52.646-24.186-106.437-35.903-161.41l-0.046-0.399c-6.38-691.275,344.843-832.852,699.11-975.659
				c322.465-129.985,647.486-260.994,705.668-811.301c42.758-404.433-100.513-725.872-223.727-1002.297
				c-228.963-513.681-388.859-872.432,834.136-1319.619c832.907-304.548,1066.305-526.138,978.806-748.645
				c-68.94-175.324-336.728-351.923-667.604-570.118c-196.613-129.661-415.486-273.997-628.289-441.603
				c-435.72-343.183-547.745-514.806-433.276-649.95c82.344-97.21,282.26-174.854,563.328-284.018
				c248.822-96.635,561.332-218.01,911.957-399.402c551.308-285.223,701.572-475.032,613.181-633.896
				c-86.595-155.642-401.621-282.561-793.258-440.335c-146.433-58.994-303.577-122.305-463.641-193.118
				c-352.773-156.071-526.031-262.278-559.759-356.299h4.443c34.028,92.3,206.421,197.43,557.082,352.567
				c159.844,70.715,317.034,134.04,463.508,193.051c392.399,158.09,708.054,285.254,795.376,442.195
				c89.687,161.199-60.859,352.801-614.924,639.446c-350.873,181.525-663.481,302.938-912.382,399.607
				c-280.471,108.922-479.955,186.404-561.609,282.801c-112.499,132.821-0.61,302.908,432.674,644.17
				c212.61,167.454,431.431,311.757,627.99,441.384c331.479,218.591,599.755,395.513,669.183,572.065
				c88.482,225.008-145.39,448.299-981.28,753.939c-1218.836,445.663-1059.655,802.783-831.728,1314.146
				c123.413,276.883,266.917,598.841,224.043,1004.36c-58.443,552.73-384.625,684.214-708.257,814.67
				C506.257,8003.959,156.39,8145,162.671,8833.339c11.766,55.199,23.854,109.197,36.05,162.035H194.361z"/>
		</defs>
		<clipPath id="SVGID_00000124132884658353822160000000730430323823236224_">
			<use xlink:href="#SVGID_00000077315447922343543060000014072472448070218671_"  style="overflow:visible;"/>
		</clipPath>
		
			<linearGradient id="SVGID_00000127760303816279203910000009773712612694609851_" gradientUnits="userSpaceOnUse" x1="2250.6182" y1="8138.8438" x2="1365.3048" y2="-517.2428">
			<stop  offset="0" style="stop-color:#39D4FF"/>
			<stop  offset="1" style="stop-color:#8B00FF"/>
		</linearGradient>
		
			<rect x="152.033" y="7.305" style="clip-path:url(#SVGID_00000124132884658353822160000000730430323823236224_);fill:url(#SVGID_00000127760303816279203910000009773712612694609851_);" width="3453.109" height="8988.068"/>
	</g>
	<g>
		<defs>
			<path id="SVGID_00000158000093521728119670000007553092652090084514_" d="M291.742,8995.374
				c-8.639-39.76-17.154-80.17-25.466-121.248l-0.049-0.252v-0.181c13.215-682.147,375.083-837.368,725.828-987.813
				c327.916-140.649,646.085-277.125,658.352-838.934c8.564-392.273-139.833-701.903-267.512-968.312
				C1131.658,5554.445,960.35,5197,2213.537,4706.515c833.834-326.361,1065.556-556,972.525-777.005
				c-74.739-177.566-358.697-350.289-708.587-563.118c-200.786-122.13-423.262-257.457-640.442-414.527
				c-447.228-323.449-567.151-491.673-460.242-629.116c79.797-102.597,286.42-187.317,577.766-306.771
				c250.708-102.803,564.251-231.361,913.458-419.022c545.757-293.297,694.829-484.458,604.787-640.25
				c-89.412-154.714-413.949-275.568-820.199-426.848c-155.437-57.879-322.824-120.215-493.461-190.554
				C1820.552,199.731,1646.842,98.367,1599.848,7.305h4.635c47.383,89.412,220.203,189.657,556.333,328.213
				c170.771,70.399,338.008,132.675,493.306,190.503c407.055,151.581,732.233,272.675,822.402,428.684
				c91.383,158.117-57.947,351.069-606.432,645.827c-349.479,187.813-663.097,316.407-913.873,419.23
				c-290.717,119.203-496.895,203.742-576.012,305.461c-105.049,135.058,14.678,301.718,459.387,623.348
				c217.092,157.004,439.465,292.273,640.156,414.345c350.522,213.213,635,386.25,710.256,565.047
				c94.068,223.482-138.086,454.843-974.866,782.355c-1249.051,488.871-1078.499,844.722-828.386,1366.593
				c127.879,266.815,276.502,576.908,267.92,970.131c-12.323,564.414-331.714,701.411-660.892,842.602
				c-349.486,149.902-710.055,304.564-723.28,983.948c8.349,41.247,16.913,81.838,25.592,121.782H291.742z"/>
		</defs>
		<clipPath id="SVGID_00000000931828422511169750000008911175498086739626_">
			<use xlink:href="#SVGID_00000158000093521728119670000007553092652090084514_"  style="overflow:visible;"/>
		</clipPath>
		
			<linearGradient id="SVGID_00000177480793495625266530000014417865988338569875_" gradientUnits="userSpaceOnUse" x1="2288.699" y1="8134.9443" x2="1403.3857" y2="-521.1414">
			<stop  offset="0" style="stop-color:#39D4FF"/>
			<stop  offset="1" style="stop-color:#8B00FF"/>
		</linearGradient>
		
			<rect x="266.228" y="7.305" style="clip-path:url(#SVGID_00000000931828422511169750000008911175498086739626_);fill:url(#SVGID_00000177480793495625266530000014417865988338569875_);" width="3301.678" height="8988.068"/>
	</g>
	<g>
		<defs>
			<path id="SVGID_00000090293041548848235670000016594181242698523524_" d="M392.38,8995.374
				c-5.334-26.586-10.586-53.452-15.739-80.606l-0.049-0.238l0.011-0.226c32.288-674.566,404.343-843.753,752.177-1001.922
				c333.82-151.8,645.262-293.421,610.197-864.737c-23.208-378.04-176.587-675.309-308.694-931.332
				c-276.119-535.149-459.566-890.68,823.934-1426.798c834.193-348.436,1063.934-586.175,965.359-805.598
				c-80.712-179.69-381.19-347.856-750.354-554.468c-204.441-114.421-429.927-240.622-650.824-387.088
				c-458.036-303.717-585.685-468.115-486.231-607.577c76.914-107.861,290.176-200.048,591.622-330.352
				c252.328-109.074,566.536-244.895,914.096-438.85c540.229-301.477,688.037-494.087,596.379-646.805
				c-92.186-153.612-425.897-267.934-846.451-412.015c-164.434-56.328-342.135-117.211-523.837-186.755
				C1733.17,193.393,1558.822,96.355,1503.574,7.305h4.813c55.662,87.423,229.07,183.312,557.156,308.883
				c181.719,69.547,359.327,130.399,523.678,186.706c421.392,144.358,755.763,258.91,848.725,413.818
				c93.043,155.03-54.995,349.442-597.921,652.424c-347.782,194.079-662.083,329.943-914.483,439.049
				c-300.803,130.025-513.605,222.013-589.851,328.933c-97.707,137.019,29.677,299.842,485.135,601.845
				c220.884,146.464,446.219,272.577,650.526,386.919c369.833,206.988,670.855,375.463,752.125,556.398
				c99.67,221.865-130.459,461.339-967.563,810.996c-1279.384,534.394-1096.738,888.383-821.816,1421.205
				c132.292,256.377,285.885,554.054,309.142,932.929c35.236,574.073-277.465,716.273-612.646,868.69
				c-346.671,157.641-717.471,326.263-749.71,998.184c5.178,27.32,10.465,54.349,15.828,81.089H392.38z"/>
		</defs>
		<clipPath id="SVGID_00000083048467897284386980000006040099646822903952_">
			<use xlink:href="#SVGID_00000090293041548848235670000016594181242698523524_"  style="overflow:visible;"/>
		</clipPath>
		
			<linearGradient id="SVGID_00000127038597153032220330000017734321540873019781_" gradientUnits="userSpaceOnUse" x1="2325.0435" y1="8131.2314" x2="1439.7297" y2="-524.86">
			<stop  offset="0" style="stop-color:#39D4FF"/>
			<stop  offset="1" style="stop-color:#8B00FF"/>
		</linearGradient>
		
			<rect x="376.593" y="7.305" style="clip-path:url(#SVGID_00000083048467897284386980000006040099646822903952_);fill:url(#SVGID_00000127038597153032220330000017734321540873019781_);" width="3154.397" height="8988.068"/>
	</g>
	<g>
		<defs>
			<path id="SVGID_00000131326623637597577850000013853318259415378334_" d="M496.628,8995.374
				c-2.373-13.116-4.719-26.301-7.03-39.552l-0.045-0.253l0.02-0.24c50.8-668.505,432.602-851.982,778.069-1018.01
				c340.163-163.47,644.981-309.953,561.271-888.666c-52.345-361.891-210.472-646.202-346.859-891.426
				c-46.674-83.921-90.805-163.273-127.274-239.54c-201.214-420.827-170.857-749.736,940.902-1244.023
				c833.951-370.778,1061.403-616.659,957.29-834.406c-86.878-181.701-404.215-344.607-792.874-544.119
				c-207.493-106.514-435.307-223.464-659.374-359.369c-468.159-283.961-603.358-444.148-511.246-585.348
				c73.706-113.005,293.529-213.055,604.899-354.762c253.653-115.453,568.163-258.591,913.82-458.839
				c534.702-309.764,681.172-503.914,587.939-653.576c-94.915-152.331-437.446-259.687-871.958-395.867
				c-173.528-54.393-361.728-113.374-554.724-181.682c-329.34-116.568-504.929-210.22-564.627-298.392h4.941
				c60.128,86.53,234.722,179.008,561.144,294.536c192.917,68.278,381.09,127.254,554.599,181.633
				c435.358,136.454,778.561,244.017,874.28,397.651c94.673,151.955-52.018,347.913-589.391,659.225
				c-345.76,200.308-660.423,343.518-914.216,459.031c-310.7,141.402-530.051,241.239-603.097,353.219
				c-90.489,138.718,44.384,297.325,509.897,579.683c223.861,135.784,451.642,252.714,659.108,359.214
				c389.356,199.875,707.262,363.07,794.743,546.033c105.268,220.159-122.537,467.805-959.365,839.859
				c-1108.372,492.78-1138.935,820.056-938.827,1238.574c36.475,76.281,80.552,155.524,127.161,239.329
				c136.555,245.536,294.887,530.205,347.333,892.792c84.132,581.639-221.983,728.747-563.593,892.917
				c-344.396,165.5-724.994,348.41-775.695,1014.401c2.343,13.396,4.711,26.719,7.111,39.971H496.628z"/>
		</defs>
		<clipPath id="SVGID_00000119078525161588629050000008920045827536347837_">
			<use xlink:href="#SVGID_00000131326623637597577850000013853318259415378334_"  style="overflow:visible;"/>
		</clipPath>
		
			<linearGradient id="SVGID_00000140712147684506688340000003820268426819550598_" gradientUnits="userSpaceOnUse" x1="2362.8645" y1="8127.3589" x2="1477.5508" y2="-528.7312">
			<stop  offset="0" style="stop-color:#39D4FF"/>
			<stop  offset="1" style="stop-color:#8B00FF"/>
		</linearGradient>
		
			<rect x="489.552" y="7.305" style="clip-path:url(#SVGID_00000119078525161588629050000008920045827536347837_);fill:url(#SVGID_00000140712147684506688340000003820268426819550598_);" width="3004.912" height="8988.068"/>
	</g>
	<g>
		<defs>
			<path id="SVGID_00000154389565361760848390000011333297147064755093_" d="M605.314,8995.374
				c69.105-662.882,459.905-860.839,803.275-1034.756c346.874-175.697,645.182-326.794,511.643-910.722
				c-78.665-343.944-241.174-614.679-381.622-848.65c-54.901-91.463-106.44-177.321-148.313-259.777
				c-213.594-420.657-175.812-752.102,947.662-1282.555c833.096-393.347,1057.96-647.415,948.292-863.393
				c-93.219-183.587-427.76-340.494-836.11-532.015c-210.049-98.511-439.619-206.183-666.074-331.456
				c-477.612-264.2-620.159-419.802-535.283-562.485c70.192-117.984,296.495-226.303,617.573-379.986
				c254.766-121.941,569.283-272.48,912.66-478.937c529.162-318.163,674.236-513.945,579.438-660.547
				c-97.568-150.893-448.561-250.86-896.644-378.477c-182.722-52.039-381.578-108.669-586.104-175.287
				C1541.465,187.465,1363.931,95.998,1303.033,7.305h4.97c61.343,87.008,237.861,177.264,569.064,285.14
				c204.342,66.552,403.226,123.19,585.966,175.238c448.95,127.861,800.62,228.021,899.051,380.242
				c96.258,148.875-49.01,346.455-580.819,666.203c-343.547,206.567-658.162,357.154-913.006,479.129
				c-320.407,153.363-546.232,261.45-615.776,378.344c-83.375,140.153,58.788,294.174,533.692,556.886
				c226.229,125.146,455.788,232.81,665.823,331.317c409.072,191.862,744.208,349.047,838.078,533.909
				c110.877,218.355-114.292,474.192-950.243,868.892C1219.7,5191.481,1181.697,5521.31,1394.125,5939.659
				c41.803,82.324,93.305,168.124,148.17,259.524c140.603,234.226,303.287,505.252,382.097,849.835
				c134.238,586.986-165.397,738.764-513.826,915.241c-342.351,173.397-731.971,370.768-800.967,1031.114H605.314z"/>
		</defs>
		<clipPath id="SVGID_00000124147955828067361340000005717413670721524391_">
			<use xlink:href="#SVGID_00000154389565361760848390000011333297147064755093_"  style="overflow:visible;"/>
		</clipPath>
		
			<linearGradient id="SVGID_00000047023750692543122790000006634709935851553160_" gradientUnits="userSpaceOnUse" x1="2402.2722" y1="8123.3291" x2="1516.9587" y2="-532.76">
			<stop  offset="0" style="stop-color:#39D4FF"/>
			<stop  offset="1" style="stop-color:#8B00FF"/>
		</linearGradient>
		
			<rect x="605.314" y="7.305" style="clip-path:url(#SVGID_00000124147955828067361340000005717413670721524391_);fill:url(#SVGID_00000047023750692543122790000006634709935851553160_);" width="2853.028" height="8988.068"/>
	</g>
	<g>
		<defs>
			<path id="SVGID_00000056420465811274378920000016229213259484062396_" d="M729.605,8995.374
				c97.456-627.182,487.308-834.934,821.954-1013.17c353.93-188.509,645.837-343.981,461.388-930.864
				c-101.976-324.471-268.361-580.942-412.528-803.167c-64.881-100.001-125.265-193.085-173.243-282.237
				c-225.729-419.44-178.95-753.812,953.913-1320.699c831.613-416.146,1053.578-678.417,938.358-892.525
				c-99.752-185.35-451.814-335.485-880.027-518.086c-212.055-90.429-442.776-188.811-670.897-303.458
				c-486.396-244.427-636.096-395.105-558.324-539.008c66.368-122.793,299.069-239.811,629.664-406.038
				c255.544-128.502,569.661-286.444,910.536-499.107c523.592-326.658,667.208-524.157,570.899-667.703
				c-100.187-149.325-459.269-241.494-920.513-359.891c-191.967-49.276-401.617-103.09-617.892-167.542
				c-345.675-103.013-525.724-193.656-584.61-284.574h4.915c59.341,89.167,238.384,178.563,580.963,280.658
				c215.963,64.355,425.696,118.191,617.733,167.485c462.123,118.62,821.891,210.973,922.976,361.624
				c97.821,145.808-45.954,345.099-572.155,673.384c-340.998,212.742-655.237,370.752-910.883,499.303
				c-329.883,165.871-562.098,282.639-627.846,404.294c-76.377,141.323,72.861,290.419,556.503,533.469
				c227.949,114.55,458.631,212.923,670.654,303.333c428.964,182.925,781.643,333.32,882.09,519.966
				c116.485,216.448-105.748,480.507-940.184,898.064c-1129.584,565.257-1176.571,898.02-952.083,1315.156
				c47.983,89.164,108.279,182.112,173.058,281.962c144.322,222.454,310.88,479.197,413.003,804.142
				c185.45,590.055-107.822,746.26-463.415,935.651c-333.663,177.717-722.356,384.853-819.685,1009.578H729.605z"/>
		</defs>
		<clipPath id="SVGID_00000137830676290775668480000017279600027856720278_">
			<use xlink:href="#SVGID_00000056420465811274378920000016229213259484062396_"  style="overflow:visible;"/>
		</clipPath>
		
			<linearGradient id="SVGID_00000099649770228630727140000017483955519337016719_" gradientUnits="userSpaceOnUse" x1="2454.5579" y1="8117.9814" x2="1569.2444" y2="-538.1079">
			<stop  offset="0" style="stop-color:#39D4FF"/>
			<stop  offset="1" style="stop-color:#8B00FF"/>
		</linearGradient>
		
			<rect x="729.605" y="7.305" style="clip-path:url(#SVGID_00000137830676290775668480000017279600027856720278_);fill:url(#SVGID_00000099649770228630727140000017483955519337016719_);" width="2710.113" height="8988.068"/>
	</g>
	<g>
		<defs>
			<path id="SVGID_00000146463573005095844800000011352823958486574265_" d="M859.736,8995.374
				c123.191-594.453,510.67-811.107,836.753-993.377c361.281-201.946,646.888-361.598,410.598-949.085
				c-122.096-303.559-291.708-545.125-439.147-755.103c-76.706-109.238-147.417-209.951-202.383-306.484
				c-237.605-417.321-180.563-755.14,959.531-1358.729c829.5-439.155,1048.264-709.646,927.488-921.781
				c-106.471-186.993-476.373-329.551-924.596-502.285c-213.492-82.272-444.738-171.395-673.794-275.448
				c-494.533-224.653-651.145-370.086-580.374-514.956c62.264-127.447,301.279-253.584,641.139-432.937
				c256.04-135.122,569.41-300.502,907.46-519.296c517.979-335.256,660.053-534.538,562.258-675.034
				c-102.749-147.62-469.521-231.613-943.496-340.163c-201.339-46.112-422.015-96.649-650.002-158.383
				c-363.772-98.505-546.508-189.812-599.802-285.007h4.787c53.764,93.361,235.511,183.388,596.166,281.05
				c227.98,61.734,448.577,112.252,649.846,158.343c474.887,108.759,842.371,192.922,946.045,341.864
				c99.357,142.736-42.863,343.826-563.424,680.75c-338.165,218.87-651.648,384.311-907.795,519.483
				c-339.146,178.982-577.661,304.854-639.326,431.085c-69.493,142.253,86.602,286.1,578.332,509.481
				c228.973,104.015,460.133,193.104,673.546,275.348c449.003,173.035,819.551,315.839,926.753,504.13
				c122.099,214.441-96.884,486.728-929.158,927.348C1290.236,5238.09,1232.988,5574.32,1469.286,5989.34
				c54.841,96.319,125.518,196.979,202.184,306.165c147.562,210.159,317.326,451.924,439.591,755.924
				c237.607,590.759-49.389,751.189-412.432,954.126c-325.153,181.749-711.503,397.772-834.547,989.818H859.736z"/>
		</defs>
		<clipPath id="SVGID_00000118372926815113443950000008289587743294702778_">
			<use xlink:href="#SVGID_00000146463573005095844800000011352823958486574265_"  style="overflow:visible;"/>
		</clipPath>
		
			<linearGradient id="SVGID_00000162328708345459604440000010456045267218158514_" gradientUnits="userSpaceOnUse" x1="2538.0913" y1="8109.4395" x2="1652.7776" y2="-546.6509">
			<stop  offset="0" style="stop-color:#39D4FF"/>
			<stop  offset="1" style="stop-color:#8B00FF"/>
		</linearGradient>
		
			<rect x="859.736" y="7.305" style="clip-path:url(#SVGID_00000118372926815113443950000008289587743294702778_);fill:url(#SVGID_00000162328708345459604440000010456045267218158514_);" width="2618.663" height="8988.068"/>
	</g>
	<g>
		<defs>
			<path id="SVGID_00000097482228704020328110000007413815519504098992_" d="M995.719,8995.374
				c146.216-564.582,529.949-789.402,847.611-975.441c368.87-216.038,648.275-379.676,359.327-965.367
				c-138.882-281.51-310.875-507.486-460.976-704.683c-90.724-119.189-173.454-227.889-236.116-332.074
				c-249.241-414.413-180.927-756.331,964.436-1396.874c826.725-462.345,1041.975-741.056,915.643-951.115
				c-113.373-188.498-501.438-322.651-969.773-484.544c-214.327-74.087-445.458-153.987-674.733-247.549
				c-502.022-204.867-665.328-344.738-601.427-490.336c57.88-131.897,303.102-267.598,652.006-460.679
				c256.248-141.81,568.507-314.608,903.409-539.447c512.316-343.947,652.773-545.098,553.53-682.561
				c-105.251-145.771-479.326-221.239-965.568-319.33c-210.641-42.497-442.317-89.235-682.421-147.82
				c-388.436-94.774-573.325-188.348-616.861-290.25h4.571c43.961,99.975,227.919,192.237,613.347,286.281
				c239.94,58.539,471.603,105.273,682.241,147.766c487.182,98.285,861.969,173.898,968.184,321.003
				c100.842,139.674-39.736,342.63-554.583,688.278c-335.073,224.944-647.414,397.796-903.738,539.646
				c-348.156,192.671-592.868,328.09-650.198,458.718c-62.731,142.942,99.994,281.239,599.168,484.946
				c229.3,93.574,460.3,173.427,674.504,247.471c469.145,162.171,857.875,296.555,972.024,486.348
				c127.699,212.328-87.719,492.855-917.183,956.731c-1142.24,638.793-1210.757,979.133-962.893,1391.249
				c62.531,103.974,145.21,212.6,235.863,331.705c150.212,197.344,322.328,423.477,461.388,705.35
				c290.605,589.045,9.777,753.513-360.965,970.646c-316.762,185.523-699.37,409.687-845.412,971.931H995.719z"/>
		</defs>
		<clipPath id="SVGID_00000034077154967130814380000014074648993787126400_">
			<use xlink:href="#SVGID_00000097482228704020328110000007413815519504098992_"  style="overflow:visible;"/>
		</clipPath>
		
			<linearGradient id="SVGID_00000052097721089616550260000009324687510796183698_" gradientUnits="userSpaceOnUse" x1="2618.5967" y1="8101.21" x2="1733.283" y2="-554.8799">
			<stop  offset="0" style="stop-color:#39D4FF"/>
			<stop  offset="1" style="stop-color:#8B00FF"/>
		</linearGradient>
		
			<rect x="983.805" y="7.305" style="clip-path:url(#SVGID_00000034077154967130814380000014074648993787126400_);fill:url(#SVGID_00000052097721089616550260000009324687510796183698_);" width="2533.221" height="8988.068"/>
	</g>
	<g>
		<defs>
			<path id="SVGID_00000015353744899244757640000005400159683945146764_" d="M1137.31,8995.374
				c166.458-537.631,545.3-769.842,854.688-959.429c376.64-230.792,649.945-398.265,307.666-979.71
				c-152.195-258.539-325.535-468.269-477.524-652.162c-107.138-129.627-203.674-246.431-274.807-358.539
				c-260.64-410.797-180.265-757.555,968.517-1435.29c823.287-485.714,1034.709-772.647,902.828-980.506
				c-120.468-189.869-526.988-314.736-1015.542-464.798c-214.486-65.88-444.771-136.613-673.672-219.864
				c-508.873-185.086-678.638-319.105-621.491-465.188c53.26-136.172,304.572-281.895,662.238-489.293
				c256.143-148.517,566.899-328.71,898.377-559.517c506.559-352.713,645.343-555.808,544.684-690.229
				c-107.691-143.817-488.659-210.404-986.702-297.466c-220.031-38.468-462.895-80.912-715.032-135.781
				C1092.098,216.349,906.488,118.754,877.583,7.305h4.409c29.241,109.419,213.917,205.655,630.488,296.29
				c252.254,54.883,494.959,97.304,714.85,135.743c499.008,87.228,880.711,153.954,989.398,299.099
				c102.302,136.622-36.571,341.511-545.646,695.977c-331.656,230.924-642.475,411.159-898.672,559.71
				c-356.931,206.969-607.727,352.398-660.452,487.199c-56.095,143.413,113.008,275.876,618.995,459.907
				c228.796,83.217,459.038,153.931,673.482,219.8c489.373,150.317,896.581,275.395,1017.875,466.567
				c133.296,210.091-78.257,498.849-904.232,986.147c-1145.736,675.938-1226.297,1021.135-967.12,1429.639
				c70.99,111.886,167.458,228.604,274.516,358.134c152.08,183.998,325.522,393.852,477.899,652.694
				c344.271,584.847,69.54,753.202-309.083,985.203c-308.527,189.056-686.268,420.589-852.525,955.96H1137.31z"/>
		</defs>
		<clipPath id="SVGID_00000035502184875041545520000012891547533122207926_">
			<use xlink:href="#SVGID_00000015353744899244757640000005400159683945146764_"  style="overflow:visible;"/>
		</clipPath>
		
			<linearGradient id="SVGID_00000141435693879804182120000005122318666967082134_" gradientUnits="userSpaceOnUse" x1="2585.1265" y1="8104.6289" x2="1699.8134" y2="-551.4561">
			<stop  offset="0" style="stop-color:#39D4FF"/>
			<stop  offset="1" style="stop-color:#8B00FF"/>
		</linearGradient>
		
			<rect x="877.583" y="7.305" style="clip-path:url(#SVGID_00000035502184875041545520000012891547533122207926_);fill:url(#SVGID_00000141435693879804182120000005122318666967082134_);" width="2678.024" height="8988.068"/>
	</g>
	<g>
		<defs>
			<path id="SVGID_00000114054116112370493010000007664412251175370407_" d="M1284.223,8995.374
				c183.93-513.548,556.926-752.463,858.23-945.397c384.536-246.244,651.818-417.399,255.673-992.098
				c-161.948-234.942-335.376-427.812-488.283-597.853c-126.249-140.401-238.528-265.265-318.86-385.429
				c-271.805-406.568-178.789-758.966,971.676-1474.148c819.16-509.214,1026.446-804.356,889.031-1009.906
				c-127.748-191.084-553.018-305.761-1061.833-442.964c-214.011-57.712-442.8-119.403-670.623-192.517
				c-515.094-165.301-691.047-293.203-640.541-439.557c48.39-140.209,305.682-296.426,671.849-518.746
				c255.702-155.253,564.571-342.779,892.321-579.449c500.729-361.572,637.751-566.673,535.714-698.067
				c-110.063-141.731-497.513-199.141-1006.86-274.603c-229.312-33.979-483.301-71.607-747.797-122.258
				C967.766,235.042,783.957,131.513,775.051,7.305h4.288c9.057,122.077,191.899,224.205,645.404,311.045
				c264.496,50.651,518.396,88.267,747.622,122.227c510.317,75.61,898.513,133.126,1009.624,276.201
				c103.718,133.562-33.37,340.463-536.573,703.819c-327.93,236.8-636.856,424.363-892.603,579.644
				c-365.413,221.863-622.173,377.757-670.082,516.565c-49.574,143.643,125.669,270.001,637.854,434.364
				c227.565,73.027,456.384,134.73,670.424,192.449c509.666,137.437,935.648,252.305,1064.27,444.697
				c138.887,207.749-68.486,504.725-890.304,1015.6c-1147.478,713.322-1240.679,1064.171-970.406,1468.452
				c80.211,119.975,192.369,244.706,318.487,384.96c153.012,170.162,326.563,363.168,488.626,598.279
				c398.505,578.125,129.771,750.207-256.868,997.799c-300.461,192.398-672.341,430.61-856.05,941.969H1284.223z"/>
		</defs>
		<clipPath id="SVGID_00000036945125585654733510000007799894817418896282_">
			<use xlink:href="#SVGID_00000114054116112370493010000007664412251175370407_"  style="overflow:visible;"/>
		</clipPath>
		
			<linearGradient id="SVGID_00000158001916039155994270000016667695860585112482_" gradientUnits="userSpaceOnUse" x1="2553.4702" y1="8107.8652" x2="1668.1571" y2="-548.22">
			<stop  offset="0" style="stop-color:#39D4FF"/>
			<stop  offset="1" style="stop-color:#8B00FF"/>
		</linearGradient>
		
			<rect x="775.051" y="7.305" style="clip-path:url(#SVGID_00000036945125585654733510000007799894817418896282_);fill:url(#SVGID_00000158001916039155994270000016667695860585112482_);" width="2819.114" height="8988.068"/>
	</g>
	<g>
		<defs>
			<path id="SVGID_00000167397340313240016670000013186669259411280033_" d="M1436.113,8995.374
				c198.73-492.268,565.107-737.274,858.494-933.414c392.51-262.406,653.855-437.121,203.449-1002.525
				c-167.99-210.877-340.077-386.402-492.757-542.134c-148.314-151.281-278.332-283.901-368.664-412.252
				c-282.74-401.789-176.661-760.683,973.834-1513.504c814.335-532.859,1017.177-836.184,874.234-1039.313
				c-135.224-192.159-579.532-295.7-1108.638-419.008c-212.984-49.634-439.693-102.464-665.53-165.578
				c-520.696-145.524-702.592-267.053-658.589-413.453c43.29-144.042,306.437-311.238,680.808-549.099
				c254.923-161.964,561.491-356.736,885.246-599.17c494.79-370.505,629.983-577.677,526.608-706.046
				c-112.379-139.551-505.904-187.471-1026.03-250.808c-238.52-29.045-503.645-61.33-780.648-107.231
				C840.229,259.374,661.725,147.788,678.339,7.305h4.294c-16.755,138.254,160.665,248.405,656.031,330.487
				c276.792,45.861,541.932,78.145,780.461,107.191c521.116,63.461,915.385,111.472,1028.846,252.358
				c105.107,130.523-30.12,339.492-527.346,711.818c-323.871,242.523-630.53,437.359-885.53,599.373
				c-373.599,237.362-636.204,404.211-679.059,546.803c-43.178,143.665,137.939,263.667,655.689,408.362
				c225.806,63.108,452.445,115.919,665.348,165.537c529.965,123.508,975.008,227.219,1111.161,420.696
				c144.458,205.282-58.431,510.446-875.379,1045.022c-1147.583,750.916-1253.829,1108.276-972.688,1507.792
				c90.12,128.056,220.036,260.575,368.228,411.731c152.738,155.787,324.89,331.384,493.029,542.45
				c453.145,568.831,190.336,744.532-204.383,1008.415c-292.581,195.605-657.877,439.882-856.35,930.033H1436.113z"/>
		</defs>
		<clipPath id="SVGID_00000152964013491035049690000017145592919395230635_">
			<use xlink:href="#SVGID_00000167397340313240016670000013186669259411280033_"  style="overflow:visible;"/>
		</clipPath>
		
			<linearGradient id="SVGID_00000029044380717281551220000002189768152969806488_" gradientUnits="userSpaceOnUse" x1="2516.4585" y1="8111.6504" x2="1631.1454" y2="-544.4348">
			<stop  offset="0" style="stop-color:#39D4FF"/>
			<stop  offset="1" style="stop-color:#8B00FF"/>
		</linearGradient>
		
			<rect x="661.725" y="7.305" style="clip-path:url(#SVGID_00000152964013491035049690000017145592919395230635_);fill:url(#SVGID_00000029044380717281551220000002189768152969806488_);" width="2970.968" height="8988.068"/>
	</g>
	<g>
		<defs>
			<path id="SVGID_00000160149472215495385620000000921594545691381439_" d="M1592.463,8995.374
				c210.998-473.721,570.235-724.279,855.948-923.528c90.333-62.999,173.314-120.864,241.844-178.994
				c235.338-199.614,300.53-402.998-90.817-832.012c-170.35-186.747-339.367-344.474-490.407-485.425
				c-173.679-162.092-323.619-302.019-424.62-438.481c-293.461-396.506-174.059-762.792,974.866-1553.467
				c808.818-556.614,1006.901-868.089,858.452-1068.664c-142.895-193.077-606.518-284.5-1155.899-392.835
				c-211.208-41.65-435.083-85.793-658.37-139.206c-525.694-125.749-713.256-240.673-675.636-386.908
				c37.99-147.665,306.845-326.32,689.117-580.343c253.824-168.667,557.714-370.602,877.131-618.633
				c488.746-379.512,622.034-588.821,517.348-714.172c-114.627-137.272-513.789-175.423-1044.159-226.122
				c-247.776-23.684-524.164-50.104-813.511-90.66C739.896,293.906,560.881,180.83,583.162,32.961
				c1.275-8.439,3.206-16.994,5.775-25.655h4.447c-2.677,8.869-4.696,17.62-5.995,26.246
				c-21.901,145.301,156.199,256.71,666.979,328.301c289.391,40.562,565.652,66.968,813.318,90.639
				c531.381,50.798,931.302,89.028,1047.044,227.629c106.453,127.477-26.837,338.58-517.973,719.946
				c-319.53,248.114-623.506,450.105-877.398,618.821c-381.492,253.504-649.799,431.796-687.405,577.948
				c-36.913,143.489,149.811,256.903,672.526,381.94c223.162,53.381,447.022,97.527,658.209,139.169
				c550.272,108.508,1014.646,200.082,1158.509,394.461c150.019,202.704-48.056,516.023-859.443,1074.404
				c-1146.093,788.732-1265.653,1153.493-973.875,1547.732c100.774,136.162,250.582,275.971,424.118,437.917
				c151.11,141.011,320.2,298.817,490.637,485.658c393.708,431.607,327.773,636.514,90.444,837.823
				c-68.7,58.268-151.756,116.19-242.173,179.241c-284.925,198.7-643.084,448.528-853.786,920.192H1592.463z"/>
		</defs>
		<clipPath id="SVGID_00000129928256923227030900000015239291844411996804_">
			<use xlink:href="#SVGID_00000160149472215495385620000000921594545691381439_"  style="overflow:visible;"/>
		</clipPath>
		
			<linearGradient id="SVGID_00000048486624902564421590000000944252919518644910_" gradientUnits="userSpaceOnUse" x1="2485.6208" y1="8114.8032" x2="1600.308" y2="-541.2798">
			<stop  offset="0" style="stop-color:#39D4FF"/>
			<stop  offset="1" style="stop-color:#8B00FF"/>
		</linearGradient>
		
			<rect x="560.881" y="7.305" style="clip-path:url(#SVGID_00000129928256923227030900000015239291844411996804_);fill:url(#SVGID_00000048486624902564421590000000944252919518644910_);" width="3110.335" height="8988.068"/>
	</g>
	<g>
		<defs>
			<path id="SVGID_00000041978219260878425930000013610929003612321723_" d="M1752.863,8995.374
				c220.929-457.73,572.622-713.49,850.918-915.805c108.466-78.849,205.771-149.59,279.675-220.918
				c204.509-197.393,230.246-400.272-181.158-796.621c-168.86-162.664-332.943-302.376-480.751-428.222
				c-202.675-172.553-374.775-319.081-487.154-463.561c-303.946-390.776-171.093-765.362,974.738-1594.071
				c802.578-580.463,995.588-900.042,841.656-1097.951c-150.765-193.822-633.965-272.09-1203.577-364.365
				c-208.749-33.813-429.105-69.51-649.16-113.512c-530.061-105.989-723.017-214.087-691.649-359.96
				c32.479-151.043,306.91-341.684,696.752-612.498c252.369-175.321,553.175-384.284,867.983-637.775
				c482.563-388.576,613.854-600.072,507.9-722.42c-116.793-134.873-521.171-163.012-1061.231-200.583
				c-256.777-17.868-544.217-37.864-846.326-72.552c-518.738-59.568-701.7-170.765-683.081-321.511
				c2.609-21.153,9.249-43.085,19.465-65.743h4.622c-10.45,22.858-17.232,44.96-19.863,66.238
				c-18.296,148.172,163.704,257.728,679.366,316.934c301.691,34.646,589.245,54.653,846.13,72.526
				c541.08,37.643,946.218,65.834,1064.194,202.062c107.754,124.433-23.524,337.73-508.457,728.203
				c-314.853,253.538-615.764,462.571-868.221,637.952c-389.048,270.258-662.92,460.512-695.067,610.01
				c-30.775,143.102,161.286,249.708,688.36,355.098c219.758,43.947,440.183,79.651,648.998,113.479
				c570.517,92.413,1054.478,170.81,1206.272,365.954c155.545,199.984-37.416,521.416-842.517,1103.702
				c-1143.065,826.717-1276.071,1199.8-973.878,1588.316c112.089,144.11,284.054,290.525,486.565,462.94
				c147.776,125.819,311.822,265.489,480.933,428.407c413.871,398.72,387.583,603.193,181.173,802.42
				c-74.168,71.585-171.558,142.382-280.116,221.303c-277.533,201.76-628.172,456.748-848.767,912.524H1752.863z"/>
		</defs>
		<clipPath id="SVGID_00000091721860230451678750000003807946605963994043_">
			<use xlink:href="#SVGID_00000041978219260878425930000013610929003612321723_"  style="overflow:visible;"/>
		</clipPath>
		
			<linearGradient id="SVGID_00000178196345788242990800000001347706082249961097_" gradientUnits="userSpaceOnUse" x1="2459.6042" y1="8117.4702" x2="1574.2913" y2="-538.6136">
			<stop  offset="0" style="stop-color:#39D4FF"/>
			<stop  offset="1" style="stop-color:#8B00FF"/>
		</linearGradient>
		
			<rect x="469.777" y="7.305" style="clip-path:url(#SVGID_00000091721860230451678750000003807946605963994043_);fill:url(#SVGID_00000178196345788242990800000001347706082249961097_);" width="3239.964" height="8988.068"/>
	</g>
	<g>
		<defs>
			<path id="SVGID_00000076591848719756861740000006845715541321460107_" d="M1916.699,8995.374
				c228.747-444.264,572.781-704.882,843.962-910.285c123.011-93.177,231.013-174.975,306.32-257.371
				c179.47-196.345,172.839-396.559-260.371-764.75c-163.845-139.26-320.733-260.719-463.315-371.103
				c-235.632-182.419-432.24-334.635-556.615-486.875c-314.227-384.637-167.877-768.457,973.34-1635.362
				c795.624-604.38,983.248-932.003,823.848-1127.114c-158.826-194.417-661.847-258.463-1251.61-333.55
				c-205.705-26.188-421.96-53.723-637.859-88.605c-533.835-86.257-731.912-187.315-706.659-332.628
				c26.797-154.206,306.636-357.356,703.683-645.596c250.597-181.915,547.943-397.772,857.79-656.518
				c476.251-397.708,605.471-611.445,498.293-730.784c-118.906-132.406-528.052-150.282-1077.232-174.278
				c-265.858-11.614-564.519-24.659-879.009-52.861c-523.478-46.941-710.512-156.052-695.704-309.6
				c3.352-34.743,17.135-71.75,39.691-110.79h4.82c-22.911,39.248-36.905,76.381-40.26,111.171
				c-14.561,150.979,171.461,258.455,691.85,305.121c314.41,28.191,613.011,41.235,878.816,52.849
				c550.225,24.038,960.149,41.948,1080.257,175.687c109.038,121.41-20.148,336.947-498.726,736.599
				c-309.912,258.793-607.34,474.714-858.009,656.682c-396.253,287.663-675.534,490.408-702.052,643.006
				c-24.768,142.529,172.345,242.112,703.171,327.882c215.853,34.88,432.053,62.403,637.704,88.591
				c590.691,75.203,1094.505,139.346,1254.401,335.071c161.067,197.155-26.463,526.635-824.56,1132.894
				c-1138.531,864.869-1285.018,1247.197-972.634,1629.578c124.094,151.897,320.519,303.974,555.94,486.221
				c142.656,110.447,299.63,231.97,463.466,371.223c435.773,370.378,442.031,572.23,260.753,770.562
				c-75.524,82.622-183.697,164.55-306.896,257.872c-270.44,204.837-613.446,464.667-841.826,907.061H1916.699z"/>
		</defs>
		<clipPath id="SVGID_00000067929020030326780600000018400738903546148521_">
			<use xlink:href="#SVGID_00000076591848719756861740000006845715541321460107_"  style="overflow:visible;"/>
		</clipPath>
		
			<linearGradient id="SVGID_00000176757780997182799430000002803660340983357832_" gradientUnits="userSpaceOnUse" x1="2434.6282" y1="8120.021" x2="1549.3151" y2="-536.0645">
			<stop  offset="0" style="stop-color:#39D4FF"/>
			<stop  offset="1" style="stop-color:#8B00FF"/>
		</linearGradient>
		
			<rect x="380.754" y="7.305" style="clip-path:url(#SVGID_00000067929020030326780600000018400738903546148521_);fill:url(#SVGID_00000176757780997182799430000002803660340983357832_);" width="3367.537" height="8988.068"/>
	</g>
	<g>
		<defs>
			<path id="SVGID_00000006685444558775065540000009465942763744305036_" d="M2083.562,8995.374
				c234.706-433.133,571.03-698.476,835.403-907.034c135.297-106.731,251.73-198.576,325.843-290.312
				c158.189-195.784,123.535-391.916-332.4-734.455c-154.892-116.363-302.358-219.773-437.679-314.656
				c-272.848-191.323-496.351-348.045-633.368-507.802c-324.272-378.104-164.504-772.095,970.635-1677.337
				c787.926-628.349,969.859-963.947,805.031-1156.139c-167.094-194.828-690.2-243.517-1299.999-300.282
				c-201.919-18.8-413.344-38.472-624.444-64.637c-537.015-66.546-739.924-160.375-720.654-304.936
				c20.946-157.129,306.026-373.329,709.948-679.659c248.435-188.408,541.894-410.96,846.506-674.782
				c469.797-406.889,596.867-622.923,488.495-739.267c-120.948-129.85-534.418-137.253-1092.134-147.225
				c-274.689-4.915-584.349-10.45-911.508-31.606C485.2,431.106,293.998,324.3,304.868,168.018
				c3.406-48.985,26.81-102.799,65.946-160.713h4.995c-39.602,58.126-63.289,112.044-66.692,160.985
				c-10.687,153.724,179.461,258.908,704.408,292.856c326.865,21.133,636.569,26.67,911.3,31.587
				c558.78,9.999,973.036,17.406,1095.228,148.592c110.264,118.379-16.734,336.204-488.821,745.074
				c-304.61,263.825-598.185,486.468-846.727,674.951c-403.111,305.714-687.622,521.479-708.342,676.958
				c-18.896,141.784,182.997,234.155,716.968,300.332c211.152,26.165,422.476,45.834,624.304,64.626
				c610.75,56.844,1134.66,105.615,1302.882,301.755c166.541,194.184-15.247,531.646-805.602,1161.927
				c-1132.524,903.164-1292.417,1295.679-970.064,1671.549c136.672,159.354,359.974,315.937,632.578,507.082
				c135.246,94.839,282.636,198.188,437.788,314.751c458.602,344.538,493.037,542.333,333.159,740.216
				c-74.439,92.131-191.028,184.103-326.512,290.978c-263.659,207.99-598.95,472.542-833.26,903.848H2083.562z"/>
		</defs>
		<clipPath id="SVGID_00000084487862896378697660000011537284436528664455_">
			<use xlink:href="#SVGID_00000006685444558775065540000009465942763744305036_"  style="overflow:visible;"/>
		</clipPath>
		
			<linearGradient id="SVGID_00000060023905862477037140000012651107532401888676_" gradientUnits="userSpaceOnUse" x1="2410.7839" y1="8122.4658" x2="1525.4702" y2="-533.6236">
			<stop  offset="0" style="stop-color:#39D4FF"/>
			<stop  offset="1" style="stop-color:#8B00FF"/>
		</linearGradient>
		
			<rect x="293.998" y="7.305" style="clip-path:url(#SVGID_00000084487862896378697660000011537284436528664455_);fill:url(#SVGID_00000060023905862477037140000012651107532401888676_);" width="3492.86" height="8988.068"/>
	</g>
	<g>
		<defs>
			<path id="SVGID_00000082368142639550146650000015532962467091567243_" d="M2252.942,8995.374
				c239.062-424.189,567.76-694.235,825.686-906.077c145.862-119.803,269.053-220.982,340.359-320.815
				c139.575-195.419,79.88-386.403-399.332-704.667c-142.75-94.808-278.011-180.316-403.432-259.601
				c-314.664-198.904-567.467-358.714-717.682-525.606c-334.106-371.223-161.078-776.331,966.52-1720.003
				c779.485-652.345,955.422-995.856,785.187-1185.002c-175.565-195.069-718.995-227.229-1348.68-264.5
				c-197.387-11.686-403.263-23.864-608.908-41.728c-539.588-46.874-747.036-133.292-733.615-276.928
				c14.923-159.81,305.073-389.63,715.468-714.692c245.968-194.828,535.19-423.903,834.173-692.515
				c463.188-416.115,588.024-634.489,478.5-747.846c-122.92-127.229-540.282-123.941-1105.935-119.497
				c-283.446,2.226-604.113,4.752-943.74-8.748c-532.407-21.164-727.853-125.458-721.06-284.387
				c2.726-63.709,38.128-136.138,97.451-215.457h5.155c-59.872,79.548-95.637,152.06-98.355,215.631
				c-6.681,156.378,187.673,259.072,716.993,280.112c339.472,13.493,660.103,10.97,943.526,8.744
				c566.724-4.455,984.881-7.743,1109.074,120.796c111.456,115.363-13.279,335.52-478.7,753.649
				c-299.094,268.702-588.364,497.823-834.381,692.689c-409.585,324.418-699.154,553.779-713.924,711.901
				c-13.162,140.846,193.211,225.84,729.763,272.45c205.659,17.865,411.461,30.043,608.786,41.725
				c630.635,37.32,1174.881,69.532,1351.616,265.901c171.992,191.096-3.74,536.467-785.595,1190.797
				c-1125.076,941.56-1298.217,1345.21-966.109,1714.203c149.819,166.468,402.404,326.135,716.797,524.873
				c125.602,79.394,261.066,165.028,403.529,259.646c481.966,320.091,541.589,512.757,400.428,710.391
				c-71.604,100.253-195.003,201.604-341.108,321.604c-257.229,211.275-584.944,480.513-823.584,902.957H2252.942z"/>
		</defs>
		<clipPath id="SVGID_00000062890390080869936080000004422604839110602880_">
			<use xlink:href="#SVGID_00000082368142639550146650000015532962467091567243_"  style="overflow:visible;"/>
		</clipPath>
		
			<linearGradient id="SVGID_00000115515251613924133320000004873955697536513185_" gradientUnits="userSpaceOnUse" x1="2388.1458" y1="8124.7725" x2="1502.8325" y2="-531.3124">
			<stop  offset="0" style="stop-color:#39D4FF"/>
			<stop  offset="1" style="stop-color:#8B00FF"/>
		</linearGradient>
		
			<rect x="209.658" y="7.305" style="clip-path:url(#SVGID_00000062890390080869936080000004422604839110602880_);fill:url(#SVGID_00000115515251613924133320000004873955697536513185_);" width="3615.792" height="8988.068"/>
	</g>
	<g>
		<defs>
			<path id="SVGID_00000000927774687670851900000013713698890823665800_" d="M2424.358,8995.374
				c242.055-417.346,563.39-692.149,815.232-907.475c155.133-132.64,283.856-242.695,351.169-349.486
				c122.985-195.111,40.431-380.099-462.386-674.809c-126.746-74.288-247.282-142.593-360.295-206.626
				c-361.352-204.758-645.881-365.985-809.816-539.589c-343.706-363.996-157.66-781.167,960.968-1763.363
				c770.3-676.345,939.915-1027.678,764.315-1213.64c-184.246-195.123-748.209-209.522-1397.575-226.104
				c-192.167-4.904-391.814-10.002-591.264-20.034c-541.565-27.232-753.268-106.069-745.561-248.604
				c8.772-162.278,303.793-406.288,720.267-750.758c243.127-201.094,527.695-436.461,820.764-709.616
				c456.405-425.398,578.919-646.146,468.282-756.517c-124.806-124.513-545.606-110.377-1118.587-91.122
				c-291.982,9.81-623.456,20.945-975.63,15.692c-536.575-7.991-736.341-109.563-733.746-271.053
				c1.262-78.773,50.99-171.736,133.328-274.964h5.266C186.14,110.779,136.01,203.798,134.757,282.33
				c-2.554,158.94,196.073,258.938,729.551,266.891c351.904,5.242,683.406-5.897,975.415-15.705
				c574.064-19.289,995.671-33.456,1121.795,92.376c112.609,112.346-9.781,334.879-468.378,762.322
				c-293.236,273.312-577.815,508.691-820.952,709.79c-415.663,343.804-710.105,587.339-718.786,747.849
				c-7.56,139.762,203.009,217.209,741.524,244.289c199.498,10.031,399.063,15.13,591.158,20.03
				c650.339,16.612,1215.15,31.031,1400.612,227.441c177.404,187.872,8.029,541.072-764.588,1219.45
				c-1116.181,980.04-1302.326,1395.756-960.69,1757.552c163.492,173.146,447.781,334.232,808.818,538.81
				c113.057,64.061,233.643,132.392,360.355,206.664c505.64,296.37,588.27,483.022,463.813,680.461
				c-67.63,107.292-196.583,217.544-351.99,350.416c-251.174,214.75-571.542,488.739-813.161,904.406H2424.358z"/>
		</defs>
		<clipPath id="SVGID_00000180358550042970074680000006773273161086277542_">
			<use xlink:href="#SVGID_00000000927774687670851900000013713698890823665800_"  style="overflow:visible;"/>
		</clipPath>
		
			<linearGradient id="SVGID_00000174564024597344794850000015527371905718397601_" gradientUnits="userSpaceOnUse" x1="2366.8174" y1="8126.9629" x2="1481.5038" y2="-529.1259">
			<stop  offset="0" style="stop-color:#39D4FF"/>
			<stop  offset="1" style="stop-color:#8B00FF"/>
		</linearGradient>
		
			<rect x="127.902" y="7.305" style="clip-path:url(#SVGID_00000180358550042970074680000006773273161086277542_);fill:url(#SVGID_00000174564024597344794850000015527371905718397601_);" width="3736.199" height="8988.068"/>
	</g>
	<g>
		<defs>
			<path id="SVGID_00000014626717196227475440000015163585164523044002_" d="M2597.412,8995.374
				c243.93-412.473,558.207-692.228,804.345-911.274c163.349-145.376,296.645-263.999,359.145-376.745
				c107.981-194.805,4.229-373.046-522.35-644.463c-107.035-55.168-210.158-107.186-307.987-156.53
				c-413.193-208.418-731.83-369.151-909.934-548.951c-353.098-356.465-154.349-786.634,953.892-1807.388
				c760.349-700.33,923.349-1059.389,742.417-1242.042c-193.143-194.984-777.865-190.329-1446.67-185.008
				c-186.189,1.484-378.894,3.021-571.495,0.309c-542.957-7.649-758.613-78.744-756.474-220.022
				c2.493-164.48,302.176-423.297,724.305-787.85c239.929-207.203,519.452-448.6,806.3-726.035
				c449.443-434.699,569.551-657.865,457.842-765.259c-126.625-121.737-550.42-96.582-1130.103-62.174
				c-300.418,17.831-642.664,38.152-1007.12,41.76c-540.511,5.351-744.63-93.295-746.378-257.248
				c-1.002-94.077,65.029-209.563,172.486-339.149h5.358C116.895,137.143,50.412,252.674,51.41,346.409
				c1.722,161.403,204.659,258.501,742.074,253.179c364.464-3.611,706.589-23.919,1006.898-41.747
				c580.786-34.472,1005.386-59.672,1133.372,63.368c113.719,109.333-6.229,334.276-457.834,771.062
				c-287.057,277.643-566.556,519.016-806.462,726.201c-421.323,363.861-720.437,622.173-722.9,784.849
				c-2.094,138.506,212.37,208.258,752.282,215.853c192.569,2.711,385.243,1.175,571.406-0.306
				c669.796-5.331,1255.381-9.994,1449.787,186.27c182.774,184.513,20.069,545.437-742.555,1247.864
				c-1105.858,1018.556-1304.693,1447.286-953.756,1801.563c177.625,179.329,495.987,339.915,908.815,548.15
				c97.36,49.105,199.983,100.874,308.021,156.563c529.467,272.909,633.414,452.79,524.096,650.013
				c-62.867,113.405-196.38,232.224-359.996,377.833c-245.498,218.482-558.841,497.412-802.32,908.251H2597.412z"/>
		</defs>
		<clipPath id="SVGID_00000088812820195170136140000006721402886516822695_">
			<use xlink:href="#SVGID_00000014626717196227475440000015163585164523044002_"  style="overflow:visible;"/>
		</clipPath>
		
			<linearGradient id="SVGID_00000002382116929404628470000004345416119442558904_" gradientUnits="userSpaceOnUse" x1="2345.5144" y1="8129.1396" x2="1460.201" y2="-526.9469">
			<stop  offset="0" style="stop-color:#39D4FF"/>
			<stop  offset="1" style="stop-color:#8B00FF"/>
		</linearGradient>
		
			<rect x="46.146" y="7.305" style="clip-path:url(#SVGID_00000088812820195170136140000006721402886516822695_);fill:url(#SVGID_00000002382116929404628470000004345416119442558904_);" width="3856.661" height="8988.068"/>
	</g>
	<g>
		<defs>
			<path id="SVGID_00000040562983003175941030000006053041079189168778_" d="M0,273.473
				C35.956,193.348,99.029,103.698,180.597,7.305h5.43C100.566,107.98,35.259,201.24,0,283.855V273.473z M2771.773,8995.374
				c244.891-409.431,552.484-694.424,793.3-917.5c170.625-158.055,307.684-285.012,364.835-402.93
				c94.248-194.445-29.354-365.254-579.735-613.306c-85.375-38.474-167.489-75.025-246.353-110.135
				c-470.373-209.391-825.426-367.449-1018.12-552.9c-362.244-348.632-151.175-792.728,945.255-1852.048
				c749.65-724.283,905.719-1090.972,719.504-1270.184c-202.247-194.645-807.949-169.575-1495.919-141.103
				c-179.524,7.431-364.654,15.091-549.597,19.139c-543.769,11.899-763.083-51.332-766.37-191.195
				c-3.916-166.434,300.225-440.68,727.586-826.02c236.314-213.078,510.336-460.164,790.748-741.671
				c442.299-444.027,559.91-669.645,447.167-774.068c-128.362-118.889-554.698-82.576-1140.467-32.676
				c-308.545,26.282-661.289,56.336-1038.11,69.407C298.317,673.019,78.012,617.337,0,512.27v-7.234
				c73.784,107.051,292.994,164.047,725.349,149.04c376.724-13.079,729.405-43.118,1037.896-69.401
				c586.874-49.995,1014.01-86.376,1143.78,33.817c114.791,106.328-2.632,333.72-447.054,779.874
				c-280.486,281.582-554.555,528.706-790.905,741.814c-426.543,384.61-730.102,658.328-726.231,822.936
				c3.224,137.102,221.287,199.009,762.009,187.177c185.031-4.049,370.072-11.708,549.513-19.134
				c688.957-28.515,1295.534-53.614,1499.105,142.306c188.099,181.024,32.367,549.565-719.497,1275.984
				c-1094.129,1057.103-1305.261,1499.771-945.26,1846.244c192.155,184.936,546.915,342.86,1016.895,552.081
				c79.026,35.176,161.306,71.806,246.372,110.143c553.334,249.38,677.256,421.816,581.796,618.761
				c-57.498,118.627-194.803,245.814-365.737,404.155c-240.201,222.499-546.889,506.665-791.323,914.54H2771.773z"/>
		</defs>
		<clipPath id="SVGID_00000016762043866127897850000002041121999129265071_">
			<use xlink:href="#SVGID_00000040562983003175941030000006053041079189168778_"  style="overflow:visible;"/>
		</clipPath>
		
			<linearGradient id="SVGID_00000020395516683423152160000018070146992362059690_" gradientUnits="userSpaceOnUse" x1="2385.2368" y1="8125.0703" x2="1499.9232" y2="-531.0193">
			<stop  offset="0" style="stop-color:#39D4FF"/>
			<stop  offset="1" style="stop-color:#8B00FF"/>
		</linearGradient>
		
			<rect y="7.305" style="clip-path:url(#SVGID_00000016762043866127897850000002041121999129265071_);fill:url(#SVGID_00000020395516683423152160000018070146992362059690_);" width="4029.229" height="8988.068"/>
	</g>
	<g>
		<defs>
			<path id="SVGID_00000181079044588646890570000012870223939211562420_" d="M0,197.219C40.076,137.199,89.513,73.617,146.008,7.305
				h5.434C92.435,76.392,41.089,142.498,0,204.664V197.219z M3994.694,7333.553c-102.451-84.426-273.274-172.871-531.472-273.779
				c-60.17-23.517-118.54-46.198-175.32-68.266c-533.071-207.154-926.742-360.141-1134.365-550.611
				c-371.172-340.524-148.231-799.462,934.991-1897.343c738.172-748.163,887-1122.358,695.557-1297.995
				c-211.575-194.103-838.443-147.195-1545.255-94.301c-172.142,12.884-349.03,26.117-525.567,36.299
				c-543.996,31.37-766.66-23.848-775.239-162.159c-10.431-168.152,297.932-458.473,730.052-865.299
				c232.39-218.787,500.604-471.303,774.151-756.427c434.966-453.383,549.987-681.486,436.259-782.937
				c-130.03-115.995-558.452-68.395-1149.648-2.705c-316.446,35.163-679.492,75.502-1068.559,98.669
				C324.58,736.687,114.691,709.773,0,647.129v-4.632c113.199,63.021,322.735,90.188,660.016,70.104
				c388.863-23.155,751.901-63.495,1068.341-98.657c592.315-65.815,1021.546-113.505,1153.017,3.777
				c115.817,103.323,1.02,333.192-436.022,788.735c-273.737,285.325-541.924,537.816-774.292,756.579
				c-431.304,406.062-739.087,695.833-728.773,862.12c8.405,135.544,229.767,189.485,770.715,158.293
				c176.851-10.201,353.542-23.428,525.506-36.296c707.804-52.966,1335.571-99.944,1548.519,95.426
				c193.375,177.401,44.926,553.452-695.416,1303.817c-1080.988,1095.611-1303.974,1553.137-935.136,1891.518
				c207.039,189.943,600.381,342.802,1133.012,549.783c56.964,22.136,115.527,44.893,175.337,68.266
				c256.066,100.077,426.567,188.104,529.869,272.244V7333.553z M2947.14,8995.374c245.114-408.154,546.443-698.751,782.318-926.195
				c104.995-101.245,197.002-189.959,265.235-270.914v6.481c-68.033,80.081-158.839,167.643-262.222,267.332
				c-235.279,226.872-535.733,516.644-780.386,923.295H2947.14z"/>
		</defs>
		<clipPath id="SVGID_00000183964885830770159740000012915172269903602613_">
			<use xlink:href="#SVGID_00000181079044588646890570000012870223939211562420_"  style="overflow:visible;"/>
		</clipPath>
		
			<linearGradient id="SVGID_00000147219719312067658780000011112893470369285519_" gradientUnits="userSpaceOnUse" x1="2368.1482" y1="8126.8237" x2="1482.8345" y2="-529.2679">
			<stop  offset="0" style="stop-color:#39D4FF"/>
			<stop  offset="1" style="stop-color:#8B00FF"/>
		</linearGradient>
		
			<rect y="7.305" style="clip-path:url(#SVGID_00000183964885830770159740000012915172269903602613_);fill:url(#SVGID_00000147219719312067658780000011112893470369285519_);" width="3994.694" height="8988.068"/>
	</g>
	<g>
		<defs>
			<path id="SVGID_00000168802014826673792890000015720724275170077847_" d="M0,150.783C34.729,104.44,73.41,56.502,115.17,7.305
				h5.446C76.668,58.976,36.156,109.23,0,157.716V150.783z M3994.694,7223.072c-105.112-52.767-242.35-107.33-417.006-165.839
				l-94.955-31.78c-601.362-201.144-1035.705-346.422-1258.529-541.258c-379.853-332.144-145.559-806.823,923.047-1943.195
				c725.933-771.978,867.23-1153.55,670.594-1325.481c-221.125-193.356-869.372-123.101-1594.636-44.498
				c-163.91,17.767-331.759,35.959-499.433,51.623c-543.635,50.777-769.341,3.678-783.064-132.927
				c-17.036-169.626,295.304-476.699,731.724-905.742c228.016-224.172,489.948-481.671,756.475-770.214
				c427.428-462.749,539.765-693.356,425.096-791.847c-131.615-113.041-561.676-54.047-1157.657,27.708
				c-324.144,44.468-697.328,95.664-1098.384,129.53C318.525,802.75,124.968,791.537,0,752.488v-4.187
				c124.117,39.145,317.451,50.41,597.605,26.753c400.951-33.862,774.072-85.044,1098.162-129.507
				c597.104-81.91,1027.978-141.014,1161.073-26.703c116.805,100.322,4.711,332.706-424.746,797.645
				c-266.53,288.555-528.536,546.127-756.62,770.359c-435.6,428.241-747.364,734.741-730.513,902.481
				c13.444,133.86,237.801,179.72,778.414,129.221c167.747-15.67,335.514-33.855,499.354-51.615
				c726.275-78.713,1375.424-149.063,1597.98,45.544c198.595,173.642,57.734,557.063-670.304,1331.273
				c-1066.458,1134.091-1300.782,1607.371-923.341,1937.4c222.183,194.278,656.186,339.442,1257.085,540.428l94.957,31.78
				c173.639,58.171,310.439,112.522,415.588,165.149V7223.072z M3123.271,8995.374c244.763-408.546,540.263-705.202,771.563-937.402
				c34.883-35.018,68.296-68.568,99.859-100.811v5.976c-30.661,31.29-63.04,63.797-96.793,97.682
				c-230.737,231.631-525.403,527.456-769.696,934.555H3123.271z"/>
		</defs>
		<clipPath id="SVGID_00000151542785708189386170000012871534826325591473_">
			<use xlink:href="#SVGID_00000168802014826673792890000015720724275170077847_"  style="overflow:visible;"/>
		</clipPath>
		
			<linearGradient id="SVGID_00000005244736339794169450000011119486473809929099_" gradientUnits="userSpaceOnUse" x1="2380.3259" y1="8125.5811" x2="1495.0127" y2="-530.5038">
			<stop  offset="0" style="stop-color:#39D4FF"/>
			<stop  offset="1" style="stop-color:#8B00FF"/>
		</linearGradient>
		
			<rect y="7.305" style="clip-path:url(#SVGID_00000151542785708189386170000012871534826325591473_);fill:url(#SVGID_00000005244736339794169450000011119486473809929099_);" width="4019.303" height="8988.068"/>
	</g>
	<g>
		<defs>
			<path id="SVGID_00000103987701591529432680000012193480494216572593_" d="M0,114.951C27.597,79.737,56.883,43.802,87.513,7.305
				h5.438C60.306,46.149,29.204,84.331,0,121.703V114.951z M3994.694,7148.964c-85.99-30.943-185.897-62.444-301.119-94.997
				l-5.368-1.517c-675.312-190.792-1152.212-325.526-1390.452-524.014c-388.313-323.515-143.229-814.818,909.37-1989.602
				c712.917-795.673,846.382-1184.497,644.629-1352.584c-230.927-192.392-900.731-97.203-1644.013,8.432
				c-155.088,22.041-313.384,44.538-471.175,64.922c-542.704,70.111-771.153,31.233-789.873-103.53
				c-23.742-170.878,292.334-495.413,732.532-947.39c223.368-229.349,478.736-491.545,737.771-782.941
				c419.686-472.113,529.253-705.261,413.679-800.79c-133.132-110.047-564.371-39.574-1164.473,58.499
				c-331.6,54.194-714.696,116.805-1127.505,161.987C301.714,871.38,125.594,870.634,0,847.778v-4.058
				c125.022,22.862,300.926,23.611,538.223-2.362c412.903-45.197,795.828-107.777,1127.278-161.945
				c601.245-98.256,1033.31-168.866,1167.942-57.582c117.753,97.33,8.465,332.234-413.208,806.58
				c-259.206,291.584-514.547,553.756-737.895,783.084c-439.39,451.152-754.892,775.092-731.416,944.038
				c18.345,132.036,245.389,169.71,785.076,99.989c158.276-20.448,316.29-42.908,471.11-64.908
				c744.307-105.781,1415.024-201.103,1647.422-7.482c203.765,169.76,70.791,560.425-644.173,1358.383
				C2159.844,5713.98,1914.741,6203.898,2300.538,6525.318c237.552,197.916,714.086,332.552,1388.871,523.192l5.371,1.514
				c114.612,32.382,214.113,63.748,299.914,94.598V7148.964z M3300.058,8995.374c220.736-371.445,479.219-655.104,694.636-881.585
				v6.094c-214.227,225.353-470.52,507.198-689.717,875.491H3300.058z"/>
		</defs>
		<clipPath id="SVGID_00000161595978233012123420000009298037276221721488_">
			<use xlink:href="#SVGID_00000103987701591529432680000012193480494216572593_"  style="overflow:visible;"/>
		</clipPath>
		
			<linearGradient id="SVGID_00000026853498169208058140000014654362673053283994_" gradientUnits="userSpaceOnUse" x1="2399.6211" y1="8123.6016" x2="1514.3073" y2="-532.49">
			<stop  offset="0" style="stop-color:#39D4FF"/>
			<stop  offset="1" style="stop-color:#8B00FF"/>
		</linearGradient>
		
			<rect y="7.305" style="clip-path:url(#SVGID_00000161595978233012123420000009298037276221721488_);fill:url(#SVGID_00000026853498169208058140000014654362673053283994_);" width="4058.298" height="8988.068"/>
	</g>
</g>
</svg>
